%TF.GenerationSoftware,KiCad,Pcbnew,9.0.0-rc1-459-gb92bef8eee*%
%TF.CreationDate,2025-02-18T20:32:14+01:00*%
%TF.ProjectId,AWG101,41574731-3031-42e6-9b69-6361645f7063,rev?*%
%TF.SameCoordinates,Original*%
%TF.FileFunction,Copper,L1,Top*%
%TF.FilePolarity,Positive*%
%FSLAX46Y46*%
G04 Gerber Fmt 4.6, Leading zero omitted, Abs format (unit mm)*
G04 Created by KiCad (PCBNEW 9.0.0-rc1-459-gb92bef8eee) date 2025-02-18 20:32:14*
%MOMM*%
%LPD*%
G01*
G04 APERTURE LIST*
G04 Aperture macros list*
%AMRoundRect*
0 Rectangle with rounded corners*
0 $1 Rounding radius*
0 $2 $3 $4 $5 $6 $7 $8 $9 X,Y pos of 4 corners*
0 Add a 4 corners polygon primitive as box body*
4,1,4,$2,$3,$4,$5,$6,$7,$8,$9,$2,$3,0*
0 Add four circle primitives for the rounded corners*
1,1,$1+$1,$2,$3*
1,1,$1+$1,$4,$5*
1,1,$1+$1,$6,$7*
1,1,$1+$1,$8,$9*
0 Add four rect primitives between the rounded corners*
20,1,$1+$1,$2,$3,$4,$5,0*
20,1,$1+$1,$4,$5,$6,$7,0*
20,1,$1+$1,$6,$7,$8,$9,0*
20,1,$1+$1,$8,$9,$2,$3,0*%
%AMRotRect*
0 Rectangle, with rotation*
0 The origin of the aperture is its center*
0 $1 length*
0 $2 width*
0 $3 Rotation angle, in degrees counterclockwise*
0 Add horizontal line*
21,1,$1,$2,0,0,$3*%
G04 Aperture macros list end*
%TA.AperFunction,EtchedComponent*%
%ADD10C,0.000000*%
%TD*%
%TA.AperFunction,ComponentPad*%
%ADD11R,1.700000X1.700000*%
%TD*%
%TA.AperFunction,ComponentPad*%
%ADD12O,1.700000X1.700000*%
%TD*%
%TA.AperFunction,SMDPad,CuDef*%
%ADD13RoundRect,0.200000X0.200000X0.275000X-0.200000X0.275000X-0.200000X-0.275000X0.200000X-0.275000X0*%
%TD*%
%TA.AperFunction,ComponentPad*%
%ADD14O,2.000000X3.500000*%
%TD*%
%TA.AperFunction,ComponentPad*%
%ADD15O,3.300000X2.000000*%
%TD*%
%TA.AperFunction,ComponentPad*%
%ADD16R,4.000000X2.000000*%
%TD*%
%TA.AperFunction,SMDPad,CuDef*%
%ADD17RoundRect,0.100000X0.637500X0.100000X-0.637500X0.100000X-0.637500X-0.100000X0.637500X-0.100000X0*%
%TD*%
%TA.AperFunction,HeatsinkPad*%
%ADD18C,0.500000*%
%TD*%
%TA.AperFunction,HeatsinkPad*%
%ADD19R,2.950000X4.900000*%
%TD*%
%TA.AperFunction,SMDPad,CuDef*%
%ADD20RoundRect,0.150000X-0.737500X-0.150000X0.737500X-0.150000X0.737500X0.150000X-0.737500X0.150000X0*%
%TD*%
%TA.AperFunction,HeatsinkPad*%
%ADD21R,2.410000X3.100000*%
%TD*%
%TA.AperFunction,SMDPad,CuDef*%
%ADD22RoundRect,0.150000X0.650000X0.150000X-0.650000X0.150000X-0.650000X-0.150000X0.650000X-0.150000X0*%
%TD*%
%TA.AperFunction,SMDPad,CuDef*%
%ADD23RoundRect,0.250000X-0.625000X0.312500X-0.625000X-0.312500X0.625000X-0.312500X0.625000X0.312500X0*%
%TD*%
%TA.AperFunction,SMDPad,CuDef*%
%ADD24RoundRect,0.200000X-0.275000X0.200000X-0.275000X-0.200000X0.275000X-0.200000X0.275000X0.200000X0*%
%TD*%
%TA.AperFunction,SMDPad,CuDef*%
%ADD25RoundRect,0.250000X-1.425000X0.362500X-1.425000X-0.362500X1.425000X-0.362500X1.425000X0.362500X0*%
%TD*%
%TA.AperFunction,SMDPad,CuDef*%
%ADD26RoundRect,0.225000X-0.225000X-0.250000X0.225000X-0.250000X0.225000X0.250000X-0.225000X0.250000X0*%
%TD*%
%TA.AperFunction,SMDPad,CuDef*%
%ADD27RoundRect,0.225000X-0.250000X0.225000X-0.250000X-0.225000X0.250000X-0.225000X0.250000X0.225000X0*%
%TD*%
%TA.AperFunction,SMDPad,CuDef*%
%ADD28RoundRect,0.225000X0.250000X-0.225000X0.250000X0.225000X-0.250000X0.225000X-0.250000X-0.225000X0*%
%TD*%
%TA.AperFunction,SMDPad,CuDef*%
%ADD29RoundRect,0.225000X0.225000X0.250000X-0.225000X0.250000X-0.225000X-0.250000X0.225000X-0.250000X0*%
%TD*%
%TA.AperFunction,SMDPad,CuDef*%
%ADD30RoundRect,0.218750X0.218750X0.256250X-0.218750X0.256250X-0.218750X-0.256250X0.218750X-0.256250X0*%
%TD*%
%TA.AperFunction,SMDPad,CuDef*%
%ADD31RoundRect,0.200000X-0.200000X-0.275000X0.200000X-0.275000X0.200000X0.275000X-0.200000X0.275000X0*%
%TD*%
%TA.AperFunction,SMDPad,CuDef*%
%ADD32RoundRect,0.250000X1.000000X-1.400000X1.000000X1.400000X-1.000000X1.400000X-1.000000X-1.400000X0*%
%TD*%
%TA.AperFunction,SMDPad,CuDef*%
%ADD33RoundRect,0.200000X0.275000X-0.200000X0.275000X0.200000X-0.275000X0.200000X-0.275000X-0.200000X0*%
%TD*%
%TA.AperFunction,SMDPad,CuDef*%
%ADD34RoundRect,0.250000X0.362500X1.425000X-0.362500X1.425000X-0.362500X-1.425000X0.362500X-1.425000X0*%
%TD*%
%TA.AperFunction,SMDPad,CuDef*%
%ADD35RoundRect,0.250000X-1.400000X-1.000000X1.400000X-1.000000X1.400000X1.000000X-1.400000X1.000000X0*%
%TD*%
%TA.AperFunction,SMDPad,CuDef*%
%ADD36RoundRect,0.200000X0.250000X-0.200000X0.250000X0.200000X-0.250000X0.200000X-0.250000X-0.200000X0*%
%TD*%
%TA.AperFunction,SMDPad,CuDef*%
%ADD37RoundRect,0.375000X-0.375000X0.625000X-0.375000X-0.625000X0.375000X-0.625000X0.375000X0.625000X0*%
%TD*%
%TA.AperFunction,SMDPad,CuDef*%
%ADD38RoundRect,0.500000X-1.400000X0.500000X-1.400000X-0.500000X1.400000X-0.500000X1.400000X0.500000X0*%
%TD*%
%TA.AperFunction,ComponentPad*%
%ADD39R,1.600000X1.600000*%
%TD*%
%TA.AperFunction,ComponentPad*%
%ADD40C,1.600000*%
%TD*%
%TA.AperFunction,SMDPad,CuDef*%
%ADD41RoundRect,0.250000X1.400000X1.000000X-1.400000X1.000000X-1.400000X-1.000000X1.400000X-1.000000X0*%
%TD*%
%TA.AperFunction,SMDPad,CuDef*%
%ADD42RoundRect,0.150000X0.512500X0.150000X-0.512500X0.150000X-0.512500X-0.150000X0.512500X-0.150000X0*%
%TD*%
%TA.AperFunction,SMDPad,CuDef*%
%ADD43RoundRect,0.375000X0.375000X-0.625000X0.375000X0.625000X-0.375000X0.625000X-0.375000X-0.625000X0*%
%TD*%
%TA.AperFunction,SMDPad,CuDef*%
%ADD44RoundRect,0.500000X1.400000X-0.500000X1.400000X0.500000X-1.400000X0.500000X-1.400000X-0.500000X0*%
%TD*%
%TA.AperFunction,SMDPad,CuDef*%
%ADD45RoundRect,0.250000X1.425000X-0.362500X1.425000X0.362500X-1.425000X0.362500X-1.425000X-0.362500X0*%
%TD*%
%TA.AperFunction,ComponentPad*%
%ADD46C,0.600000*%
%TD*%
%TA.AperFunction,ComponentPad*%
%ADD47RotRect,1.600000X1.600000X315.000000*%
%TD*%
%TA.AperFunction,ComponentPad*%
%ADD48R,1.905000X2.000000*%
%TD*%
%TA.AperFunction,ComponentPad*%
%ADD49O,1.905000X2.000000*%
%TD*%
%TA.AperFunction,SMDPad,CuDef*%
%ADD50RoundRect,0.307500X-0.717500X2.342500X-0.717500X-2.342500X0.717500X-2.342500X0.717500X2.342500X0*%
%TD*%
%TA.AperFunction,SMDPad,CuDef*%
%ADD51RoundRect,0.218750X-0.218750X-0.256250X0.218750X-0.256250X0.218750X0.256250X-0.218750X0.256250X0*%
%TD*%
%TA.AperFunction,SMDPad,CuDef*%
%ADD52RoundRect,0.075000X0.075000X-0.725000X0.075000X0.725000X-0.075000X0.725000X-0.075000X-0.725000X0*%
%TD*%
%TA.AperFunction,SMDPad,CuDef*%
%ADD53RoundRect,0.075000X0.725000X-0.075000X0.725000X0.075000X-0.725000X0.075000X-0.725000X-0.075000X0*%
%TD*%
%TA.AperFunction,ComponentPad*%
%ADD54C,3.556000*%
%TD*%
%TA.AperFunction,ComponentPad*%
%ADD55C,3.810000*%
%TD*%
%TA.AperFunction,ViaPad*%
%ADD56C,0.600000*%
%TD*%
%TA.AperFunction,ViaPad*%
%ADD57C,0.500000*%
%TD*%
%TA.AperFunction,Conductor*%
%ADD58C,0.200000*%
%TD*%
%TA.AperFunction,Conductor*%
%ADD59C,0.300000*%
%TD*%
%TA.AperFunction,Conductor*%
%ADD60C,0.500000*%
%TD*%
G04 APERTURE END LIST*
D10*
%TA.AperFunction,EtchedComponent*%
%TO.C,NT2*%
G36*
X67800000Y-133900000D02*
G01*
X67200000Y-133900000D01*
X67200000Y-132700000D01*
X67800000Y-132700000D01*
X67800000Y-133900000D01*
G37*
%TD.AperFunction*%
%TA.AperFunction,EtchedComponent*%
%TO.C,NT1*%
G36*
X56750000Y-120700000D02*
G01*
X55550000Y-120700000D01*
X55550000Y-120100000D01*
X56750000Y-120100000D01*
X56750000Y-120700000D01*
G37*
%TD.AperFunction*%
%TD*%
D11*
%TO.P,J5,1,VDD*%
%TO.N,+3.3VLDO*%
X72420000Y-98400000D03*
D12*
%TO.P,J5,2,SWCLK*%
%TO.N,/AWG/SWCLK*%
X74960000Y-98400000D03*
%TO.P,J5,3,GND*%
%TO.N,DGND*%
X77500000Y-98400000D03*
%TO.P,J5,4,SWDIO*%
%TO.N,/AWG/SWDIO*%
X80040000Y-98400000D03*
%TO.P,J5,5,NRST*%
%TO.N,/AWG/NRST*%
X82580000Y-98400000D03*
%TO.P,J5,6,SWO*%
%TO.N,unconnected-(J5-SWO-Pad6)*%
X85120000Y-98400000D03*
%TD*%
D13*
%TO.P,R7,1,1*%
%TO.N,+3.3VLDO*%
X81325000Y-130000000D03*
%TO.P,R7,2,2*%
%TO.N,/AWG/NRST*%
X79675000Y-130000000D03*
%TD*%
D14*
%TO.P,J3,MP*%
%TO.N,N/C*%
X89050000Y-163300000D03*
X80050000Y-163300000D03*
D15*
%TO.P,J3,2*%
%TO.N,PGND*%
X84550000Y-162300000D03*
D16*
%TO.P,J3,1*%
%TO.N,VIN*%
X84550000Y-156300000D03*
%TD*%
D17*
%TO.P,U3,28,CLK*%
%TO.N,/AWG/DAC_CLK*%
X53875000Y-122450000D03*
%TO.P,U3,27,DVDD*%
%TO.N,+3.3VLDO*%
X53875000Y-121800000D03*
%TO.P,U3,26,DGND*%
%TO.N,DGND*%
X53875000Y-121150000D03*
%TO.P,U3,25,MODE*%
%TO.N,AGND*%
X53875000Y-120500000D03*
%TO.P,U3,24,AVDD*%
%TO.N,+3V3A*%
X53875000Y-119850000D03*
%TO.P,U3,23*%
%TO.N,N/C*%
X53875000Y-119200000D03*
%TO.P,U3,22,IOUTA*%
%TO.N,/AWG/IOUT_P*%
X53875000Y-118550000D03*
%TO.P,U3,21,IOUTB*%
%TO.N,/AWG/IOUT_N*%
X53875000Y-117900000D03*
%TO.P,U3,20,AGND*%
%TO.N,AGND*%
X53875000Y-117250000D03*
%TO.P,U3,19*%
%TO.N,N/C*%
X53875000Y-116600000D03*
%TO.P,U3,18,FS_ADJ*%
%TO.N,Net-(U3-FS_ADJ)*%
X53875000Y-115950000D03*
%TO.P,U3,17,REFIO*%
%TO.N,Net-(U3-REFIO)*%
X53875000Y-115300000D03*
%TO.P,U3,16,REFLO*%
%TO.N,AGND*%
X53875000Y-114650000D03*
%TO.P,U3,15,SLEEP*%
%TO.N,/AWG/DAC_EN*%
X53875000Y-114000000D03*
%TO.P,U3,14,D0*%
%TO.N,/AWG/PSSI_D0*%
X59600000Y-114000000D03*
%TO.P,U3,13,D1*%
%TO.N,/AWG/PSSI_D1*%
X59600000Y-114650000D03*
%TO.P,U3,12,D2*%
%TO.N,/AWG/PSSI_D2*%
X59600000Y-115300000D03*
%TO.P,U3,11,D3*%
%TO.N,/AWG/PSSI_D3*%
X59600000Y-115950000D03*
%TO.P,U3,10,D4*%
%TO.N,/AWG/PSSI_D4*%
X59600000Y-116600000D03*
%TO.P,U3,9,D5*%
%TO.N,/AWG/PSSI_D5*%
X59600000Y-117250000D03*
%TO.P,U3,8,D6*%
%TO.N,/AWG/PSSI_D6*%
X59600000Y-117900000D03*
%TO.P,U3,7,D7*%
%TO.N,/AWG/PSSI_D7*%
X59600000Y-118550000D03*
%TO.P,U3,6,D8*%
%TO.N,/AWG/PSSI_D8*%
X59600000Y-119200000D03*
%TO.P,U3,5,D9*%
%TO.N,/AWG/PSSI_D9*%
X59600000Y-119850000D03*
%TO.P,U3,4,D10*%
%TO.N,/AWG/PSSI_D10*%
X59600000Y-120500000D03*
%TO.P,U3,3,D11*%
%TO.N,/AWG/PSSI_D11*%
X59600000Y-121150000D03*
%TO.P,U3,2,D12*%
%TO.N,/AWG/PSSI_D12*%
X59600000Y-121800000D03*
%TO.P,U3,1,D13*%
%TO.N,/AWG/PSSI_D13*%
X59600000Y-122450000D03*
%TD*%
D18*
%TO.P,U5,9,EP*%
%TO.N,AGND*%
X40150000Y-114670000D03*
X40150000Y-112070000D03*
X40149999Y-113370000D03*
D19*
X39500000Y-113370000D03*
D18*
X38850001Y-113370000D03*
X38850000Y-114670000D03*
X38850000Y-112070000D03*
D20*
%TO.P,U5,8,~{PD}*%
%TO.N,unconnected-(U5-~{PD}-Pad8)*%
X42062501Y-111465000D03*
%TO.P,U5,7,V+*%
%TO.N,+12VLDO*%
X42062500Y-112735000D03*
%TO.P,U5,6*%
%TO.N,Net-(R45-Pad1)*%
X42062500Y-114005000D03*
%TO.P,U5,5,NC*%
%TO.N,unconnected-(U5-NC-Pad5)*%
X42062501Y-115275000D03*
%TO.P,U5,4,V-*%
%TO.N,-12V_LDO*%
X36937499Y-115275000D03*
%TO.P,U5,3,+*%
%TO.N,Net-(U5-+)*%
X36937500Y-114005000D03*
%TO.P,U5,2,-*%
%TO.N,Net-(U5--)*%
X36937500Y-112735000D03*
%TO.P,U5,1,REF*%
%TO.N,unconnected-(U5-REF-Pad1)*%
X36937499Y-111465000D03*
%TD*%
D18*
%TO.P,U11,9*%
%TO.N,N/C*%
X65875800Y-155087800D03*
X65875800Y-156387800D03*
X65875800Y-157687800D03*
D21*
X66830800Y-156387800D03*
D18*
X67785800Y-155087800D03*
X67785800Y-156387800D03*
X67785800Y-157687800D03*
D22*
%TO.P,U11,8,SW*%
%TO.N,/AWG/2421_SW*%
X64180800Y-158292799D03*
%TO.P,U11,7,SS*%
%TO.N,Net-(U11-SS)*%
X64180800Y-157022800D03*
%TO.P,U11,6,FB*%
%TO.N,Net-(U11-FB)*%
X64180800Y-155752800D03*
%TO.P,U11,5,AGND*%
%TO.N,PGND*%
X64180800Y-154482801D03*
%TO.P,U11,4,COMP*%
%TO.N,Net-(U11-COMP)*%
X69480800Y-154482801D03*
%TO.P,U11,3,EN*%
%TO.N,VIN*%
X69480800Y-155752800D03*
%TO.P,U11,2,VIN*%
X69480800Y-157022800D03*
%TO.P,U11,1,PGND*%
%TO.N,PGND*%
X69480800Y-158292799D03*
%TD*%
D23*
%TO.P,R46,1,1*%
%TO.N,/AWG/S_OUT*%
X49800000Y-107737500D03*
%TO.P,R46,2,2*%
%TO.N,Net-(R45-Pad1)*%
X49800000Y-110662500D03*
%TD*%
D24*
%TO.P,R17,1,1*%
%TO.N,AGND*%
X47750000Y-122925000D03*
%TO.P,R17,2,2*%
%TO.N,Net-(U8-+)*%
X47750000Y-124575000D03*
%TD*%
D25*
%TO.P,R21,1,1*%
%TO.N,Net-(J1-In)*%
X49000000Y-100037500D03*
%TO.P,R21,2,2*%
%TO.N,/AWG/S_OUT*%
X49000000Y-105962500D03*
%TD*%
D26*
%TO.P,C9,1,1*%
%TO.N,VCAP1*%
X86875000Y-113750000D03*
%TO.P,C9,2,2*%
%TO.N,DGND*%
X88425000Y-113750000D03*
%TD*%
D27*
%TO.P,C15,1,1*%
%TO.N,+3.3VLDO*%
X73300000Y-129550000D03*
%TO.P,C15,2,2*%
%TO.N,DGND*%
X73300000Y-131100000D03*
%TD*%
%TO.P,C7,1,1*%
%TO.N,+3.3VLDO*%
X82300000Y-141975000D03*
%TO.P,C7,2,2*%
%TO.N,PGND*%
X82300000Y-143525000D03*
%TD*%
D13*
%TO.P,R27,1,1*%
%TO.N,Net-(C30-Pad2)*%
X66875000Y-151350000D03*
%TO.P,R27,2,2*%
%TO.N,PGND*%
X65225000Y-151350000D03*
%TD*%
D27*
%TO.P,C1,1,1*%
%TO.N,+3.3VLDO*%
X51950000Y-124250000D03*
%TO.P,C1,2,2*%
%TO.N,DGND*%
X51950000Y-125800000D03*
%TD*%
D28*
%TO.P,C28,1,1*%
%TO.N,/AWG/DAC_SE_FLT*%
X33212500Y-123775000D03*
%TO.P,C28,2,2*%
%TO.N,AGND*%
X33212500Y-122225000D03*
%TD*%
D29*
%TO.P,C27,1,1*%
%TO.N,Net-(C24-Pad2)*%
X34737500Y-125250000D03*
%TO.P,C27,2,2*%
%TO.N,/AWG/DAC_SE_FLT*%
X33187500Y-125250000D03*
%TD*%
D30*
%TO.P,L1,1,1*%
%TO.N,/AWG/DAC_SE*%
X40750001Y-125250000D03*
%TO.P,L1,2,2*%
%TO.N,Net-(C21-Pad1)*%
X39174999Y-125250000D03*
%TD*%
D27*
%TO.P,C48,1,1*%
%TO.N,+12VLDO*%
X63849999Y-142125000D03*
%TO.P,C48,2,2*%
%TO.N,PGND*%
X63849999Y-143675000D03*
%TD*%
D28*
%TO.P,C26,1,1*%
%TO.N,Net-(C24-Pad2)*%
X34712500Y-123775000D03*
%TO.P,C26,2,2*%
%TO.N,AGND*%
X34712500Y-122225000D03*
%TD*%
D31*
%TO.P,R28,1,1*%
%TO.N,+13V*%
X59175000Y-155600000D03*
%TO.P,R28,2,2*%
%TO.N,Net-(U11-FB)*%
X60825000Y-155600000D03*
%TD*%
D27*
%TO.P,C13,1,1*%
%TO.N,+3.3VLDO*%
X86900000Y-110775000D03*
%TO.P,C13,2,2*%
%TO.N,DGND*%
X86900000Y-112325000D03*
%TD*%
D30*
%TO.P,L2,1,1*%
%TO.N,Net-(C21-Pad1)*%
X37750000Y-125250000D03*
%TO.P,L2,2,2*%
%TO.N,Net-(C24-Pad2)*%
X36174998Y-125250000D03*
%TD*%
D32*
%TO.P,D1,1,K*%
%TO.N,+13V*%
X54600000Y-162356800D03*
%TO.P,D1,2,A*%
%TO.N,/AWG/2421_SW*%
X61400000Y-162356800D03*
%TD*%
D29*
%TO.P,C22,1,1*%
%TO.N,/AWG/DAC_SE*%
X40737500Y-126750000D03*
%TO.P,C22,2,2*%
%TO.N,Net-(C21-Pad1)*%
X39187500Y-126750000D03*
%TD*%
D26*
%TO.P,C50,1,1*%
%TO.N,+12VLDO*%
X44225000Y-112600000D03*
%TO.P,C50,2,2*%
%TO.N,AGND*%
X45775000Y-112600000D03*
%TD*%
D27*
%TO.P,C40,1,1*%
%TO.N,-12V_LDO*%
X36900000Y-116925000D03*
%TO.P,C40,2,2*%
%TO.N,AGND*%
X36900000Y-118475000D03*
%TD*%
%TO.P,C4,1,1*%
%TO.N,+3V3A*%
X50350000Y-119425000D03*
%TO.P,C4,2,2*%
%TO.N,AGND*%
X50350000Y-120975000D03*
%TD*%
D28*
%TO.P,C21,1,1*%
%TO.N,Net-(C21-Pad1)*%
X39212500Y-123775000D03*
%TO.P,C21,2,2*%
%TO.N,AGND*%
X39212500Y-122225000D03*
%TD*%
D33*
%TO.P,R15,1,1*%
%TO.N,/AWG/IOUT_P*%
X47250000Y-121575000D03*
%TO.P,R15,2,2*%
%TO.N,AGND*%
X47250000Y-119925000D03*
%TD*%
D13*
%TO.P,R8,1,1*%
%TO.N,Net-(U5-+)*%
X33925000Y-115670000D03*
%TO.P,R8,2,2*%
%TO.N,/AWG/OFFSET*%
X32275000Y-115670000D03*
%TD*%
D34*
%TO.P,R30,1,1*%
%TO.N,/AWG/2421_SW*%
X49962500Y-162400000D03*
%TO.P,R30,2,2*%
%TO.N,Net-(C17-Pad1)*%
X44037500Y-162400000D03*
%TD*%
D35*
%TO.P,D2,1,K*%
%TO.N,PGND*%
X33600000Y-151200000D03*
%TO.P,D2,2,A*%
%TO.N,Net-(D2-A)*%
X33600000Y-158000000D03*
%TD*%
D28*
%TO.P,C25,1,1*%
%TO.N,Net-(C24-Pad2)*%
X36212500Y-123775000D03*
%TO.P,C25,2,2*%
%TO.N,AGND*%
X36212500Y-122225000D03*
%TD*%
D29*
%TO.P,C29,1,1*%
%TO.N,Net-(U11-COMP)*%
X69836400Y-152806400D03*
%TO.P,C29,2,2*%
%TO.N,PGND*%
X68286400Y-152806400D03*
%TD*%
D24*
%TO.P,R4,1,1*%
%TO.N,PGND*%
X72850000Y-141125000D03*
%TO.P,R4,2,2*%
%TO.N,Net-(U14-ADJ)*%
X72850000Y-142775000D03*
%TD*%
D28*
%TO.P,C20,1,1*%
%TO.N,/AWG/DAC_SE*%
X40712500Y-123775000D03*
%TO.P,C20,2,2*%
%TO.N,AGND*%
X40712500Y-122225000D03*
%TD*%
%TO.P,C44,1,1*%
%TO.N,+13V*%
X61200000Y-149075000D03*
%TO.P,C44,2,2*%
%TO.N,PGND*%
X61200000Y-147525000D03*
%TD*%
D27*
%TO.P,C52,1,1*%
%TO.N,+5VLDO*%
X42550000Y-128175000D03*
%TO.P,C52,2,2*%
%TO.N,AGND*%
X42550000Y-129725000D03*
%TD*%
D26*
%TO.P,C37,1,1*%
%TO.N,+13V*%
X59225000Y-154000000D03*
%TO.P,C37,2,2*%
%TO.N,PGND*%
X60775000Y-154000000D03*
%TD*%
D36*
%TO.P,X1,1,Tri-State*%
%TO.N,unconnected-(X1-Tri-State-Pad1)*%
X74875000Y-130850001D03*
%TO.P,X1,2,GND*%
%TO.N,DGND*%
X76725000Y-130850001D03*
%TO.P,X1,3,OUT*%
%TO.N,/AWG/10MHZ*%
X76725000Y-129400001D03*
%TO.P,X1,4,VDD*%
%TO.N,+3.3VLDO*%
X74875000Y-129400001D03*
%TD*%
D29*
%TO.P,C35,1,1*%
%TO.N,+3.3VLDO*%
X73375000Y-127500000D03*
%TO.P,C35,2,2*%
%TO.N,DGND*%
X71825000Y-127500000D03*
%TD*%
D37*
%TO.P,U14,1,ADJ*%
%TO.N,Net-(U14-ADJ)*%
X70650000Y-142550000D03*
%TO.P,U14,2,VO*%
%TO.N,+5VLDO*%
X68350000Y-142550001D03*
D38*
X68350000Y-148849999D03*
D37*
%TO.P,U14,3,VI*%
%TO.N,+12VLDO*%
X66050000Y-142550000D03*
%TD*%
D29*
%TO.P,C14,1,1*%
%TO.N,+3.3VLDO*%
X76425000Y-127500000D03*
%TO.P,C14,2,2*%
%TO.N,DGND*%
X74875000Y-127500000D03*
%TD*%
D28*
%TO.P,C42,1,1*%
%TO.N,VIN*%
X72884400Y-156463999D03*
%TO.P,C42,2,2*%
%TO.N,PGND*%
X72884400Y-154913999D03*
%TD*%
D39*
%TO.P,C18,1*%
%TO.N,PGND*%
X47545103Y-156704897D03*
D40*
%TO.P,C18,2*%
%TO.N,-13V*%
X47545103Y-154204897D03*
%TD*%
D28*
%TO.P,C11,1,1*%
%TO.N,+3.3VLDO*%
X67600000Y-124325000D03*
%TO.P,C11,2,2*%
%TO.N,DGND*%
X67600000Y-122775000D03*
%TD*%
D27*
%TO.P,C12,1,1*%
%TO.N,+3.3VLDO*%
X86850000Y-122825000D03*
%TO.P,C12,2,2*%
%TO.N,DGND*%
X86850000Y-124375000D03*
%TD*%
D41*
%TO.P,D3,1,K*%
%TO.N,Net-(D2-A)*%
X40600000Y-157200000D03*
%TO.P,D3,2,A*%
%TO.N,-13V*%
X40600000Y-150400000D03*
%TD*%
D13*
%TO.P,R44,1,1*%
%TO.N,Net-(U5-+)*%
X33925000Y-114170000D03*
%TO.P,R44,2,2*%
%TO.N,/AWG/DAC_SE_FLT*%
X32275000Y-114170000D03*
%TD*%
D26*
%TO.P,C54,1,1*%
%TO.N,-5V_LDO*%
X47800000Y-126000000D03*
%TO.P,C54,2,2*%
%TO.N,AGND*%
X49350000Y-126000000D03*
%TD*%
D27*
%TO.P,C43,1,1*%
%TO.N,PGND*%
X71360400Y-154927000D03*
%TO.P,C43,2,2*%
%TO.N,VIN*%
X71360400Y-156477000D03*
%TD*%
D39*
%TO.P,C32,1*%
%TO.N,VIN*%
X86967621Y-151200000D03*
D40*
%TO.P,C32,2*%
%TO.N,PGND*%
X89467621Y-151200000D03*
%TD*%
D42*
%TO.P,U8,1*%
%TO.N,/AWG/DAC_SE*%
X46137500Y-126449999D03*
%TO.P,U8,2,V-*%
%TO.N,-5V_LDO*%
X46137500Y-125500000D03*
%TO.P,U8,3,+*%
%TO.N,Net-(U8-+)*%
X46137500Y-124550001D03*
%TO.P,U8,4,-*%
%TO.N,Net-(U8--)*%
X43862500Y-124550001D03*
%TO.P,U8,5,~{DIS}*%
%TO.N,/AWG/695_EN*%
X43862500Y-125500000D03*
%TO.P,U8,6,V+*%
%TO.N,+5VLDO*%
X43862500Y-126449999D03*
%TD*%
D33*
%TO.P,R36,1,1*%
%TO.N,+5VLDO*%
X72850000Y-145975000D03*
%TO.P,R36,2,2*%
%TO.N,Net-(U14-ADJ)*%
X72850000Y-144325000D03*
%TD*%
D31*
%TO.P,R32,1,1*%
%TO.N,PGND*%
X52300000Y-150950000D03*
%TO.P,R32,2,2*%
%TO.N,Net-(U12-ADJ)*%
X53950000Y-150950000D03*
%TD*%
D33*
%TO.P,R2,1,1*%
%TO.N,/AWG/DAC_SE_FLT*%
X31825000Y-112700000D03*
%TO.P,R2,2,2*%
%TO.N,AGND*%
X31825000Y-111050000D03*
%TD*%
D43*
%TO.P,U9,1,ADJ*%
%TO.N,Net-(U9-ADJ)*%
X75500000Y-148750000D03*
%TO.P,U9,2,VO*%
%TO.N,+3.3VLDO*%
X77800000Y-148749999D03*
D44*
X77800000Y-142450001D03*
D43*
%TO.P,U9,3,VI*%
%TO.N,VIN*%
X80100000Y-148750000D03*
%TD*%
D33*
%TO.P,R16,1,1*%
%TO.N,Net-(U8-+)*%
X45750000Y-123075000D03*
%TO.P,R16,2,2*%
%TO.N,/AWG/IOUT_P*%
X45750000Y-121425000D03*
%TD*%
D45*
%TO.P,R22,1,1*%
%TO.N,Net-(J1-In)*%
X45000000Y-103962500D03*
%TO.P,R22,2,2*%
%TO.N,AGND*%
X45000000Y-98037500D03*
%TD*%
D28*
%TO.P,C8,1,1*%
%TO.N,VCAP2*%
X72850000Y-108125000D03*
%TO.P,C8,2,2*%
%TO.N,DGND*%
X72850000Y-106575000D03*
%TD*%
D27*
%TO.P,C38,1,1*%
%TO.N,PGND*%
X44860000Y-140050000D03*
%TO.P,C38,2,2*%
%TO.N,-5V_LDO*%
X44860000Y-141600000D03*
%TD*%
%TO.P,C45,1,1*%
%TO.N,+12VLDO*%
X61200000Y-141925000D03*
%TO.P,C45,2,2*%
%TO.N,PGND*%
X61200000Y-143475000D03*
%TD*%
D46*
%TO.P,NT2,1,1*%
%TO.N,DGND*%
X67500000Y-132700000D03*
%TO.P,NT2,2,2*%
%TO.N,PGND*%
X67500000Y-133900000D03*
%TD*%
D31*
%TO.P,R9,1,1*%
%TO.N,AGND*%
X50125000Y-116400000D03*
%TO.P,R9,2,2*%
%TO.N,Net-(U3-FS_ADJ)*%
X51775000Y-116400000D03*
%TD*%
D27*
%TO.P,C19,1,1*%
%TO.N,PGND*%
X47460000Y-140025000D03*
%TO.P,C19,2,2*%
%TO.N,-13V*%
X47460000Y-141575000D03*
%TD*%
D13*
%TO.P,R31,1,1*%
%TO.N,+12VLDO*%
X57050000Y-150900000D03*
%TO.P,R31,2,2*%
%TO.N,Net-(U12-ADJ)*%
X55400000Y-150900000D03*
%TD*%
D43*
%TO.P,U12,1,ADJ*%
%TO.N,Net-(U12-ADJ)*%
X54300000Y-148650000D03*
%TO.P,U12,2,VO*%
%TO.N,+12VLDO*%
X56600000Y-148649999D03*
D44*
X56600000Y-142350001D03*
D43*
%TO.P,U12,3,VI*%
%TO.N,+13V*%
X58900000Y-148650000D03*
%TD*%
D27*
%TO.P,C39,1,1*%
%TO.N,-12V_LDO*%
X35400000Y-116925000D03*
%TO.P,C39,2,2*%
%TO.N,AGND*%
X35400000Y-118475000D03*
%TD*%
D24*
%TO.P,R45,1,1*%
%TO.N,Net-(R45-Pad1)*%
X34800000Y-111045000D03*
%TO.P,R45,2,2*%
%TO.N,Net-(U5--)*%
X34800000Y-112695000D03*
%TD*%
D29*
%TO.P,C31,1,1*%
%TO.N,Net-(U11-SS)*%
X62280200Y-157226000D03*
%TO.P,C31,2,2*%
%TO.N,PGND*%
X60730200Y-157226000D03*
%TD*%
D28*
%TO.P,C6,1,1*%
%TO.N,VIN*%
X82325000Y-148375000D03*
%TO.P,C6,2,2*%
%TO.N,PGND*%
X82325000Y-146825000D03*
%TD*%
D29*
%TO.P,C24,1,1*%
%TO.N,Net-(C21-Pad1)*%
X37737500Y-126750000D03*
%TO.P,C24,2,2*%
%TO.N,Net-(C24-Pad2)*%
X36187500Y-126750000D03*
%TD*%
D47*
%TO.P,C41,1*%
%TO.N,VIN*%
X73544800Y-160578800D03*
D40*
%TO.P,C41,2*%
%TO.N,PGND*%
X75312567Y-162346567D03*
%TD*%
D26*
%TO.P,C51,1,1*%
%TO.N,+12VLDO*%
X44225000Y-111100000D03*
%TO.P,C51,2,2*%
%TO.N,AGND*%
X45775000Y-111100000D03*
%TD*%
D28*
%TO.P,C49,1,1*%
%TO.N,+5VLDO*%
X63850000Y-149325000D03*
%TO.P,C49,2,2*%
%TO.N,PGND*%
X63850000Y-147775000D03*
%TD*%
D29*
%TO.P,C33,1,1*%
%TO.N,Net-(U3-REFIO)*%
X51725000Y-114900000D03*
%TO.P,C33,2,2*%
%TO.N,AGND*%
X50175000Y-114900000D03*
%TD*%
D33*
%TO.P,R14,1,1*%
%TO.N,/AWG/IOUT_N*%
X42750000Y-121575000D03*
%TO.P,R14,2,2*%
%TO.N,AGND*%
X42750000Y-119925000D03*
%TD*%
D39*
%TO.P,C17,1*%
%TO.N,Net-(C17-Pad1)*%
X40582380Y-162400000D03*
D40*
%TO.P,C17,2*%
%TO.N,Net-(D2-A)*%
X38082380Y-162400000D03*
%TD*%
D27*
%TO.P,C36,1,1*%
%TO.N,/AWG/NRST*%
X78250000Y-127475000D03*
%TO.P,C36,2,2*%
%TO.N,DGND*%
X78250000Y-129025000D03*
%TD*%
D13*
%TO.P,R5,1,1*%
%TO.N,+3.3VLDO*%
X78048700Y-151043000D03*
%TO.P,R5,2,2*%
%TO.N,Net-(U9-ADJ)*%
X76398700Y-151043000D03*
%TD*%
D39*
%TO.P,C16,1*%
%TO.N,+13V*%
X54647200Y-156731980D03*
D40*
%TO.P,C16,2*%
%TO.N,PGND*%
X54647200Y-154231980D03*
%TD*%
D48*
%TO.P,U15,1,GND*%
%TO.N,PGND*%
X38600000Y-144600000D03*
D49*
%TO.P,U15,2,VI*%
%TO.N,-13V*%
X36060000Y-144600000D03*
%TO.P,U15,3,VO*%
%TO.N,-12V_LDO*%
X33520001Y-144600000D03*
%TD*%
D33*
%TO.P,R29,1,1*%
%TO.N,Net-(U11-FB)*%
X62267199Y-155663400D03*
%TO.P,R29,2,2*%
%TO.N,PGND*%
X62267199Y-154013400D03*
%TD*%
D29*
%TO.P,C2,1,1*%
%TO.N,+3.3VLDO*%
X51875000Y-122500000D03*
%TO.P,C2,2,2*%
%TO.N,DGND*%
X50325000Y-122500000D03*
%TD*%
D50*
%TO.P,L4,1,1*%
%TO.N,VIN*%
X69039200Y-162255200D03*
%TO.P,L4,2,2*%
%TO.N,/AWG/2421_SW*%
X64589200Y-162255200D03*
%TD*%
D33*
%TO.P,R11,1,1*%
%TO.N,Net-(U6-BOOT0)*%
X67550000Y-120225000D03*
%TO.P,R11,2,2*%
%TO.N,DGND*%
X67550000Y-118575000D03*
%TD*%
D30*
%TO.P,L3,1,1*%
%TO.N,Net-(C24-Pad2)*%
X34750001Y-126750000D03*
%TO.P,L3,2,2*%
%TO.N,/AWG/DAC_SE_FLT*%
X33174999Y-126750000D03*
%TD*%
D33*
%TO.P,R43,1,1*%
%TO.N,Net-(U5--)*%
X33300000Y-112695000D03*
%TO.P,R43,2,2*%
%TO.N,AGND*%
X33300000Y-111045000D03*
%TD*%
D28*
%TO.P,C23,1,1*%
%TO.N,Net-(C21-Pad1)*%
X37712500Y-123775000D03*
%TO.P,C23,2,2*%
%TO.N,AGND*%
X37712500Y-122225000D03*
%TD*%
D29*
%TO.P,C30,1,1*%
%TO.N,Net-(U11-COMP)*%
X69836400Y-151333200D03*
%TO.P,C30,2,2*%
%TO.N,Net-(C30-Pad2)*%
X68286400Y-151333200D03*
%TD*%
D51*
%TO.P,FB3,1*%
%TO.N,+3V3A*%
X54774998Y-112225000D03*
%TO.P,FB3,2*%
%TO.N,+3.3VLDO*%
X56350000Y-112225000D03*
%TD*%
D27*
%TO.P,C47,1,1*%
%TO.N,PGND*%
X33460000Y-139850000D03*
%TO.P,C47,2,2*%
%TO.N,-12V_LDO*%
X33460000Y-141400000D03*
%TD*%
%TO.P,C46,1,1*%
%TO.N,PGND*%
X36060000Y-139850000D03*
%TO.P,C46,2,2*%
%TO.N,-13V*%
X36060000Y-141400000D03*
%TD*%
D26*
%TO.P,C55,1,1*%
%TO.N,-5V_LDO*%
X47800000Y-127475000D03*
%TO.P,C55,2,2*%
%TO.N,AGND*%
X49350000Y-127475000D03*
%TD*%
D27*
%TO.P,C53,1,1*%
%TO.N,+5VLDO*%
X44050000Y-128175000D03*
%TO.P,C53,2,2*%
%TO.N,AGND*%
X44050000Y-129725000D03*
%TD*%
D52*
%TO.P,U6,1,PE2*%
%TO.N,/AWG/695_EN*%
X71200000Y-125475000D03*
%TO.P,U6,2,PE3*%
%TO.N,unconnected-(U6-PE3-Pad2)*%
X71700000Y-125475000D03*
%TO.P,U6,3,PE4*%
%TO.N,unconnected-(U6-PE4-Pad3)*%
X72200001Y-125475000D03*
%TO.P,U6,4,PE5*%
%TO.N,unconnected-(U6-PE5-Pad4)*%
X72700000Y-125475000D03*
%TO.P,U6,5,PE6*%
%TO.N,unconnected-(U6-PE6-Pad5)*%
X73199999Y-125475000D03*
%TO.P,U6,6,VBAT*%
%TO.N,+3.3VLDO*%
X73700000Y-125475000D03*
%TO.P,U6,7,PC13*%
%TO.N,unconnected-(U6-PC13-Pad7)*%
X74200000Y-125475000D03*
%TO.P,U6,8,PC14*%
%TO.N,unconnected-(U6-PC14-Pad8)*%
X74700001Y-125475000D03*
%TO.P,U6,9,PC15*%
%TO.N,unconnected-(U6-PC15-Pad9)*%
X75200000Y-125475000D03*
%TO.P,U6,10,VSS*%
%TO.N,DGND*%
X75700000Y-125475000D03*
%TO.P,U6,11,VDD*%
%TO.N,+3.3VLDO*%
X76200000Y-125475000D03*
%TO.P,U6,12,PH0*%
%TO.N,/AWG/10MHZ*%
X76700000Y-125475000D03*
%TO.P,U6,13,PH1*%
%TO.N,/AWG/10MHZ_EN*%
X77200000Y-125475001D03*
%TO.P,U6,14,NRST*%
%TO.N,/AWG/NRST*%
X77700000Y-125475000D03*
%TO.P,U6,15,PC0*%
%TO.N,unconnected-(U6-PC0-Pad15)*%
X78200000Y-125475000D03*
%TO.P,U6,16,PC1*%
%TO.N,unconnected-(U6-PC1-Pad16)*%
X78700000Y-125475000D03*
%TO.P,U6,17,PC2_C*%
%TO.N,unconnected-(U6-PC2_C-Pad17)*%
X79200000Y-125475000D03*
%TO.P,U6,18,PC3_C*%
%TO.N,unconnected-(U6-PC3_C-Pad18)*%
X79699999Y-125475000D03*
%TO.P,U6,19,VSSA*%
%TO.N,AGND*%
X80200000Y-125475000D03*
%TO.P,U6,20,VREF+*%
%TO.N,+3V3A*%
X80700000Y-125475000D03*
%TO.P,U6,21,VDDA*%
X81200001Y-125475000D03*
%TO.P,U6,22,PA0*%
%TO.N,unconnected-(U6-PA0-Pad22)*%
X81700000Y-125475000D03*
%TO.P,U6,23,PA1*%
%TO.N,unconnected-(U6-PA1-Pad23)*%
X82199999Y-125475000D03*
%TO.P,U6,24,PA2*%
%TO.N,unconnected-(U6-PA2-Pad24)*%
X82700000Y-125475000D03*
%TO.P,U6,25,PA3*%
%TO.N,unconnected-(U6-PA3-Pad25)*%
X83200000Y-125475000D03*
D53*
%TO.P,U6,26,VSS*%
%TO.N,DGND*%
X84875000Y-123800000D03*
%TO.P,U6,27,VDD*%
%TO.N,+3.3VLDO*%
X84875000Y-123300000D03*
%TO.P,U6,28,PA4*%
%TO.N,/AWG/OFFSET*%
X84875000Y-122799999D03*
%TO.P,U6,29,PA5*%
%TO.N,/AWG/PSSI_D14*%
X84875000Y-122300000D03*
%TO.P,U6,30,PA6*%
%TO.N,/AWG/PSSI_CLK*%
X84875000Y-121800001D03*
%TO.P,U6,31,PA7*%
%TO.N,/AWG/SPI1_MOSI*%
X84875000Y-121300000D03*
%TO.P,U6,32,PC4*%
%TO.N,unconnected-(U6-PC4-Pad32)*%
X84875000Y-120800000D03*
%TO.P,U6,33,PC5*%
%TO.N,/AWG/PSSI_D15*%
X84875000Y-120299999D03*
%TO.P,U6,34,PB0*%
%TO.N,unconnected-(U6-PB0-Pad34)*%
X84875000Y-119800000D03*
%TO.P,U6,35,PB1*%
%TO.N,unconnected-(U6-PB1-Pad35)*%
X84875000Y-119300000D03*
%TO.P,U6,36,PB2*%
%TO.N,unconnected-(U6-PB2-Pad36)*%
X84875000Y-118800000D03*
%TO.P,U6,37,PE7*%
%TO.N,unconnected-(U6-PE7-Pad37)*%
X84875000Y-118300000D03*
%TO.P,U6,38,PE8*%
%TO.N,unconnected-(U6-PE8-Pad38)*%
X84875001Y-117800000D03*
%TO.P,U6,39,PE9*%
%TO.N,unconnected-(U6-PE9-Pad39)*%
X84875000Y-117300000D03*
%TO.P,U6,40,PE10*%
%TO.N,unconnected-(U6-PE10-Pad40)*%
X84875000Y-116800000D03*
%TO.P,U6,41,PE11*%
%TO.N,unconnected-(U6-PE11-Pad41)*%
X84875000Y-116300000D03*
%TO.P,U6,42,PE12*%
%TO.N,unconnected-(U6-PE12-Pad42)*%
X84875000Y-115800000D03*
%TO.P,U6,43,PE13*%
%TO.N,unconnected-(U6-PE13-Pad43)*%
X84875000Y-115300001D03*
%TO.P,U6,44,PE14*%
%TO.N,unconnected-(U6-PE14-Pad44)*%
X84875000Y-114800000D03*
%TO.P,U6,45,PE15*%
%TO.N,unconnected-(U6-PE15-Pad45)*%
X84875000Y-114300000D03*
%TO.P,U6,46,PB10*%
%TO.N,unconnected-(U6-PB10-Pad46)*%
X84875000Y-113799999D03*
%TO.P,U6,47,PB11*%
%TO.N,unconnected-(U6-PB11-Pad47)*%
X84875000Y-113300000D03*
%TO.P,U6,48,VCAP*%
%TO.N,VCAP1*%
X84875000Y-112800001D03*
%TO.P,U6,49,VSS*%
%TO.N,DGND*%
X84875000Y-112300000D03*
%TO.P,U6,50,VDD*%
%TO.N,+3.3VLDO*%
X84875000Y-111800000D03*
D52*
%TO.P,U6,51,PB12*%
%TO.N,unconnected-(U6-PB12-Pad51)*%
X83200000Y-110125000D03*
%TO.P,U6,52,PB13*%
%TO.N,unconnected-(U6-PB13-Pad52)*%
X82700000Y-110125000D03*
%TO.P,U6,53,PB14*%
%TO.N,unconnected-(U6-PB14-Pad53)*%
X82199999Y-110125000D03*
%TO.P,U6,54,PB15*%
%TO.N,unconnected-(U6-PB15-Pad54)*%
X81700000Y-110125000D03*
%TO.P,U6,55,PD8*%
%TO.N,unconnected-(U6-PD8-Pad55)*%
X81200001Y-110125000D03*
%TO.P,U6,56,PD9*%
%TO.N,unconnected-(U6-PD9-Pad56)*%
X80700000Y-110125000D03*
%TO.P,U6,57,PD10*%
%TO.N,unconnected-(U6-PD10-Pad57)*%
X80200000Y-110125000D03*
%TO.P,U6,58,PD11*%
%TO.N,unconnected-(U6-PD11-Pad58)*%
X79699999Y-110125000D03*
%TO.P,U6,59,PD12*%
%TO.N,/AWG/PSSI_D12*%
X79200000Y-110125000D03*
%TO.P,U6,60,PD13*%
%TO.N,/AWG/PSSI_D13*%
X78700000Y-110125000D03*
%TO.P,U6,61,PD14*%
%TO.N,/AWG/DAC_EN*%
X78200000Y-110125000D03*
%TO.P,U6,62,PD15*%
%TO.N,unconnected-(U6-PD15-Pad62)*%
X77700000Y-110125000D03*
%TO.P,U6,63,PC6*%
%TO.N,/AWG/PSSI_D0*%
X77200000Y-110124999D03*
%TO.P,U6,64,PC7*%
%TO.N,/AWG/PSSI_D1*%
X76700000Y-110125000D03*
%TO.P,U6,65,PC8*%
%TO.N,/AWG/PSSI_D2*%
X76200000Y-110125000D03*
%TO.P,U6,66,PC9*%
%TO.N,/AWG/PSSI_D3*%
X75700000Y-110125000D03*
%TO.P,U6,67,PA8*%
%TO.N,/AWG/MCO1*%
X75200000Y-110125000D03*
%TO.P,U6,68,PA9*%
%TO.N,/AWG/OTG_HS_VBUS*%
X74700001Y-110125000D03*
%TO.P,U6,69,PA10*%
%TO.N,/AWG/OTG_HS_ID*%
X74200000Y-110125000D03*
%TO.P,U6,70,PA11*%
%TO.N,/AWG/OTG_HS_DM*%
X73700000Y-110125000D03*
%TO.P,U6,71,PA12*%
%TO.N,/AWG/OTG_HS_DP*%
X73199999Y-110125000D03*
%TO.P,U6,72,PA13(JTMS*%
%TO.N,/AWG/SWDIO*%
X72700000Y-110125000D03*
%TO.P,U6,73,VCAP*%
%TO.N,VCAP2*%
X72200001Y-110125000D03*
%TO.P,U6,74,VSS*%
%TO.N,DGND*%
X71700000Y-110125000D03*
%TO.P,U6,75,VDD*%
%TO.N,+3.3VLDO*%
X71200000Y-110125000D03*
D53*
%TO.P,U6,76,PA14(JTCK*%
%TO.N,/AWG/SWCLK*%
X69525000Y-111800000D03*
%TO.P,U6,77,PA15(JTDI)*%
%TO.N,unconnected-(U6-PA15(JTDI)-Pad77)*%
X69525000Y-112300000D03*
%TO.P,U6,78,PC10*%
%TO.N,/AWG/PSSI_D8*%
X69525000Y-112800001D03*
%TO.P,U6,79,PC11*%
%TO.N,/AWG/PSSI_D4*%
X69525000Y-113300000D03*
%TO.P,U6,80,PC12*%
%TO.N,/AWG/PSSI_D9*%
X69525000Y-113799999D03*
%TO.P,U6,81,PD0*%
%TO.N,unconnected-(U6-PD0-Pad81)*%
X69525000Y-114300000D03*
%TO.P,U6,82,PD1*%
%TO.N,unconnected-(U6-PD1-Pad82)*%
X69525000Y-114800000D03*
%TO.P,U6,83,PD2*%
%TO.N,/AWG/PSSI_D11*%
X69525000Y-115300001D03*
%TO.P,U6,84,PD3*%
%TO.N,/AWG/PSSI_D5*%
X69525000Y-115800000D03*
%TO.P,U6,85,PD4*%
%TO.N,unconnected-(U6-PD4-Pad85)*%
X69525000Y-116300000D03*
%TO.P,U6,86,PD5*%
%TO.N,unconnected-(U6-PD5-Pad86)*%
X69525000Y-116800000D03*
%TO.P,U6,87,PD6*%
%TO.N,/AWG/PSSI_D10*%
X69525000Y-117300000D03*
%TO.P,U6,88,PD7*%
%TO.N,unconnected-(U6-PD7-Pad88)*%
X69524999Y-117800000D03*
%TO.P,U6,89,PB3(JTDO*%
%TO.N,/AWG/SPI1_SCK*%
X69525000Y-118300000D03*
%TO.P,U6,90,PB4(NJTRST)*%
%TO.N,/AWG/SPI1_MISO*%
X69525000Y-118800000D03*
%TO.P,U6,91,PB5*%
%TO.N,unconnected-(U6-PB5-Pad91)*%
X69525000Y-119300000D03*
%TO.P,U6,92,PB6*%
%TO.N,unconnected-(U6-PB6-Pad92)*%
X69525000Y-119800000D03*
%TO.P,U6,93,PB7*%
%TO.N,unconnected-(U6-PB7-Pad93)*%
X69525000Y-120299999D03*
%TO.P,U6,94,BOOT0*%
%TO.N,Net-(U6-BOOT0)*%
X69525000Y-120800000D03*
%TO.P,U6,95,PB8*%
%TO.N,/AWG/PSSI_D6*%
X69525000Y-121300000D03*
%TO.P,U6,96,PB9*%
%TO.N,/AWG/PSSI_D7*%
X69525000Y-121800001D03*
%TO.P,U6,97,PE0*%
%TO.N,unconnected-(U6-PE0-Pad97)*%
X69525000Y-122300000D03*
%TO.P,U6,98,PE1*%
%TO.N,unconnected-(U6-PE1-Pad98)*%
X69525000Y-122799999D03*
%TO.P,U6,99,VSS*%
%TO.N,DGND*%
X69525000Y-123300000D03*
%TO.P,U6,100,VDD*%
%TO.N,+3.3VLDO*%
X69525000Y-123800000D03*
%TD*%
D26*
%TO.P,C34,1,1*%
%TO.N,/AWG/IOUT_N*%
X44225000Y-120000000D03*
%TO.P,C34,2,2*%
%TO.N,/AWG/IOUT_P*%
X45775000Y-120000000D03*
%TD*%
D48*
%TO.P,U10,1,GND*%
%TO.N,PGND*%
X50000000Y-144600000D03*
D49*
%TO.P,U10,2,VI*%
%TO.N,-13V*%
X47460000Y-144600000D03*
%TO.P,U10,3,VO*%
%TO.N,-5V_LDO*%
X44920001Y-144600000D03*
%TD*%
D26*
%TO.P,C10,1,1*%
%TO.N,+3.3VLDO*%
X69850000Y-108125000D03*
%TO.P,C10,2,2*%
%TO.N,DGND*%
X71400000Y-108125000D03*
%TD*%
D33*
%TO.P,R18,1,1*%
%TO.N,Net-(U8--)*%
X44250000Y-123075000D03*
%TO.P,R18,2,2*%
%TO.N,/AWG/IOUT_N*%
X44250000Y-121425000D03*
%TD*%
%TO.P,R19,1,1*%
%TO.N,/AWG/DAC_SE*%
X42200000Y-126225000D03*
%TO.P,R19,2,2*%
%TO.N,Net-(U8--)*%
X42200000Y-124575000D03*
%TD*%
D27*
%TO.P,C3,1,1*%
%TO.N,+3V3A*%
X51850000Y-119425000D03*
%TO.P,C3,2,2*%
%TO.N,AGND*%
X51850000Y-120975000D03*
%TD*%
D31*
%TO.P,R6,1,1*%
%TO.N,PGND*%
X73298700Y-151043000D03*
%TO.P,R6,2,2*%
%TO.N,Net-(U9-ADJ)*%
X74948700Y-151043000D03*
%TD*%
D29*
%TO.P,C5,1,1*%
%TO.N,+3V3A*%
X81550000Y-127675000D03*
%TO.P,C5,2,2*%
%TO.N,AGND*%
X80000000Y-127675000D03*
%TD*%
D54*
%TO.P,J1,1,In*%
%TO.N,Net-(J1-In)*%
X36250000Y-102250000D03*
D55*
%TO.P,J1,2,Ext*%
%TO.N,AGND*%
X33075000Y-99075000D03*
X33075000Y-105425000D03*
X39425000Y-99075000D03*
X39425000Y-105425000D03*
%TD*%
D46*
%TO.P,NT1,1,1*%
%TO.N,DGND*%
X56750000Y-120400000D03*
%TO.P,NT1,2,2*%
%TO.N,AGND*%
X55550000Y-120400000D03*
%TD*%
D56*
%TO.N,+3.3VLDO*%
X82600000Y-129900000D03*
%TO.N,DGND*%
X78200000Y-130200000D03*
%TO.N,/AWG/PSSI_CLK*%
X90700000Y-125800000D03*
%TO.N,+3.3VLDO*%
X88800000Y-117500000D03*
X80300000Y-118125000D03*
%TO.N,/AWG/DAC_CLK*%
X63800000Y-124400000D03*
%TO.N,DGND*%
X82800000Y-116800000D03*
%TO.N,/AWG/MCO1*%
X80600000Y-112125000D03*
D57*
%TO.N,AGND*%
X50275000Y-125950000D03*
X46900000Y-111825000D03*
X34925000Y-119500000D03*
X37600000Y-121087500D03*
X42550000Y-130775000D03*
X34350000Y-118675000D03*
X33200000Y-121087500D03*
X46475000Y-109950000D03*
X46925000Y-110900000D03*
X37625000Y-119500000D03*
X36750000Y-119575000D03*
X36200000Y-121087500D03*
X49275000Y-116375000D03*
X46900000Y-112750000D03*
X49000000Y-121000000D03*
X48775000Y-122925000D03*
X47275000Y-119050000D03*
X50575000Y-127225000D03*
X49350000Y-128575000D03*
X40712500Y-121112500D03*
X34600000Y-121087500D03*
X31875000Y-109925000D03*
X37925000Y-118600000D03*
X35875000Y-119525000D03*
X50525000Y-124675000D03*
X44075000Y-130675000D03*
X33350000Y-110050000D03*
X39200000Y-121087500D03*
X42775000Y-118900000D03*
X45575000Y-109950000D03*
X49325000Y-124800000D03*
X50725000Y-128475000D03*
X52600000Y-117200000D03*
X52557343Y-114253987D03*
X79925000Y-128750000D03*
X49175000Y-114875000D03*
%TO.N,/AWG/PSSI_D8*%
X72200000Y-112500000D03*
X61200000Y-119200000D03*
%TO.N,/AWG/PSSI_D0*%
X60900000Y-111400000D03*
X77300000Y-107400000D03*
%TO.N,/AWG/PSSI_D4*%
X61900000Y-116600000D03*
X73800000Y-113500000D03*
%TO.N,/AWG/PSSI_D9*%
X60750000Y-119900000D03*
X71400000Y-114200000D03*
%TO.N,/AWG/PSSI_D10*%
X72300000Y-115700000D03*
X63300000Y-121100000D03*
%TO.N,/AWG/PSSI_D12*%
X62700000Y-121800000D03*
X79200000Y-108474265D03*
%TO.N,/AWG/PSSI_D13*%
X78700000Y-111600000D03*
X61900000Y-122800000D03*
%TO.N,/AWG/PSSI_D11*%
X61350000Y-121100000D03*
X71400000Y-115300000D03*
%TO.N,/AWG/SWCLK*%
X71550000Y-111800000D03*
X79500000Y-106400000D03*
%TO.N,+3V3A*%
X81571091Y-128821091D03*
X53425000Y-112325000D03*
X49125000Y-119400000D03*
%TO.N,PGND*%
X83000000Y-145700000D03*
X64510000Y-146875000D03*
X64200000Y-153200000D03*
X32400000Y-149200000D03*
X47060000Y-139095000D03*
X70800000Y-158300000D03*
X74010000Y-154000000D03*
X63015000Y-144475000D03*
X61860000Y-146700000D03*
X63510000Y-146875000D03*
X35660000Y-139000000D03*
X34600000Y-149200000D03*
X65250000Y-152450000D03*
X36660000Y-139000000D03*
X62250000Y-153050000D03*
X73010000Y-154000000D03*
X33860000Y-139000000D03*
X67200000Y-152800000D03*
X51350000Y-150950000D03*
X81925000Y-145750000D03*
X59850000Y-158200000D03*
X32860000Y-139000000D03*
X72850000Y-140000000D03*
X48060000Y-139095000D03*
X81825000Y-144575000D03*
X71110000Y-154000000D03*
X45460000Y-139095000D03*
X72375000Y-151043000D03*
X61540000Y-144300000D03*
X60750000Y-152900000D03*
X44260000Y-139095000D03*
X82700000Y-144450000D03*
X33600000Y-149200000D03*
X64015000Y-144475000D03*
X72110000Y-154000000D03*
X60540000Y-144300000D03*
X60860000Y-146700000D03*
%TO.N,/AWG/695_EN*%
X66800000Y-127800000D03*
X44900000Y-125500000D03*
%TO.N,/AWG/OFFSET*%
X82750000Y-123525000D03*
X32250000Y-116950000D03*
%TO.N,-12V_LDO*%
X38625000Y-117225000D03*
X38625000Y-116375000D03*
%TO.N,/AWG/2421_SW*%
X51050000Y-161850000D03*
X63175000Y-163600000D03*
X51075000Y-161050000D03*
X51050000Y-163375000D03*
X63150000Y-162525000D03*
X51050000Y-162725000D03*
X63200000Y-161600000D03*
%TO.N,Net-(R45-Pad1)*%
X43900000Y-114000000D03*
X34800000Y-109800000D03*
%TO.N,+12VLDO*%
X59275000Y-141500000D03*
X59275000Y-142325000D03*
X44400000Y-109625000D03*
X43600000Y-109625000D03*
%TO.N,+3.3VLDO*%
X66500000Y-124300000D03*
X80250000Y-140825000D03*
X87950000Y-110800000D03*
X87800000Y-122825000D03*
X69950000Y-107000000D03*
X77475000Y-140825000D03*
X79000000Y-140825000D03*
X72250000Y-129450000D03*
X76325000Y-140850000D03*
X76375000Y-128450000D03*
X73375000Y-128450000D03*
X56750000Y-111250000D03*
X81650000Y-140800000D03*
%TO.N,-5V_LDO*%
X47775000Y-128500000D03*
%TO.N,+5VLDO*%
X41575000Y-128175000D03*
X65750000Y-149525000D03*
%TO.N,DGND*%
X73250000Y-131900000D03*
X76725000Y-132000000D03*
X74900000Y-128500000D03*
X89375000Y-113775000D03*
X71775000Y-128725000D03*
X66400000Y-118600000D03*
X50325000Y-123400000D03*
X87850000Y-124400000D03*
X66600000Y-122750000D03*
X73975000Y-106600000D03*
X71500000Y-107150000D03*
X52000000Y-126900000D03*
X87950000Y-112400000D03*
%TO.N,+3.3VLDO*%
X60075000Y-125675000D03*
%TO.N,/AWG/NRST*%
X77700000Y-119300000D03*
X77700000Y-123425000D03*
%TD*%
D58*
%TO.N,/AWG/SWDIO*%
X84279412Y-102639412D02*
X84279412Y-110379412D01*
X84279412Y-110379412D02*
X81933824Y-112725000D01*
X80040000Y-98400000D02*
X84279412Y-102639412D01*
%TO.N,/AWG/SWCLK*%
X79500000Y-102940000D02*
X79500000Y-106400000D01*
X74960000Y-98400000D02*
X79500000Y-102940000D01*
%TO.N,+3.3VLDO*%
X82500000Y-130000000D02*
X82600000Y-129900000D01*
X81325000Y-130000000D02*
X82500000Y-130000000D01*
%TO.N,DGND*%
X78250000Y-130150000D02*
X78200000Y-130200000D01*
X78250000Y-129025000D02*
X78250000Y-130150000D01*
%TO.N,/AWG/NRST*%
X79026000Y-128251000D02*
X78250000Y-127475000D01*
X79026000Y-129351000D02*
X79026000Y-128251000D01*
X79675000Y-130000000D02*
X79026000Y-129351000D01*
%TO.N,/AWG/PSSI_CLK*%
X86899999Y-121800001D02*
X84875000Y-121800001D01*
X87200000Y-121500000D02*
X86899999Y-121800001D01*
X90700000Y-122600000D02*
X89600000Y-121500000D01*
X90700000Y-125800000D02*
X90700000Y-122600000D01*
X89600000Y-121500000D02*
X87200000Y-121500000D01*
%TO.N,/AWG/DAC_CLK*%
X58000000Y-124400000D02*
X57950000Y-124350000D01*
X63800000Y-124400000D02*
X58000000Y-124400000D01*
X57950000Y-124350000D02*
X57600000Y-124000000D01*
%TO.N,/AWG/PSSI_D7*%
X58850000Y-118550000D02*
X59600000Y-118550000D01*
X58100000Y-115800000D02*
X58300000Y-116000000D01*
X58300000Y-116000000D02*
X58300000Y-118000000D01*
X56900000Y-116300000D02*
X57400000Y-115800000D01*
X56900000Y-118800000D02*
X56900000Y-116300000D01*
X58200000Y-123000000D02*
X58200000Y-120100000D01*
X58300000Y-118000000D02*
X58850000Y-118550000D01*
X58800000Y-123600000D02*
X58200000Y-123000000D01*
X57400000Y-115800000D02*
X58100000Y-115800000D01*
X58200000Y-120100000D02*
X56900000Y-118800000D01*
X61000000Y-123600000D02*
X58800000Y-123600000D01*
X64200000Y-123600000D02*
X61000000Y-123600000D01*
X63500000Y-123600000D02*
X61000000Y-123600000D01*
X64200000Y-123600000D02*
X63500000Y-123600000D01*
X65676000Y-125076000D02*
X64200000Y-123600000D01*
X68524000Y-125076000D02*
X65676000Y-125076000D01*
X69000000Y-124600000D02*
X68524000Y-125076000D01*
X71600000Y-123058824D02*
X70058824Y-124600000D01*
X71600000Y-122100000D02*
X71600000Y-123058824D01*
X72800000Y-120900000D02*
X71600000Y-122100000D01*
X75900000Y-120900000D02*
X72800000Y-120900000D01*
X76200000Y-119400000D02*
X76200000Y-120600000D01*
X70058824Y-124600000D02*
X69000000Y-124600000D01*
X76200000Y-120600000D02*
X75900000Y-120900000D01*
X74567741Y-118900000D02*
X75700000Y-118900000D01*
X75700000Y-118900000D02*
X76200000Y-119400000D01*
%TO.N,/AWG/MCO1*%
X80574000Y-112151000D02*
X80600000Y-112125000D01*
X76392176Y-112151000D02*
X80574000Y-112151000D01*
X75200000Y-110958824D02*
X76392176Y-112151000D01*
X75200000Y-110125000D02*
X75200000Y-110958824D01*
%TO.N,/AWG/DAC_CLK*%
X56050000Y-122450000D02*
X53875000Y-122450000D01*
X57600000Y-124000000D02*
X56050000Y-122450000D01*
D59*
%TO.N,/AWG/OFFSET*%
X83100000Y-122799999D02*
X82750000Y-123149999D01*
X83100000Y-122799999D02*
X84875000Y-122799999D01*
X82750000Y-123149999D02*
X82750000Y-123525000D01*
D58*
%TO.N,AGND*%
X50175000Y-114900000D02*
X49200000Y-114900000D01*
X47750000Y-122925000D02*
X48775000Y-122925000D01*
D60*
X33300000Y-111045000D02*
X33300000Y-110100000D01*
D58*
X52650000Y-117250000D02*
X52600000Y-117200000D01*
X42750000Y-118925000D02*
X42775000Y-118900000D01*
D60*
X33300000Y-110100000D02*
X33350000Y-110050000D01*
D59*
X80200000Y-125475000D02*
X80200000Y-127475000D01*
D60*
X31825000Y-111050000D02*
X31825000Y-109975000D01*
D58*
X49200000Y-114900000D02*
X49175000Y-114875000D01*
D60*
X42550000Y-129725000D02*
X42550000Y-130775000D01*
D59*
X36200000Y-121087500D02*
X36200000Y-122200000D01*
D60*
X44050000Y-129725000D02*
X44050000Y-130650000D01*
X44050000Y-130650000D02*
X44075000Y-130675000D01*
D59*
X51850000Y-120975000D02*
X50350000Y-120975000D01*
X45000000Y-98037500D02*
X40462500Y-98037500D01*
X40712500Y-121112500D02*
X40712500Y-122225000D01*
D58*
X47250000Y-119075000D02*
X47275000Y-119050000D01*
X52953356Y-114650000D02*
X52557343Y-114253987D01*
D59*
X50350000Y-120975000D02*
X49025000Y-120975000D01*
X33200000Y-121087500D02*
X33200000Y-122200000D01*
X53875000Y-120500000D02*
X52325000Y-120500000D01*
D58*
X53875000Y-117250000D02*
X52650000Y-117250000D01*
D59*
X34600000Y-121087500D02*
X34600000Y-122200000D01*
D58*
X53875000Y-114650000D02*
X52953356Y-114650000D01*
X47250000Y-119925000D02*
X47250000Y-119075000D01*
D59*
X52325000Y-120500000D02*
X51850000Y-120975000D01*
X37600000Y-121087500D02*
X37600000Y-122200000D01*
D60*
X31825000Y-109975000D02*
X31875000Y-109925000D01*
D58*
X50125000Y-116400000D02*
X49300000Y-116400000D01*
X42750000Y-119925000D02*
X42750000Y-118925000D01*
D59*
X79925000Y-128750000D02*
X79925000Y-127750000D01*
X49025000Y-120975000D02*
X49000000Y-121000000D01*
D58*
X49300000Y-116400000D02*
X49275000Y-116375000D01*
D59*
X39200000Y-121087500D02*
X39200000Y-122200000D01*
D58*
%TO.N,/AWG/NRST*%
X78250000Y-127000000D02*
X78250000Y-127475000D01*
X77700000Y-126450000D02*
X78250000Y-127000000D01*
X77700000Y-125475000D02*
X77700000Y-126450000D01*
%TO.N,Net-(U6-BOOT0)*%
X67550000Y-120225000D02*
X68125000Y-120800000D01*
X68125000Y-120800000D02*
X69525000Y-120800000D01*
D59*
%TO.N,Net-(C21-Pad1)*%
X37712500Y-123775000D02*
X37712500Y-126725000D01*
X39212500Y-123775000D02*
X39212500Y-126725000D01*
X39175000Y-125250000D02*
X37750000Y-125250000D01*
%TO.N,Net-(C24-Pad2)*%
X34712500Y-123775000D02*
X34712500Y-126712500D01*
X36212500Y-123775000D02*
X36212500Y-126725000D01*
X36175000Y-125250000D02*
X34737500Y-125250000D01*
D58*
%TO.N,/AWG/PSSI_D8*%
X72200000Y-112500000D02*
X72200000Y-112600000D01*
X71999999Y-112800001D02*
X69525000Y-112800001D01*
X61200000Y-119200000D02*
X59600000Y-119200000D01*
X72200000Y-112600000D02*
X71999999Y-112800001D01*
%TO.N,/AWG/PSSI_D0*%
X60900000Y-113700000D02*
X60600000Y-114000000D01*
X60900000Y-111400000D02*
X60900000Y-113700000D01*
X60600000Y-114000000D02*
X59600000Y-114000000D01*
X60800000Y-113800000D02*
X60600000Y-114000000D01*
X77200000Y-107500000D02*
X77300000Y-107400000D01*
X77200000Y-110124999D02*
X77200000Y-107500000D01*
X60900000Y-113700000D02*
X60800000Y-113800000D01*
%TO.N,/AWG/PSSI_D3*%
X67077117Y-106856955D02*
X66992264Y-106941807D01*
X65508467Y-109191533D02*
X66358078Y-110041144D01*
X67416529Y-106856955D02*
X68479425Y-107919851D01*
X68903688Y-107834999D02*
X68818837Y-107919851D01*
X64661065Y-112077656D02*
X64576212Y-112162510D01*
X66782370Y-109616908D02*
X65932732Y-108767270D01*
X63683002Y-110251063D02*
X63598149Y-110335915D01*
X68055160Y-108683526D02*
X67970307Y-108768380D01*
X62400000Y-112300000D02*
X62400000Y-115700000D01*
X66228597Y-107705490D02*
X66143744Y-107790342D01*
X66781259Y-107918744D02*
X66781259Y-107918741D01*
X66356994Y-108343004D02*
X66356995Y-108343005D01*
X63132587Y-111567414D02*
X62400000Y-112300000D01*
X64531526Y-109402531D02*
X64446673Y-109487383D01*
X64446673Y-109826795D02*
X64659938Y-110040060D01*
X66992264Y-107281219D02*
X67205521Y-107494476D01*
X63598149Y-110675327D02*
X64661066Y-111738244D01*
X65380095Y-108554045D02*
X65295242Y-108638897D01*
X65509603Y-111229137D02*
X65424750Y-111313991D01*
X64659938Y-110040060D02*
X64659939Y-110040061D01*
X65085338Y-111313991D02*
X64235675Y-110464328D01*
X65084203Y-109615797D02*
X64870937Y-109402531D01*
X66781259Y-107918741D02*
X66568008Y-107705490D01*
X63217440Y-111482563D02*
X63132587Y-111567414D01*
X75700000Y-110125000D02*
X75700000Y-106900000D01*
X65084204Y-109615798D02*
X65084203Y-109615797D01*
X67206633Y-109532056D02*
X67121782Y-109616908D01*
X66356995Y-108343005D02*
X67206634Y-109192644D01*
X62400000Y-115700000D02*
X62150000Y-115950000D01*
X65508465Y-109191532D02*
X65508467Y-109191533D01*
X65932731Y-108767269D02*
X65719507Y-108554045D01*
X65295242Y-108978309D02*
X65508465Y-109191532D01*
X64235675Y-110464328D02*
X64235675Y-110464325D01*
X66143744Y-108129754D02*
X66356994Y-108343004D01*
X68998000Y-105702000D02*
X68223757Y-106476243D01*
X67205521Y-107494476D02*
X67205523Y-107494477D01*
X74502000Y-105702000D02*
X68998000Y-105702000D01*
X66358077Y-110380556D02*
X66273226Y-110465408D01*
X67630895Y-108768380D02*
X66781259Y-107918744D01*
X62150000Y-115950000D02*
X59600000Y-115950000D01*
X64659939Y-110040061D02*
X65509603Y-110889725D01*
X64236800Y-112162511D02*
X63556852Y-111482563D01*
X65932732Y-108767270D02*
X65932731Y-108767269D01*
X75700000Y-106900000D02*
X74502000Y-105702000D01*
X68223757Y-106815655D02*
X68903689Y-107495587D01*
X65933814Y-110465408D02*
X65084204Y-109615798D01*
X64235675Y-110464325D02*
X64022413Y-110251063D01*
X67205523Y-107494477D02*
X68055160Y-108344114D01*
X68055160Y-108344114D02*
G75*
G02*
X68055140Y-108683506I-169660J-169686D01*
G01*
X65509603Y-110889725D02*
G75*
G02*
X65509572Y-111229106I-169703J-169675D01*
G01*
X68818837Y-107919851D02*
G75*
G02*
X68479425Y-107919851I-169706J169701D01*
G01*
X65424750Y-111313991D02*
G75*
G02*
X65085338Y-111313991I-169706J169708D01*
G01*
X67121782Y-109616908D02*
G75*
G02*
X66782370Y-109616908I-169706J169701D01*
G01*
X64022413Y-110251063D02*
G75*
G03*
X63683001Y-110251062I-169706J-169703D01*
G01*
X68903689Y-107495587D02*
G75*
G02*
X68903696Y-107835007I-169689J-169713D01*
G01*
X63556852Y-111482563D02*
G75*
G03*
X63217440Y-111482563I-169706J-169701D01*
G01*
X66568008Y-107705490D02*
G75*
G03*
X66228596Y-107705489I-169706J-169703D01*
G01*
X65719507Y-108554045D02*
G75*
G03*
X65380095Y-108554045I-169706J-169704D01*
G01*
X66143744Y-107790342D02*
G75*
G03*
X66143792Y-108129706I169656J-169658D01*
G01*
X66358078Y-110041144D02*
G75*
G02*
X66358028Y-110380506I-169678J-169656D01*
G01*
X64870937Y-109402531D02*
G75*
G03*
X64531527Y-109402531I-169705J-169703D01*
G01*
X67970307Y-108768380D02*
G75*
G02*
X67630895Y-108768380I-169706J169708D01*
G01*
X63598149Y-110335915D02*
G75*
G03*
X63598170Y-110675306I169751J-169685D01*
G01*
X64576212Y-112162510D02*
G75*
G02*
X64236795Y-112162517I-169712J169710D01*
G01*
X64446673Y-109487383D02*
G75*
G03*
X64446662Y-109826806I169727J-169717D01*
G01*
X67416529Y-106856955D02*
G75*
G03*
X67077117Y-106856955I-169706J-169704D01*
G01*
X66992264Y-106941807D02*
G75*
G03*
X66992277Y-107281206I169736J-169693D01*
G01*
X64661066Y-111738244D02*
G75*
G02*
X64661016Y-112077606I-169666J-169656D01*
G01*
X66273226Y-110465408D02*
G75*
G02*
X65933814Y-110465408I-169706J169701D01*
G01*
X68223757Y-106476243D02*
G75*
G03*
X68223806Y-106815606I169743J-169657D01*
G01*
X67206634Y-109192644D02*
G75*
G02*
X67206584Y-109532007I-169734J-169656D01*
G01*
X65295242Y-108638897D02*
G75*
G03*
X65295245Y-108978306I169658J-169703D01*
G01*
%TO.N,/AWG/PSSI_D2*%
X64405069Y-108630519D02*
X63365622Y-107591072D01*
X66950656Y-106084932D02*
X65911209Y-105045485D01*
X62128335Y-111246664D02*
X62145251Y-111229749D01*
X64723268Y-105894014D02*
X64638415Y-105978866D01*
X63132274Y-110242723D02*
X63047423Y-110327576D01*
X61200000Y-115300000D02*
X61600000Y-114900000D01*
X61668716Y-111706284D02*
X62128335Y-111246664D01*
X65677861Y-107697136D02*
X65593010Y-107781989D01*
X63556540Y-109479048D02*
X62517093Y-108439601D01*
X66526390Y-106848607D02*
X66441539Y-106933460D01*
X64744481Y-108630518D02*
X64744481Y-108630519D01*
X62145251Y-111229749D02*
X63047423Y-110327576D01*
X67374919Y-106000078D02*
X67290068Y-106084931D01*
X59600000Y-115300000D02*
X61200000Y-115300000D01*
X68275000Y-105100000D02*
X68138597Y-105236403D01*
X62092828Y-108863865D02*
X63132274Y-109903311D01*
X63980803Y-109394194D02*
X63895952Y-109479047D01*
X65253598Y-107781990D02*
X64214151Y-106742543D01*
X65571797Y-105045485D02*
X65486944Y-105130337D01*
X64829332Y-108545665D02*
X64744481Y-108630518D01*
X65486944Y-105469749D02*
X66526390Y-106509195D01*
X67290068Y-106084931D02*
X67290068Y-106084932D01*
X67077935Y-105363682D02*
X67374919Y-105660666D01*
X76200000Y-106600000D02*
X74700000Y-105100000D01*
X64638415Y-106318278D02*
X65677861Y-107357724D01*
X63789886Y-107166807D02*
X64829332Y-108206253D01*
X65593010Y-107781989D02*
X65593010Y-107781990D01*
X76200000Y-110125000D02*
X76200000Y-106600000D01*
X62941357Y-108015336D02*
X63980803Y-109054782D01*
X74700000Y-105100000D02*
X68275000Y-105100000D01*
X67162788Y-104939418D02*
X67077935Y-105024270D01*
X67799185Y-105236403D02*
X67502200Y-104939418D01*
X62177681Y-108439601D02*
X62092828Y-108524453D01*
X63874739Y-106742543D02*
X63789886Y-106827395D01*
X66441539Y-106933460D02*
X66441539Y-106933461D01*
X61600000Y-114900000D02*
X61600000Y-111775000D01*
X63895952Y-109479047D02*
X63895952Y-109479048D01*
X66102127Y-106933461D02*
X65062680Y-105894014D01*
X63026210Y-107591072D02*
X62941357Y-107675924D01*
X61600000Y-111775000D02*
X61668716Y-111706284D01*
X62092828Y-108524453D02*
G75*
G03*
X62092787Y-108863906I169672J-169747D01*
G01*
X65593010Y-107781990D02*
G75*
G02*
X65253598Y-107781990I-169706J169704D01*
G01*
X62941357Y-107675924D02*
G75*
G03*
X62941387Y-108015306I169743J-169676D01*
G01*
X67502200Y-104939418D02*
G75*
G03*
X67162788Y-104939418I-169706J-169704D01*
G01*
X64214151Y-106742543D02*
G75*
G03*
X63874739Y-106742543I-169706J-169704D01*
G01*
X65486944Y-105130337D02*
G75*
G03*
X65486987Y-105469706I169656J-169663D01*
G01*
X65062680Y-105894014D02*
G75*
G03*
X64723268Y-105894014I-169706J-169704D01*
G01*
X63365622Y-107591072D02*
G75*
G03*
X63026210Y-107591072I-169706J-169704D01*
G01*
X67077935Y-105024270D02*
G75*
G03*
X67077911Y-105363706I169665J-169730D01*
G01*
X64744481Y-108630519D02*
G75*
G02*
X64405069Y-108630519I-169706J169704D01*
G01*
X66526390Y-106509195D02*
G75*
G02*
X66526389Y-106848606I-169690J-169705D01*
G01*
X63980803Y-109054782D02*
G75*
G02*
X63980815Y-109394206I-169703J-169718D01*
G01*
X68138597Y-105236403D02*
G75*
G02*
X67799185Y-105236403I-169706J169704D01*
G01*
X63132274Y-109903311D02*
G75*
G02*
X63132257Y-110242706I-169674J-169689D01*
G01*
X67290068Y-106084932D02*
G75*
G02*
X66950656Y-106084932I-169706J169704D01*
G01*
X66441539Y-106933461D02*
G75*
G02*
X66102127Y-106933461I-169706J169704D01*
G01*
X67374919Y-105660666D02*
G75*
G02*
X67374947Y-106000106I-169719J-169734D01*
G01*
X65911209Y-105045485D02*
G75*
G03*
X65571797Y-105045485I-169706J-169704D01*
G01*
X64829332Y-108206253D02*
G75*
G02*
X64829373Y-108545706I-169732J-169747D01*
G01*
X64638415Y-105978866D02*
G75*
G03*
X64638387Y-106318306I169685J-169734D01*
G01*
X63895952Y-109479048D02*
G75*
G02*
X63556540Y-109479048I-169706J169704D01*
G01*
X65677861Y-107357724D02*
G75*
G02*
X65677831Y-107697106I-169661J-169676D01*
G01*
X62517093Y-108439601D02*
G75*
G03*
X62177681Y-108439601I-169706J-169704D01*
G01*
X63789886Y-106827395D02*
G75*
G03*
X63789887Y-107166806I169714J-169705D01*
G01*
%TO.N,/AWG/PSSI_D1*%
X65113939Y-104686061D02*
X65300000Y-104500000D01*
X59431044Y-108954744D02*
X59515898Y-108869891D01*
X62400900Y-106324301D02*
X62768596Y-106691997D01*
X69112705Y-103740000D02*
X69112705Y-104260000D01*
X67312705Y-104260000D02*
X67312705Y-103740000D01*
X61495800Y-107964789D02*
X61128105Y-107597094D01*
X69712705Y-104260000D02*
X69712705Y-103740000D01*
X59855310Y-108869891D02*
X60223006Y-109237587D01*
X60703840Y-108021361D02*
X61071536Y-108389057D01*
X68512705Y-104260000D02*
X68512705Y-103740000D01*
X71152705Y-103500000D02*
X71272705Y-103500000D01*
X67912705Y-103740000D02*
X67912705Y-104260000D01*
X60647269Y-109152732D02*
X60647269Y-109152731D01*
X64805066Y-104994938D02*
X64889919Y-104910082D01*
X61495799Y-108304202D02*
X61495799Y-108304201D01*
X64041389Y-105758612D02*
X64041389Y-105758611D01*
X63956536Y-105843468D02*
X64041389Y-105758612D01*
X63108006Y-106691998D02*
X63192859Y-106607142D01*
X66352705Y-103500000D02*
X66472705Y-103500000D01*
X63192859Y-106607142D02*
X63192859Y-106607141D01*
X71512705Y-103740000D02*
X71512705Y-104260000D01*
X72712705Y-103740000D02*
X72712705Y-104260000D01*
X61552370Y-107172831D02*
X61920066Y-107540527D01*
X58450000Y-114650000D02*
X58300000Y-114500000D01*
X70912705Y-104260000D02*
X70912705Y-103740000D01*
X63673694Y-104712094D02*
X63758548Y-104627241D01*
X70312705Y-103740000D02*
X70312705Y-104260000D01*
X63192860Y-106267729D02*
X62825165Y-105900034D01*
X71752705Y-104500000D02*
X71872705Y-104500000D01*
X63249430Y-105475771D02*
X63617126Y-105843467D01*
X60279574Y-108106214D02*
X60364428Y-108021361D01*
X62825164Y-105560624D02*
X62910018Y-105475771D01*
X66952705Y-104500000D02*
X67072705Y-104500000D01*
X65300000Y-104500000D02*
X65872705Y-104500000D01*
X64889919Y-104910082D02*
X65113939Y-104686061D01*
X72112705Y-104260000D02*
X72112705Y-103740000D01*
X58300000Y-114500000D02*
X58300000Y-111500000D01*
X64041390Y-105419199D02*
X63673695Y-105051504D01*
X67552705Y-103500000D02*
X67672705Y-103500000D01*
X70552705Y-104500000D02*
X70672705Y-104500000D01*
X60562416Y-109237588D02*
X60647269Y-109152732D01*
X72352705Y-103500000D02*
X72472705Y-103500000D01*
X60647270Y-108813319D02*
X60279575Y-108445624D01*
X61976634Y-106409154D02*
X62061488Y-106324301D01*
X66112705Y-104260000D02*
X66112705Y-103740000D01*
X72952705Y-104500000D02*
X74700000Y-104500000D01*
X69952705Y-103500000D02*
X70072705Y-103500000D01*
X66712705Y-103740000D02*
X66712705Y-104260000D01*
X59798740Y-109661849D02*
X59431045Y-109294154D01*
X74700000Y-104500000D02*
X76700000Y-106500000D01*
X62259476Y-107540528D02*
X62344329Y-107455672D01*
X61410946Y-108389058D02*
X61495799Y-108304202D01*
X61128104Y-107257684D02*
X61212958Y-107172831D01*
X58300000Y-111500000D02*
X59798739Y-110001261D01*
X68752705Y-103500000D02*
X68872705Y-103500000D01*
X64097960Y-104627241D02*
X64465656Y-104994937D01*
X68152705Y-104500000D02*
X68272705Y-104500000D01*
X62344330Y-107116259D02*
X61976635Y-106748564D01*
X69352705Y-104500000D02*
X69472705Y-104500000D01*
X59600000Y-114650000D02*
X58450000Y-114650000D01*
X76700000Y-106500000D02*
X76700000Y-110125000D01*
X62344329Y-107455672D02*
X62344329Y-107455671D01*
X64041389Y-105758611D02*
G75*
G03*
X64041395Y-105419194I-169689J169711D01*
G01*
X62344329Y-107455671D02*
G75*
G03*
X62344295Y-107116294I-169729J169671D01*
G01*
X61920066Y-107540527D02*
G75*
G03*
X62259504Y-107540557I169734J169727D01*
G01*
X65872705Y-104500000D02*
G75*
G03*
X66112700Y-104260000I-5J240000D01*
G01*
X60279575Y-108445624D02*
G75*
G02*
X60279555Y-108106196I169725J169724D01*
G01*
X60364428Y-108021361D02*
G75*
G02*
X60703840Y-108021361I169706J-169708D01*
G01*
X72712705Y-104260000D02*
G75*
G03*
X72952705Y-104499995I239995J0D01*
G01*
X71272705Y-103500000D02*
G75*
G02*
X71512700Y-103740000I-5J-240000D01*
G01*
X72472705Y-103500000D02*
G75*
G02*
X72712700Y-103740000I-5J-240000D01*
G01*
X61128105Y-107597094D02*
G75*
G02*
X61128115Y-107257696I169695J169694D01*
G01*
X63617126Y-105843467D02*
G75*
G03*
X63956504Y-105843437I169674J169667D01*
G01*
X66472705Y-103500000D02*
G75*
G02*
X66712700Y-103740000I-5J-240000D01*
G01*
X61071536Y-108389057D02*
G75*
G03*
X61410904Y-108389017I169664J169657D01*
G01*
X70912705Y-103740000D02*
G75*
G02*
X71152705Y-103500005I239995J0D01*
G01*
X59431045Y-109294154D02*
G75*
G02*
X59430995Y-108954696I169755J169754D01*
G01*
X61495799Y-108304201D02*
G75*
G03*
X61495795Y-107964795I-169699J169701D01*
G01*
X59515898Y-108869891D02*
G75*
G02*
X59855310Y-108869891I169706J-169708D01*
G01*
X69472705Y-104500000D02*
G75*
G03*
X69712700Y-104260000I-5J240000D01*
G01*
X68872705Y-103500000D02*
G75*
G02*
X69112700Y-103740000I-5J-240000D01*
G01*
X63758548Y-104627241D02*
G75*
G02*
X64097960Y-104627241I169706J-169708D01*
G01*
X68512705Y-103740000D02*
G75*
G02*
X68752705Y-103500005I239995J0D01*
G01*
X66712705Y-104260000D02*
G75*
G03*
X66952705Y-104499995I239995J0D01*
G01*
X60223006Y-109237587D02*
G75*
G03*
X60562404Y-109237577I169694J169687D01*
G01*
X72112705Y-103740000D02*
G75*
G02*
X72352705Y-103500005I239995J0D01*
G01*
X70312705Y-104260000D02*
G75*
G03*
X70552705Y-104499995I239995J0D01*
G01*
X63192859Y-106607141D02*
G75*
G03*
X63192895Y-106267694I-169659J169741D01*
G01*
X70672705Y-104500000D02*
G75*
G03*
X70912700Y-104260000I-5J240000D01*
G01*
X62061488Y-106324301D02*
G75*
G02*
X62400900Y-106324301I169706J-169708D01*
G01*
X67912705Y-104260000D02*
G75*
G03*
X68152705Y-104499995I239995J0D01*
G01*
X62825165Y-105900034D02*
G75*
G02*
X62825135Y-105560596I169735J169734D01*
G01*
X61212958Y-107172831D02*
G75*
G02*
X61552370Y-107172831I169706J-169708D01*
G01*
X63673695Y-105051504D02*
G75*
G02*
X63673695Y-104712095I169705J169704D01*
G01*
X64465656Y-104994937D02*
G75*
G03*
X64805104Y-104994977I169744J169737D01*
G01*
X62768596Y-106691997D02*
G75*
G03*
X63108004Y-106691997I169704J169697D01*
G01*
X70072705Y-103500000D02*
G75*
G02*
X70312700Y-103740000I-5J-240000D01*
G01*
X68272705Y-104500000D02*
G75*
G03*
X68512700Y-104260000I-5J240000D01*
G01*
X59798739Y-110001261D02*
G75*
G03*
X59798695Y-109661894I-169739J169661D01*
G01*
X71872705Y-104500000D02*
G75*
G03*
X72112700Y-104260000I-5J240000D01*
G01*
X60647269Y-109152731D02*
G75*
G03*
X60647295Y-108813294I-169669J169731D01*
G01*
X67072705Y-104500000D02*
G75*
G03*
X67312700Y-104260000I-5J240000D01*
G01*
X69712705Y-103740000D02*
G75*
G02*
X69952705Y-103500005I239995J0D01*
G01*
X66112705Y-103740000D02*
G75*
G02*
X66352705Y-103500005I239995J0D01*
G01*
X71512705Y-104260000D02*
G75*
G03*
X71752705Y-104499995I239995J0D01*
G01*
X62910018Y-105475771D02*
G75*
G02*
X63249430Y-105475771I169706J-169708D01*
G01*
X61976635Y-106748564D02*
G75*
G02*
X61976675Y-106409196I169665J169664D01*
G01*
X67672705Y-103500000D02*
G75*
G02*
X67912700Y-103740000I-5J-240000D01*
G01*
X69112705Y-104260000D02*
G75*
G03*
X69352705Y-104499995I239995J0D01*
G01*
X67312705Y-103740000D02*
G75*
G02*
X67552705Y-103500005I239995J0D01*
G01*
%TO.N,/AWG/PSSI_D4*%
X59600000Y-116600000D02*
X61900000Y-116600000D01*
X77200000Y-113500000D02*
X77600000Y-113900000D01*
X77600000Y-113900000D02*
X77600000Y-114200000D01*
X75107355Y-117339148D02*
X74987355Y-117339148D01*
X75347355Y-114940000D02*
X75347355Y-117099148D01*
X73000000Y-114700000D02*
X71600000Y-113300000D01*
X76307355Y-117339128D02*
X76187355Y-117339128D01*
X77600000Y-114200000D02*
X77100000Y-114700000D01*
X73000000Y-114700000D02*
X73307355Y-114700000D01*
X75947355Y-117099128D02*
X75947355Y-114940000D01*
X74507355Y-114700000D02*
X74387355Y-114700000D01*
X71600000Y-113300000D02*
X69525000Y-113300000D01*
X73547355Y-117099128D02*
X73547355Y-114940000D01*
X73800000Y-113500000D02*
X77200000Y-113500000D01*
X77100000Y-114700000D02*
X76787355Y-114700000D01*
X75707355Y-114700000D02*
X75587355Y-114700000D01*
X74147355Y-114940000D02*
X74147355Y-117099128D01*
X73907355Y-117339128D02*
X73787355Y-117339128D01*
X76547355Y-114940000D02*
X76547355Y-117099128D01*
X74747355Y-117099148D02*
X74747355Y-114940000D01*
X75947355Y-114940000D02*
G75*
G03*
X75707355Y-114700045I-239955J0D01*
G01*
X74387355Y-114700000D02*
G75*
G03*
X74147400Y-114940000I45J-240000D01*
G01*
X74987355Y-117339148D02*
G75*
G02*
X74747352Y-117099148I45J240048D01*
G01*
X76787355Y-114700000D02*
G75*
G03*
X76547400Y-114940000I45J-240000D01*
G01*
X76187355Y-117339128D02*
G75*
G02*
X75947372Y-117099128I45J240028D01*
G01*
X76547355Y-117099128D02*
G75*
G02*
X76307355Y-117339055I-239955J28D01*
G01*
X74747355Y-114940000D02*
G75*
G03*
X74507355Y-114700045I-239955J0D01*
G01*
X73787355Y-117339128D02*
G75*
G02*
X73547372Y-117099128I45J240028D01*
G01*
X75587355Y-114700000D02*
G75*
G03*
X75347400Y-114940000I45J-240000D01*
G01*
X75347355Y-117099148D02*
G75*
G02*
X75107355Y-117339055I-239955J48D01*
G01*
X73547355Y-114940000D02*
G75*
G03*
X73307355Y-114700045I-239955J0D01*
G01*
X74147355Y-117099128D02*
G75*
G02*
X73907355Y-117339055I-239955J28D01*
G01*
%TO.N,/AWG/PSSI_D6*%
X65600000Y-117900000D02*
X59600000Y-117900000D01*
X69525000Y-121300000D02*
X66600000Y-121300000D01*
X65800000Y-118100000D02*
X65600000Y-117900000D01*
X66600000Y-121300000D02*
X65800000Y-120500000D01*
X65800000Y-120500000D02*
X65800000Y-118100000D01*
%TO.N,/AWG/PSSI_D5*%
X66170000Y-112350577D02*
X66050000Y-112350577D01*
X68100000Y-116100000D02*
X68100000Y-117000000D01*
X65210000Y-117010000D02*
X65210000Y-113240579D01*
X68400000Y-115800000D02*
X68100000Y-116100000D01*
X64010000Y-117010000D02*
X64010000Y-113090591D01*
X63410000Y-113090591D02*
X63410000Y-117010000D01*
X67370000Y-112350577D02*
X67250000Y-112350577D01*
X67010000Y-112590577D02*
X67010000Y-117010000D01*
X59600000Y-117250000D02*
X63170000Y-117250000D01*
X68100000Y-117000000D02*
X67857158Y-117242842D01*
X65810000Y-112590577D02*
X65810000Y-117010000D01*
X63770000Y-112850591D02*
X63650000Y-112850591D01*
X64970000Y-113000579D02*
X64850000Y-113000579D01*
X66770000Y-117250000D02*
X66650000Y-117250000D01*
X67610000Y-117010000D02*
X67610000Y-112590577D01*
X69525000Y-115800000D02*
X68400000Y-115800000D01*
X67857158Y-117242842D02*
X67850000Y-117250000D01*
X64370000Y-117250000D02*
X64250000Y-117250000D01*
X66410000Y-117010000D02*
X66410000Y-112590577D01*
X65570000Y-117250000D02*
X65450000Y-117250000D01*
X64610000Y-113240579D02*
X64610000Y-117010000D01*
X64850000Y-113000579D02*
G75*
G03*
X64609979Y-113240579I0J-240021D01*
G01*
X65810000Y-117010000D02*
G75*
G02*
X65570000Y-117250000I-240000J0D01*
G01*
X64250000Y-117250000D02*
G75*
G02*
X64010000Y-117010000I0J240000D01*
G01*
X67850000Y-117250000D02*
G75*
G02*
X67610000Y-117010000I0J240000D01*
G01*
X66410000Y-112590577D02*
G75*
G03*
X66170000Y-112350600I-240000J-23D01*
G01*
X67610000Y-112590577D02*
G75*
G03*
X67370000Y-112350600I-240000J-23D01*
G01*
X65210000Y-113240579D02*
G75*
G03*
X64970000Y-113000600I-240000J-21D01*
G01*
X67010000Y-117010000D02*
G75*
G02*
X66770000Y-117250000I-240000J0D01*
G01*
X67250000Y-112350577D02*
G75*
G03*
X67009977Y-112590577I0J-240023D01*
G01*
X66650000Y-117250000D02*
G75*
G02*
X66410000Y-117010000I0J240000D01*
G01*
X63650000Y-112850591D02*
G75*
G03*
X63409991Y-113090591I0J-240009D01*
G01*
X64010000Y-113090591D02*
G75*
G03*
X63770000Y-112850600I-240000J-9D01*
G01*
X66050000Y-112350577D02*
G75*
G03*
X65809977Y-112590577I0J-240023D01*
G01*
X65450000Y-117250000D02*
G75*
G02*
X65210000Y-117010000I0J240000D01*
G01*
X64610000Y-117010000D02*
G75*
G02*
X64370000Y-117250000I-240000J0D01*
G01*
X63410000Y-117010000D02*
G75*
G02*
X63170000Y-117250000I-240000J0D01*
G01*
%TO.N,/AWG/PSSI_D9*%
X71000000Y-113800000D02*
X69525001Y-113800000D01*
X60700000Y-119850000D02*
X60750000Y-119900000D01*
X71400000Y-114200000D02*
X71000000Y-113800000D01*
X59600000Y-119850000D02*
X60700000Y-119850000D01*
%TO.N,/AWG/PSSI_D10*%
X61700000Y-120500000D02*
X59600000Y-120500000D01*
X72300000Y-115700000D02*
X70700000Y-117300000D01*
X63300000Y-121100000D02*
X62300000Y-121100000D01*
X62300000Y-121100000D02*
X61700000Y-120500000D01*
X70700000Y-117300000D02*
X69525000Y-117300000D01*
%TO.N,/AWG/PSSI_D12*%
X79200000Y-108474265D02*
X79200000Y-110125000D01*
X59600000Y-121800000D02*
X62700000Y-121800000D01*
%TO.N,/AWG/PSSI_D7*%
X72556676Y-118660000D02*
X72556676Y-119140000D01*
X72196676Y-118275782D02*
X72316676Y-118275782D01*
X69525000Y-121800001D02*
X70799999Y-121800001D01*
X71000000Y-121600000D02*
X71000000Y-119200000D01*
X70799999Y-121800001D02*
X71000000Y-121600000D01*
X73156676Y-119284242D02*
X73156676Y-119140000D01*
X72556676Y-119140000D02*
X72556676Y-119284242D01*
X71300000Y-118900000D02*
X71716676Y-118900000D01*
X71000000Y-119200000D02*
X71300000Y-118900000D01*
X71956676Y-118660000D02*
X71956676Y-118515782D01*
X73396676Y-118900000D02*
X73516676Y-118900000D01*
X72796676Y-119524242D02*
X72916676Y-119524242D01*
X72556676Y-118515782D02*
X72556676Y-118660000D01*
X73516676Y-118900000D02*
X74567741Y-118900000D01*
X73156676Y-119140000D02*
G75*
G02*
X73396676Y-118899976I240024J0D01*
G01*
X71956676Y-118515782D02*
G75*
G02*
X72196676Y-118275776I240024J-18D01*
G01*
X72316676Y-118275782D02*
G75*
G02*
X72556718Y-118515782I24J-240018D01*
G01*
X72556676Y-119284242D02*
G75*
G03*
X72796676Y-119524224I240024J42D01*
G01*
X72916676Y-119524242D02*
G75*
G03*
X73156742Y-119284242I24J240042D01*
G01*
X71716676Y-118900000D02*
G75*
G03*
X71956700Y-118660000I24J240000D01*
G01*
%TO.N,/AWG/PSSI_D13*%
X61550000Y-122450000D02*
X59600000Y-122450000D01*
X78700000Y-111600000D02*
X78700000Y-110125000D01*
X61900000Y-122800000D02*
X61550000Y-122450000D01*
%TO.N,/AWG/PSSI_D11*%
X71400000Y-115300000D02*
X69525001Y-115300000D01*
X61300000Y-121150000D02*
X61350000Y-121100000D01*
X59600000Y-121150000D02*
X61300000Y-121150000D01*
%TO.N,/AWG/SWDIO*%
X81933824Y-112725000D02*
X74350000Y-112725000D01*
X74350000Y-112725000D02*
X73825000Y-112725000D01*
X73825000Y-112725000D02*
X72775000Y-111675000D01*
X72775000Y-111675000D02*
X72700000Y-111600000D01*
X73825000Y-112725000D02*
X72700000Y-111600000D01*
X81933824Y-112725000D02*
X73825000Y-112725000D01*
X72700000Y-111600000D02*
X72700000Y-110125000D01*
%TO.N,/AWG/SWCLK*%
X71550000Y-111800000D02*
X69525000Y-111800000D01*
%TO.N,/AWG/DAC_SE_FLT*%
X31250000Y-114425000D02*
X31000000Y-114675000D01*
X31000000Y-117400000D02*
X31000000Y-123025000D01*
X31750000Y-123775000D02*
X33212500Y-123775000D01*
X31000000Y-114675000D02*
X31000000Y-117400000D01*
X31505000Y-114170000D02*
X31000000Y-114675000D01*
X31000000Y-123025000D02*
X31675000Y-123700000D01*
X31675000Y-123700000D02*
X31750000Y-123775000D01*
X32275000Y-114170000D02*
X31505000Y-114170000D01*
X32050000Y-112975000D02*
X32050000Y-113945000D01*
D59*
X33212499Y-123775000D02*
X33212500Y-126712500D01*
D58*
X31505000Y-114170000D02*
X31250000Y-114425000D01*
X31000000Y-114675000D02*
X31000000Y-123025000D01*
X31000000Y-123025000D02*
X31750000Y-123775000D01*
X32050000Y-112925000D02*
X32050000Y-113945000D01*
D59*
%TO.N,Net-(U3-REFIO)*%
X53875000Y-115300000D02*
X52800000Y-115300000D01*
X52450000Y-114950000D02*
X52400000Y-114900000D01*
X52800000Y-115300000D02*
X52450000Y-114950000D01*
X52800000Y-115300000D02*
X52400000Y-114900000D01*
X52400000Y-114900000D02*
X51725000Y-114900000D01*
%TO.N,Net-(U3-FS_ADJ)*%
X51775000Y-116400000D02*
X52400000Y-116400000D01*
X52400000Y-116400000D02*
X52650000Y-116150000D01*
X52650000Y-116150000D02*
X52850000Y-115950000D01*
X52400000Y-116400000D02*
X52850000Y-115950000D01*
X52850000Y-115950000D02*
X53875000Y-115950000D01*
D58*
%TO.N,/AWG/DAC_SE*%
X41426000Y-128926000D02*
X40737500Y-128237500D01*
D59*
X40712500Y-123775000D02*
X40712500Y-125212500D01*
D58*
X46075000Y-128450000D02*
X45599000Y-128926000D01*
X45599000Y-128926000D02*
X41426000Y-128926000D01*
D59*
X41675000Y-126750000D02*
X42200000Y-126225000D01*
X40750000Y-125250000D02*
X40750000Y-126737500D01*
D58*
X41426000Y-128926000D02*
X41300000Y-128800000D01*
X46137500Y-126449999D02*
X46137500Y-128387500D01*
X46137500Y-128387500D02*
X45599000Y-128926000D01*
D59*
X40737500Y-126750000D02*
X41675000Y-126750000D01*
D58*
X41300000Y-128800000D02*
X40737500Y-128237500D01*
X46137500Y-128387500D02*
X46075000Y-128450000D01*
X40737500Y-128237500D02*
X40737500Y-126750000D01*
%TO.N,/AWG/IOUT_N*%
X44775000Y-119425000D02*
X44225000Y-119975000D01*
X52768749Y-117900000D02*
X52668749Y-118000000D01*
X53875000Y-117900000D02*
X52768749Y-117900000D01*
D59*
X44250000Y-121425000D02*
X42900000Y-121425000D01*
D58*
X45431802Y-118000000D02*
X44775000Y-118656802D01*
X52668749Y-118000000D02*
X45431802Y-118000000D01*
D59*
X44250000Y-121425000D02*
X44250000Y-120025000D01*
D58*
X44775000Y-118656802D02*
X44775000Y-119425000D01*
D59*
%TO.N,+3V3A*%
X81200001Y-125475000D02*
X81200001Y-126549999D01*
X80850000Y-126875000D02*
X81075000Y-126875000D01*
X52275000Y-119850000D02*
X51850000Y-119425000D01*
X81200001Y-126749999D02*
X81200001Y-126549999D01*
D60*
X50350000Y-119425000D02*
X49150000Y-119425000D01*
X49150000Y-119425000D02*
X49125000Y-119400000D01*
D59*
X81075000Y-126875000D02*
X81100000Y-126850000D01*
X80850000Y-126875000D02*
X81550000Y-127575000D01*
X53875000Y-119850000D02*
X52275000Y-119850000D01*
X51850000Y-119425000D02*
X50350000Y-119425000D01*
D60*
X53425000Y-112325000D02*
X54674998Y-112325000D01*
D59*
X81100000Y-126850000D02*
X81200001Y-126749999D01*
X81571091Y-128821091D02*
X81571091Y-127696091D01*
X80700000Y-126725000D02*
X80850000Y-126875000D01*
X80700000Y-125475000D02*
X80700000Y-126550000D01*
X81200001Y-126749999D02*
X81200001Y-125475000D01*
X81075000Y-126875000D02*
X81200001Y-126749999D01*
X80700000Y-126550000D02*
X80700000Y-126725000D01*
X80700000Y-125475000D02*
X80700000Y-126725000D01*
D58*
%TO.N,/AWG/DAC_EN*%
X62600000Y-101300000D02*
X57500000Y-106400000D01*
X77900000Y-104600000D02*
X78200000Y-104900000D01*
X57500000Y-106400000D02*
X60600000Y-103300000D01*
X74600000Y-101300000D02*
X77900000Y-104600000D01*
X62600000Y-101300000D02*
X74600000Y-101300000D01*
X57500000Y-112900000D02*
X57500000Y-111200000D01*
X53875000Y-114000000D02*
X56400000Y-114000000D01*
X57500000Y-111200000D02*
X57500000Y-106400000D01*
X78200000Y-110125000D02*
X78200000Y-108600000D01*
X78200000Y-104900000D02*
X78200000Y-108600000D01*
X56400000Y-114000000D02*
X57200000Y-113200000D01*
X60600000Y-103300000D02*
X62600000Y-101300000D01*
X78200000Y-110125000D02*
X78200000Y-104900000D01*
X78200000Y-104900000D02*
X74600000Y-101300000D01*
X57200000Y-113200000D02*
X57500000Y-112900000D01*
X57500000Y-112900000D02*
X56400000Y-114000000D01*
X57500000Y-106400000D02*
X57500000Y-112900000D01*
D59*
%TO.N,/AWG/IOUT_P*%
X45750000Y-121425000D02*
X45750000Y-120024999D01*
D58*
X45225000Y-118843198D02*
X45225000Y-119425000D01*
X45225000Y-119425000D02*
X45775000Y-119975000D01*
X53875000Y-118550000D02*
X52768749Y-118550000D01*
X45618198Y-118450000D02*
X45225000Y-118843198D01*
X52668749Y-118450000D02*
X45618198Y-118450000D01*
X52768749Y-118550000D02*
X52668749Y-118450000D01*
D59*
X45750000Y-121425000D02*
X47100000Y-121425000D01*
D58*
%TO.N,/AWG/10MHZ*%
X77176000Y-127125000D02*
X77176000Y-128498943D01*
X76887471Y-128787472D02*
X76725000Y-128949943D01*
X76725000Y-128949943D02*
X76725000Y-129400001D01*
X77176000Y-128498943D02*
X76725000Y-128949943D01*
X77176000Y-127025890D02*
X77176000Y-127125000D01*
X77176000Y-127025890D02*
X77176000Y-128498943D01*
X77176000Y-128498943D02*
X76887471Y-128787472D01*
X76700000Y-125475000D02*
X76700000Y-126549890D01*
X76700000Y-126549890D02*
X77176000Y-127025890D01*
D60*
%TO.N,/AWG/S_OUT*%
X49800000Y-106075000D02*
X49800000Y-107737500D01*
D58*
%TO.N,PGND*%
X62267199Y-154013400D02*
X62267199Y-153067199D01*
D59*
X72375000Y-151043000D02*
X73298700Y-151043000D01*
D58*
X72850000Y-141125000D02*
X72850000Y-140000000D01*
X52300000Y-150950000D02*
X51350000Y-150950000D01*
X65225000Y-151350000D02*
X65225000Y-152425000D01*
X64180800Y-153219200D02*
X64200000Y-153200000D01*
X67206400Y-152806400D02*
X67200000Y-152800000D01*
X60775000Y-154000000D02*
X60775000Y-152925000D01*
X70792799Y-158292799D02*
X70800000Y-158300000D01*
X65225000Y-152425000D02*
X65250000Y-152450000D01*
X69480800Y-158292799D02*
X70792799Y-158292799D01*
X62267199Y-153067199D02*
X62250000Y-153050000D01*
X68286400Y-152806400D02*
X67206400Y-152806400D01*
X60775000Y-152925000D02*
X60750000Y-152900000D01*
X60730200Y-157319800D02*
X59850000Y-158200000D01*
X64180800Y-154482801D02*
X64180800Y-153219200D01*
D59*
%TO.N,Net-(U8-+)*%
X46137500Y-124550001D02*
X47725001Y-124550001D01*
X45750000Y-124500000D02*
X45750000Y-123075000D01*
%TO.N,Net-(U8--)*%
X43862500Y-124550001D02*
X42224999Y-124550001D01*
X44250000Y-124500000D02*
X44250000Y-123075000D01*
D58*
%TO.N,/AWG/695_EN*%
X70000000Y-127800000D02*
X71100000Y-126700000D01*
X66800000Y-127800000D02*
X70000000Y-127800000D01*
X43862500Y-125500000D02*
X44900000Y-125500000D01*
X71200000Y-125475000D02*
X71200000Y-126600000D01*
X71200000Y-126600000D02*
X71100000Y-126700000D01*
X71200000Y-126600000D02*
X70000000Y-127800000D01*
D60*
%TO.N,Net-(J1-In)*%
X36250000Y-102250000D02*
X40850000Y-102250000D01*
X45000000Y-103962500D02*
X48037500Y-103962500D01*
X40850000Y-102250000D02*
X42562500Y-103962500D01*
X48037500Y-103962500D02*
X49000000Y-103000000D01*
X48600000Y-103400000D02*
X49000000Y-103000000D01*
X42200000Y-103600000D02*
X42562500Y-103962500D01*
X40850000Y-102250000D02*
X42200000Y-103600000D01*
X48037500Y-103962500D02*
X48600000Y-103400000D01*
X49000000Y-103000000D02*
X49000000Y-100037500D01*
X42562500Y-103962500D02*
X45000000Y-103962500D01*
D58*
%TO.N,Net-(U11-COMP)*%
X69480800Y-154482800D02*
X69480799Y-153924000D01*
X69836400Y-151333200D02*
X69836400Y-152806400D01*
X69480799Y-153924000D02*
X69684000Y-153720799D01*
X69684000Y-153720799D02*
X69836400Y-153568400D01*
X69836400Y-153568400D02*
X69836400Y-152806400D01*
X69480799Y-153924000D02*
X69836400Y-153568400D01*
%TO.N,Net-(C30-Pad2)*%
X68286400Y-151333200D02*
X66891800Y-151333200D01*
%TO.N,Net-(U11-SS)*%
X64180800Y-157022800D02*
X62483400Y-157022800D01*
D59*
%TO.N,/AWG/OFFSET*%
X32275000Y-115670000D02*
X32275000Y-116925000D01*
X32275000Y-116925000D02*
X32250000Y-116950000D01*
D58*
%TO.N,Net-(U9-ADJ)*%
X76398700Y-151043000D02*
X74948700Y-151043000D01*
X75123701Y-150868000D02*
X75123700Y-149126301D01*
%TO.N,Net-(U11-FB)*%
X62267199Y-155663400D02*
X60888400Y-155663400D01*
X64180800Y-155752800D02*
X62356599Y-155752800D01*
%TO.N,Net-(U12-ADJ)*%
X53950000Y-150950000D02*
X53950000Y-150300000D01*
X54150000Y-150100000D02*
X54300000Y-149950000D01*
X53950000Y-150300000D02*
X54300000Y-149950000D01*
X54300000Y-149950000D02*
X54300000Y-148650000D01*
X55400000Y-150900000D02*
X54000000Y-150900000D01*
X53950000Y-150300000D02*
X54150000Y-150100000D01*
%TO.N,Net-(U14-ADJ)*%
X72850000Y-142775000D02*
X72850000Y-144325000D01*
X72850000Y-142775000D02*
X70875000Y-142775000D01*
%TO.N,Net-(U5--)*%
X33300000Y-112695000D02*
X34800000Y-112695000D01*
X36937500Y-112735000D02*
X34840000Y-112735000D01*
%TO.N,Net-(U5-+)*%
X33925000Y-115670000D02*
X33925000Y-114170000D01*
X36937500Y-114005000D02*
X34090000Y-114005000D01*
D60*
%TO.N,Net-(R45-Pad1)*%
X42067500Y-114000000D02*
X48200000Y-114000000D01*
X48200000Y-114000000D02*
X49000000Y-113200000D01*
X42062500Y-114005000D02*
X43895000Y-114005000D01*
X43895000Y-114005000D02*
X43900000Y-114000000D01*
X49800000Y-112400000D02*
X49800000Y-110662500D01*
D58*
X34800000Y-109800000D02*
X34800000Y-111045000D01*
D60*
X42067500Y-114000000D02*
X43900000Y-114000000D01*
X48200000Y-114000000D02*
X49800000Y-112400000D01*
X43900000Y-114000000D02*
X45900000Y-114000000D01*
X45900000Y-114000000D02*
X48200000Y-114000000D01*
X49000000Y-113200000D02*
X49800000Y-112400000D01*
D58*
%TO.N,+12VLDO*%
X57050000Y-148750000D02*
X57050000Y-150900000D01*
D59*
%TO.N,+3.3VLDO*%
X68125000Y-123800000D02*
X67600000Y-124325000D01*
X84875000Y-123300000D02*
X86375000Y-123300000D01*
X86350000Y-111250000D02*
X86825000Y-110775000D01*
X86375000Y-123300000D02*
X86850000Y-122825000D01*
X73700000Y-125475000D02*
X73700000Y-127175000D01*
X85800000Y-111800000D02*
X86350000Y-111250000D01*
D60*
X87925000Y-110775000D02*
X87950000Y-110800000D01*
D58*
X72325000Y-129375000D02*
X72250000Y-129450000D01*
D59*
X52575000Y-121800000D02*
X51875000Y-122500000D01*
D60*
X51950000Y-124250000D02*
X54200000Y-124250000D01*
D59*
X71200000Y-109475000D02*
X69850000Y-108125000D01*
X66525000Y-124325000D02*
X66500000Y-124300000D01*
D58*
X78048700Y-151043000D02*
X78048700Y-148998700D01*
D59*
X69925000Y-107025000D02*
X69950000Y-107000000D01*
X84875000Y-111800000D02*
X85800000Y-111800000D01*
X67600000Y-124325000D02*
X66525000Y-124325000D01*
D60*
X56350000Y-112225000D02*
X56350000Y-111650000D01*
D59*
X76425000Y-128400000D02*
X76375000Y-128450000D01*
X73700000Y-127175000D02*
X73375000Y-127500000D01*
X69525000Y-123800000D02*
X68125000Y-123800000D01*
X86850000Y-122825000D02*
X87800000Y-122825000D01*
X85800000Y-111800000D02*
X86825000Y-110775000D01*
X53875000Y-121800000D02*
X52575000Y-121800000D01*
D60*
X54200000Y-124250000D02*
X55600000Y-125650000D01*
X51950000Y-124250000D02*
X51950000Y-122575000D01*
D59*
X73375000Y-127500000D02*
X73375000Y-128450000D01*
X76200000Y-125475000D02*
X76200000Y-127275000D01*
D58*
X73325000Y-129375000D02*
X74849999Y-129375000D01*
D59*
X76425000Y-127500000D02*
X76425000Y-128400000D01*
X69925000Y-108100000D02*
X69925000Y-107025000D01*
D60*
X86900000Y-110775000D02*
X87925000Y-110775000D01*
D58*
X73325000Y-129375000D02*
X72325000Y-129375000D01*
D60*
X56350000Y-111650000D02*
X56750000Y-111250000D01*
%TO.N,-5V_LDO*%
X47800000Y-128475000D02*
X47775000Y-128500000D01*
X47800000Y-126000000D02*
X47800000Y-127475000D01*
X46137500Y-125500000D02*
X47300000Y-125500000D01*
X47300000Y-125500000D02*
X47800000Y-126000000D01*
X47800000Y-127475000D02*
X47800000Y-128475000D01*
D58*
%TO.N,+5VLDO*%
X72000001Y-148849999D02*
X68350000Y-148849999D01*
X72850000Y-145975000D02*
X72850000Y-148000000D01*
X72300000Y-148550000D02*
X72000001Y-148849999D01*
D60*
X44050000Y-128175000D02*
X44050000Y-126637499D01*
X42550000Y-128175000D02*
X44050000Y-128175000D01*
D58*
X66425001Y-148849999D02*
X65750000Y-149525000D01*
X68350000Y-148849999D02*
X66425001Y-148849999D01*
D60*
X44050000Y-126637499D02*
X43862500Y-126449999D01*
X42550000Y-128175000D02*
X41575000Y-128175000D01*
D58*
X72850000Y-148000000D02*
X72000001Y-148849999D01*
X72850000Y-148000000D02*
X72300000Y-148550000D01*
D59*
%TO.N,DGND*%
X51950000Y-125800000D02*
X51950000Y-126850000D01*
X56750000Y-120901000D02*
X56750000Y-120400000D01*
X86275000Y-123800000D02*
X86850000Y-124375000D01*
X73325000Y-131825000D02*
X73250000Y-131900000D01*
D58*
X76725000Y-130850001D02*
X76725000Y-132000000D01*
D60*
X88425000Y-113800000D02*
X89350000Y-113800000D01*
X89350000Y-113800000D02*
X89375000Y-113775000D01*
D59*
X56501000Y-121150000D02*
X56750000Y-120901000D01*
X75700000Y-125475000D02*
X75700000Y-126675000D01*
X87875000Y-112325000D02*
X87950000Y-112400000D01*
X75700000Y-126675000D02*
X74875000Y-127500000D01*
X87825000Y-124375000D02*
X87850000Y-124400000D01*
X51950000Y-126850000D02*
X52000000Y-126900000D01*
X71825000Y-127500000D02*
X71825000Y-128675000D01*
X71475000Y-108100000D02*
X71475000Y-107175000D01*
X84875000Y-112300000D02*
X86875000Y-112300000D01*
X72950000Y-106575000D02*
X73950000Y-106575000D01*
X69525000Y-123300000D02*
X68125000Y-123300000D01*
X74875000Y-127500000D02*
X74875000Y-128475000D01*
X73950000Y-106575000D02*
X73975000Y-106600000D01*
X84875000Y-123800000D02*
X86275000Y-123800000D01*
X73325000Y-130925000D02*
X73325000Y-131825000D01*
X71700000Y-110125000D02*
X71700000Y-108325000D01*
X67600000Y-122775000D02*
X66625000Y-122775000D01*
X66625000Y-122775000D02*
X66600000Y-122750000D01*
D58*
X66425000Y-118575000D02*
X66400000Y-118600000D01*
D59*
X53875000Y-121150000D02*
X56501000Y-121150000D01*
X56501000Y-121150000D02*
X56600000Y-121051000D01*
D58*
X67550000Y-118575000D02*
X66425000Y-118575000D01*
D59*
X86850000Y-124375000D02*
X87825000Y-124375000D01*
X68125000Y-123300000D02*
X67600000Y-122775000D01*
X71475000Y-107175000D02*
X71500000Y-107150000D01*
D60*
X50325000Y-122500000D02*
X50325000Y-123400000D01*
D59*
X56600000Y-121051000D02*
X56750000Y-120901000D01*
X74875000Y-128475000D02*
X74900000Y-128500000D01*
X86900000Y-112325000D02*
X87875000Y-112325000D01*
X71825000Y-128675000D02*
X71775000Y-128725000D01*
%TO.N,VCAP2*%
X72200001Y-108874999D02*
X72950000Y-108125000D01*
X72200001Y-110125000D02*
X72200001Y-108874999D01*
%TO.N,VCAP1*%
X85875001Y-112800001D02*
X86875000Y-113800000D01*
X84875000Y-112800001D02*
X85875001Y-112800001D01*
D60*
%TO.N,+3.3VLDO*%
X60050000Y-125650000D02*
X60075000Y-125675000D01*
X55600000Y-125650000D02*
X60050000Y-125650000D01*
D58*
%TO.N,/AWG/NRST*%
X82580000Y-98400000D02*
X85200000Y-101020000D01*
X85200000Y-101020000D02*
X85200000Y-110100000D01*
X77700000Y-123425000D02*
X77700000Y-125475000D01*
X77700000Y-117600000D02*
X85200000Y-110100000D01*
X77700000Y-117600000D02*
X78337500Y-116962500D01*
X77700000Y-119300000D02*
X77700000Y-117600000D01*
%TD*%
%TA.AperFunction,Conductor*%
%TO.N,AGND*%
G36*
X46465677Y-109469685D02*
G01*
X46486319Y-109486319D01*
X46763681Y-109763681D01*
X46797166Y-109825004D01*
X46800000Y-109851362D01*
X46800000Y-113125500D01*
X46780315Y-113192539D01*
X46727511Y-113238294D01*
X46676000Y-113249500D01*
X45274000Y-113249500D01*
X45265314Y-113246949D01*
X45256353Y-113248238D01*
X45232312Y-113237259D01*
X45206961Y-113229815D01*
X45201033Y-113222974D01*
X45192797Y-113219213D01*
X45178507Y-113196978D01*
X45161206Y-113177011D01*
X45158918Y-113166496D01*
X45155023Y-113160435D01*
X45150000Y-113125500D01*
X45150000Y-113064037D01*
X45156294Y-113025033D01*
X45165349Y-112997708D01*
X45175500Y-112898345D01*
X45175499Y-112301656D01*
X45165349Y-112202292D01*
X45156294Y-112174965D01*
X45150000Y-112135961D01*
X45150000Y-111564037D01*
X45156294Y-111525033D01*
X45165349Y-111497708D01*
X45175500Y-111398345D01*
X45175499Y-110801656D01*
X45165349Y-110702292D01*
X45156294Y-110674965D01*
X45150000Y-110635961D01*
X45150000Y-109710085D01*
X45150001Y-109709629D01*
X45150031Y-109701272D01*
X45150500Y-109698918D01*
X45150500Y-109573816D01*
X45150501Y-109573544D01*
X45160405Y-109540266D01*
X45170185Y-109506961D01*
X45170364Y-109506805D01*
X45170432Y-109506578D01*
X45196858Y-109483848D01*
X45222989Y-109461206D01*
X45223249Y-109461149D01*
X45223403Y-109461017D01*
X45224679Y-109460838D01*
X45274500Y-109450000D01*
X46398638Y-109450000D01*
X46465677Y-109469685D01*
G37*
%TD.AperFunction*%
%TD*%
%TA.AperFunction,Conductor*%
%TO.N,+5VLDO*%
G36*
X66425000Y-150000000D02*
G01*
X66100000Y-150000000D01*
X63349000Y-150000000D01*
X63281961Y-149980315D01*
X63236206Y-149927511D01*
X63225000Y-149876000D01*
X63225000Y-149026362D01*
X63233644Y-148996921D01*
X63240168Y-148966935D01*
X63243922Y-148961919D01*
X63244685Y-148959323D01*
X63261319Y-148938681D01*
X63263681Y-148936319D01*
X63325004Y-148902834D01*
X63351362Y-148900000D01*
X65325000Y-148900000D01*
X66050000Y-148175000D01*
X66425000Y-147800000D01*
X66425000Y-150000000D01*
G37*
%TD.AperFunction*%
%TD*%
%TA.AperFunction,Conductor*%
%TO.N,+13V*%
G36*
X59615677Y-147519685D02*
G01*
X59636319Y-147536319D01*
X60600000Y-148500000D01*
X62076000Y-148500000D01*
X62143039Y-148519685D01*
X62188794Y-148572489D01*
X62200000Y-148624000D01*
X62200000Y-150848638D01*
X62180315Y-150915677D01*
X62163681Y-150936319D01*
X61600000Y-151499999D01*
X61600000Y-150775000D01*
X61525000Y-150700000D01*
X58000000Y-150700000D01*
X58000000Y-147624000D01*
X58019685Y-147556961D01*
X58072489Y-147511206D01*
X58124000Y-147500000D01*
X59548638Y-147500000D01*
X59615677Y-147519685D01*
G37*
%TD.AperFunction*%
%TD*%
%TA.AperFunction,Conductor*%
%TO.N,PGND*%
G36*
X45803039Y-138314685D02*
G01*
X45848794Y-138367489D01*
X45860000Y-138419000D01*
X45860000Y-140371000D01*
X45840315Y-140438039D01*
X45787511Y-140483794D01*
X45736000Y-140495000D01*
X43984000Y-140495000D01*
X43916961Y-140475315D01*
X43871206Y-140422511D01*
X43860000Y-140371000D01*
X43860000Y-138419000D01*
X43879685Y-138351961D01*
X43932489Y-138306206D01*
X43984000Y-138295000D01*
X45736000Y-138295000D01*
X45803039Y-138314685D01*
G37*
%TD.AperFunction*%
%TD*%
%TA.AperFunction,Conductor*%
%TO.N,+3.3VLDO*%
G36*
X82440677Y-140469685D02*
G01*
X82461319Y-140486319D01*
X82975000Y-141000000D01*
X82975001Y-141000000D01*
X82978318Y-141001374D01*
X83003078Y-141008644D01*
X83033065Y-141015168D01*
X83038080Y-141018922D01*
X83040677Y-141019685D01*
X83061319Y-141036319D01*
X83113681Y-141088681D01*
X83147166Y-141150004D01*
X83150000Y-141176362D01*
X83150000Y-142426000D01*
X83130315Y-142493039D01*
X83077511Y-142538794D01*
X83026000Y-142550000D01*
X81239999Y-142550000D01*
X78775000Y-145014999D01*
X78775000Y-149498638D01*
X78755315Y-149565677D01*
X78738681Y-149586319D01*
X78336319Y-149988681D01*
X78274996Y-150022166D01*
X78248638Y-150025000D01*
X76826362Y-150025000D01*
X76796921Y-150016355D01*
X76766935Y-150009832D01*
X76761919Y-150006077D01*
X76759323Y-150005315D01*
X76738681Y-149988681D01*
X76661319Y-149911319D01*
X76627834Y-149849996D01*
X76625000Y-149823638D01*
X76625000Y-145475000D01*
X75311319Y-144161319D01*
X75277834Y-144099996D01*
X75275000Y-144073638D01*
X75275000Y-140901362D01*
X75294685Y-140834323D01*
X75311319Y-140813681D01*
X75638681Y-140486319D01*
X75700004Y-140452834D01*
X75726362Y-140450000D01*
X82373638Y-140450000D01*
X82440677Y-140469685D01*
G37*
%TD.AperFunction*%
%TD*%
%TA.AperFunction,Conductor*%
%TO.N,AGND*%
G36*
X38693039Y-118019685D02*
G01*
X38738794Y-118072489D01*
X38750000Y-118124000D01*
X38750000Y-119498638D01*
X38730315Y-119565677D01*
X38713681Y-119586319D01*
X38511319Y-119788681D01*
X38449996Y-119822166D01*
X38423638Y-119825000D01*
X34151362Y-119825000D01*
X34084323Y-119805315D01*
X34063681Y-119788681D01*
X33711319Y-119436319D01*
X33677834Y-119374996D01*
X33675000Y-119348638D01*
X33675000Y-118126362D01*
X33683644Y-118096921D01*
X33690168Y-118066935D01*
X33693922Y-118061919D01*
X33694685Y-118059323D01*
X33711319Y-118038681D01*
X33713681Y-118036319D01*
X33775004Y-118002834D01*
X33801362Y-118000000D01*
X38626000Y-118000000D01*
X38693039Y-118019685D01*
G37*
%TD.AperFunction*%
%TD*%
%TA.AperFunction,Conductor*%
%TO.N,VIN*%
G36*
X80822540Y-147069685D02*
G01*
X80868295Y-147122489D01*
X80879501Y-147174000D01*
X80879501Y-147226000D01*
X80879502Y-147226009D01*
X80891053Y-147333450D01*
X80891055Y-147333462D01*
X80902261Y-147384972D01*
X80936384Y-147487497D01*
X80936387Y-147487503D01*
X81014172Y-147608537D01*
X81014180Y-147608548D01*
X81059924Y-147661340D01*
X81059927Y-147661343D01*
X81059931Y-147661347D01*
X81168665Y-147755567D01*
X81299542Y-147815338D01*
X81366581Y-147835023D01*
X81366585Y-147835024D01*
X81509001Y-147855500D01*
X81509004Y-147855500D01*
X82126000Y-147855500D01*
X82193039Y-147875185D01*
X82238794Y-147927989D01*
X82250000Y-147979500D01*
X82250000Y-150750000D01*
X80800000Y-152200000D01*
X79300000Y-152200000D01*
X79250000Y-152250000D01*
X79250000Y-149693022D01*
X79255024Y-149658085D01*
X79260021Y-149641067D01*
X79260022Y-149641060D01*
X79260023Y-149641058D01*
X79260024Y-149641054D01*
X79280500Y-149498638D01*
X79280500Y-147174000D01*
X79300185Y-147106961D01*
X79352989Y-147061206D01*
X79404500Y-147050000D01*
X80755501Y-147050000D01*
X80822540Y-147069685D01*
G37*
%TD.AperFunction*%
%TD*%
%TA.AperFunction,Conductor*%
%TO.N,+12VLDO*%
G36*
X44588039Y-109519685D02*
G01*
X44633794Y-109572489D01*
X44645000Y-109624000D01*
X44645000Y-109688639D01*
X44644606Y-109696498D01*
X44644689Y-109696503D01*
X44644533Y-109699504D01*
X44644502Y-109708169D01*
X44644503Y-109708170D01*
X44644500Y-109710166D01*
X44644500Y-110635970D01*
X44650954Y-110716474D01*
X44650958Y-110716503D01*
X44657249Y-110755489D01*
X44657250Y-110755494D01*
X44664486Y-110785067D01*
X44667397Y-110801935D01*
X44669357Y-110821120D01*
X44669999Y-110833723D01*
X44669999Y-111366271D01*
X44669357Y-111378872D01*
X44667397Y-111398059D01*
X44664486Y-111414928D01*
X44657251Y-111444496D01*
X44657249Y-111444508D01*
X44650958Y-111483494D01*
X44650954Y-111483523D01*
X44644500Y-111564027D01*
X44644500Y-112135970D01*
X44650954Y-112216474D01*
X44650958Y-112216503D01*
X44657249Y-112255489D01*
X44657250Y-112255494D01*
X44664486Y-112285067D01*
X44667397Y-112301935D01*
X44669357Y-112321120D01*
X44669999Y-112333723D01*
X44669999Y-112866271D01*
X44669357Y-112878872D01*
X44667397Y-112898059D01*
X44664486Y-112914928D01*
X44657251Y-112944496D01*
X44657249Y-112944508D01*
X44650958Y-112983494D01*
X44650955Y-112983514D01*
X44650763Y-112985916D01*
X44625781Y-113051166D01*
X44569487Y-113092552D01*
X44527160Y-113100000D01*
X41599499Y-113100000D01*
X41532460Y-113080315D01*
X41486705Y-113027511D01*
X41475499Y-112976000D01*
X41475499Y-112524000D01*
X41495184Y-112456961D01*
X41547988Y-112411206D01*
X41599499Y-112400000D01*
X43200000Y-112400000D01*
X43400000Y-112200000D01*
X43400000Y-111899052D01*
X43404924Y-111864457D01*
X43447598Y-111717573D01*
X43447599Y-111717567D01*
X43450500Y-111680701D01*
X43450501Y-111680694D01*
X43450501Y-111249306D01*
X43447599Y-111212431D01*
X43404924Y-111065543D01*
X43400000Y-111030948D01*
X43400000Y-109751362D01*
X43408644Y-109721921D01*
X43415168Y-109691935D01*
X43418922Y-109686919D01*
X43419685Y-109684323D01*
X43436319Y-109663681D01*
X43563681Y-109536319D01*
X43625004Y-109502834D01*
X43651362Y-109500000D01*
X44521000Y-109500000D01*
X44588039Y-109519685D01*
G37*
%TD.AperFunction*%
%TD*%
%TA.AperFunction,Conductor*%
%TO.N,PGND*%
G36*
X62083038Y-143025185D02*
G01*
X62128793Y-143077989D01*
X62139999Y-143129500D01*
X62139999Y-144976000D01*
X62120314Y-145043039D01*
X62067510Y-145088794D01*
X62015999Y-145100000D01*
X60264000Y-145100000D01*
X60196961Y-145080315D01*
X60151206Y-145027511D01*
X60140000Y-144976000D01*
X60140000Y-143129500D01*
X60159685Y-143062461D01*
X60212489Y-143016706D01*
X60264000Y-143005500D01*
X62015999Y-143005500D01*
X62083038Y-143025185D01*
G37*
%TD.AperFunction*%
%TD*%
%TA.AperFunction,Conductor*%
%TO.N,-13V*%
G36*
X37147001Y-143552116D02*
G01*
X37147000Y-143552135D01*
X37147000Y-145647870D01*
X37147001Y-145647876D01*
X37153408Y-145707483D01*
X37203702Y-145842328D01*
X37203706Y-145842335D01*
X37289952Y-145957544D01*
X37289955Y-145957547D01*
X37405164Y-146043793D01*
X37405171Y-146043797D01*
X37540017Y-146094091D01*
X37540016Y-146094091D01*
X37546944Y-146094835D01*
X37599627Y-146100500D01*
X39600372Y-146100499D01*
X39659983Y-146094091D01*
X39794831Y-146043796D01*
X39910046Y-145957546D01*
X39915928Y-145949687D01*
X39971861Y-145907818D01*
X40015194Y-145900000D01*
X44147893Y-145900000D01*
X44204187Y-145913514D01*
X44290600Y-145957544D01*
X44362245Y-145994049D01*
X44579752Y-146064721D01*
X44579753Y-146064721D01*
X44579756Y-146064722D01*
X44805647Y-146100500D01*
X44805648Y-146100500D01*
X45034354Y-146100500D01*
X45034355Y-146100500D01*
X45260246Y-146064722D01*
X45260249Y-146064721D01*
X45260250Y-146064721D01*
X45477756Y-145994049D01*
X45477756Y-145994048D01*
X45477759Y-145994048D01*
X45635814Y-145913514D01*
X45692109Y-145900000D01*
X45950000Y-145900000D01*
X46300000Y-145550000D01*
X46300000Y-145121945D01*
X46306069Y-145083626D01*
X46337223Y-144987745D01*
X46373001Y-144761853D01*
X46373001Y-144438146D01*
X46337223Y-144212255D01*
X46306069Y-144116371D01*
X46305700Y-144114041D01*
X46305023Y-144112988D01*
X46300000Y-144078053D01*
X46300000Y-143901362D01*
X46319685Y-143834323D01*
X46336319Y-143813681D01*
X46600000Y-143550000D01*
X48500000Y-143550000D01*
X48547000Y-143597000D01*
X48547000Y-145647870D01*
X48547001Y-145647876D01*
X48553408Y-145707483D01*
X48603702Y-145842328D01*
X48603706Y-145842335D01*
X48675266Y-145937926D01*
X48699684Y-146003390D01*
X48700000Y-146012237D01*
X48700000Y-151950000D01*
X38750000Y-151950000D01*
X35936319Y-149136319D01*
X35902834Y-149074996D01*
X35900000Y-149048638D01*
X35900000Y-148550000D01*
X35086319Y-147736319D01*
X35052834Y-147674996D01*
X35050000Y-147648638D01*
X35050000Y-143561362D01*
X35050176Y-143554753D01*
X35053098Y-143500000D01*
X37152603Y-143500000D01*
X37147001Y-143552116D01*
G37*
%TD.AperFunction*%
%TD*%
%TA.AperFunction,Conductor*%
%TO.N,+12VLDO*%
G36*
X59275000Y-143150000D02*
G01*
X58925000Y-143500000D01*
X58924999Y-143500000D01*
X57375000Y-145049999D01*
X57375000Y-149551000D01*
X57355315Y-149618039D01*
X57302511Y-149663794D01*
X57251000Y-149675000D01*
X55851362Y-149675000D01*
X55821921Y-149666355D01*
X55791935Y-149659832D01*
X55786919Y-149656077D01*
X55784323Y-149655315D01*
X55763681Y-149638681D01*
X55686319Y-149561319D01*
X55652834Y-149499996D01*
X55650000Y-149473638D01*
X55650000Y-145200000D01*
X54236319Y-143786319D01*
X54202834Y-143724996D01*
X54200000Y-143698638D01*
X54200000Y-141224000D01*
X54219685Y-141156961D01*
X54272489Y-141111206D01*
X54324000Y-141100000D01*
X59275000Y-141100000D01*
X59275000Y-143150000D01*
G37*
%TD.AperFunction*%
%TD*%
%TA.AperFunction,Conductor*%
%TO.N,Net-(C17-Pad1)*%
G36*
X45143039Y-160419685D02*
G01*
X45188794Y-160472489D01*
X45200000Y-160524000D01*
X45200000Y-165348638D01*
X45191355Y-165378078D01*
X45184832Y-165408065D01*
X45181077Y-165413080D01*
X45180315Y-165415677D01*
X45163681Y-165436319D01*
X45036319Y-165563681D01*
X44974996Y-165597166D01*
X44948638Y-165600000D01*
X39524000Y-165600000D01*
X39456961Y-165580315D01*
X39411206Y-165527511D01*
X39400000Y-165476000D01*
X39400000Y-163876157D01*
X39419685Y-163809118D01*
X39455139Y-163773663D01*
X39455000Y-163773477D01*
X39456296Y-163772506D01*
X39456961Y-163771841D01*
X39458543Y-163770825D01*
X39511347Y-163725070D01*
X39605567Y-163616336D01*
X39665338Y-163485459D01*
X39685023Y-163418420D01*
X39685024Y-163418416D01*
X39705500Y-163276000D01*
X39705500Y-160524000D01*
X39725185Y-160456961D01*
X39777989Y-160411206D01*
X39829500Y-160400000D01*
X45076000Y-160400000D01*
X45143039Y-160419685D01*
G37*
%TD.AperFunction*%
%TD*%
%TA.AperFunction,Conductor*%
%TO.N,+5VLDO*%
G36*
X69368039Y-141219685D02*
G01*
X69413794Y-141272489D01*
X69425000Y-141324000D01*
X69425000Y-146325000D01*
X70238241Y-146755539D01*
X70288279Y-146804302D01*
X70292589Y-146812690D01*
X70438367Y-147125072D01*
X70450000Y-147177510D01*
X70450000Y-149848638D01*
X70441355Y-149878078D01*
X70434832Y-149908065D01*
X70431077Y-149913080D01*
X70430315Y-149915677D01*
X70413681Y-149936319D01*
X70386319Y-149963681D01*
X70324996Y-149997166D01*
X70298638Y-150000000D01*
X66425000Y-150000000D01*
X66425000Y-147800000D01*
X66050000Y-148175000D01*
X66050000Y-146101362D01*
X66069685Y-146034323D01*
X66086319Y-146013681D01*
X67425000Y-144675000D01*
X67425000Y-141324000D01*
X67444685Y-141256961D01*
X67497489Y-141211206D01*
X67549000Y-141200000D01*
X69301000Y-141200000D01*
X69368039Y-141219685D01*
G37*
%TD.AperFunction*%
%TD*%
%TA.AperFunction,Conductor*%
%TO.N,-13V*%
G36*
X49563681Y-151163681D02*
G01*
X49597166Y-151225004D01*
X49600000Y-151251362D01*
X49600000Y-155076000D01*
X49580315Y-155143039D01*
X49527511Y-155188794D01*
X49476000Y-155200000D01*
X45124000Y-155200000D01*
X45056961Y-155180315D01*
X45011206Y-155127511D01*
X45000000Y-155076000D01*
X45000000Y-153800000D01*
X43400000Y-152200000D01*
X38724000Y-152200000D01*
X38656961Y-152180315D01*
X38611206Y-152127511D01*
X38600000Y-152076000D01*
X38600000Y-151800000D01*
X38750000Y-151950000D01*
X48700000Y-151950000D01*
X48700000Y-150300000D01*
X49563681Y-151163681D01*
G37*
%TD.AperFunction*%
%TD*%
%TA.AperFunction,Conductor*%
%TO.N,PGND*%
G36*
X74353039Y-153219685D02*
G01*
X74398794Y-153272489D01*
X74410000Y-153324000D01*
X74410000Y-155276000D01*
X74390315Y-155343039D01*
X74337511Y-155388794D01*
X74286000Y-155400000D01*
X72410000Y-155400000D01*
X72410000Y-153200000D01*
X74286000Y-153200000D01*
X74353039Y-153219685D01*
G37*
%TD.AperFunction*%
%TD*%
%TA.AperFunction,Conductor*%
%TO.N,+12VLDO*%
G36*
X63050000Y-142500000D02*
G01*
X60000000Y-142500000D01*
X59999999Y-142500000D01*
X59036319Y-143463681D01*
X58974996Y-143497166D01*
X58948638Y-143500000D01*
X58925000Y-143500000D01*
X59275000Y-143150000D01*
X59275000Y-141100000D01*
X63050000Y-141100000D01*
X63050000Y-142500000D01*
G37*
%TD.AperFunction*%
%TD*%
%TA.AperFunction,Conductor*%
%TO.N,PGND*%
G36*
X72510000Y-155400000D02*
G01*
X72410000Y-155400000D01*
X70837335Y-155400000D01*
X70827174Y-155397016D01*
X70816659Y-155398264D01*
X70794228Y-155387342D01*
X70770296Y-155380315D01*
X70761700Y-155371504D01*
X70753840Y-155367677D01*
X70733099Y-155342188D01*
X70731394Y-155340440D01*
X70731021Y-155339828D01*
X70648881Y-155200935D01*
X70642901Y-155194955D01*
X70635167Y-155182240D01*
X70629848Y-155162316D01*
X70619955Y-155144221D01*
X70621018Y-155129241D01*
X70617146Y-155114734D01*
X70623443Y-155095097D01*
X70624904Y-155074526D01*
X70635155Y-155058574D01*
X70638482Y-155048202D01*
X70645582Y-155042350D01*
X70645742Y-155042100D01*
X70644101Y-155040827D01*
X70648877Y-155034669D01*
X70648881Y-155034666D01*
X70732544Y-154893199D01*
X70778398Y-154735370D01*
X70781300Y-154698495D01*
X70781300Y-154267107D01*
X70778398Y-154230232D01*
X70732544Y-154072403D01*
X70648881Y-153930936D01*
X70648879Y-153930934D01*
X70648876Y-153930930D01*
X70546319Y-153828373D01*
X70531615Y-153801445D01*
X70515023Y-153775627D01*
X70514131Y-153769426D01*
X70512834Y-153767050D01*
X70510000Y-153740692D01*
X70510000Y-153685174D01*
X70529685Y-153618135D01*
X70546319Y-153597493D01*
X70634368Y-153509444D01*
X70723403Y-153365097D01*
X70749946Y-153284995D01*
X70789719Y-153227551D01*
X70854235Y-153200728D01*
X70867652Y-153200000D01*
X72510000Y-153200000D01*
X72510000Y-155400000D01*
G37*
%TD.AperFunction*%
%TD*%
%TA.AperFunction,Conductor*%
%TO.N,-12V_LDO*%
G36*
X37467540Y-114919685D02*
G01*
X37513295Y-114972489D01*
X37524501Y-115024000D01*
X37524501Y-115476000D01*
X37504816Y-115543039D01*
X37452012Y-115588794D01*
X37400501Y-115600000D01*
X36099999Y-115600000D01*
X36000000Y-115699999D01*
X36000000Y-115700000D01*
X36000000Y-116100000D01*
X36100000Y-116200000D01*
X37656178Y-116200000D01*
X37723217Y-116219685D01*
X37730475Y-116224724D01*
X37782668Y-116263795D01*
X37782671Y-116263797D01*
X37827618Y-116280561D01*
X37917517Y-116314091D01*
X37977127Y-116320500D01*
X38469139Y-116320499D01*
X38498583Y-116329145D01*
X38528564Y-116335667D01*
X38533577Y-116339419D01*
X38536176Y-116340183D01*
X38556818Y-116356818D01*
X38563681Y-116363681D01*
X38597166Y-116425004D01*
X38600000Y-116451362D01*
X38600000Y-117276000D01*
X38580315Y-117343039D01*
X38527511Y-117388794D01*
X38476000Y-117400000D01*
X34924000Y-117400000D01*
X34856961Y-117380315D01*
X34811206Y-117327511D01*
X34800000Y-117276000D01*
X34800000Y-116152319D01*
X34805614Y-116115431D01*
X34810422Y-116100000D01*
X34819086Y-116072196D01*
X34825500Y-116001616D01*
X34825500Y-115338384D01*
X34819086Y-115267804D01*
X34805613Y-115224569D01*
X34805407Y-115223213D01*
X34805023Y-115222615D01*
X34800000Y-115187680D01*
X34800000Y-115024000D01*
X34819685Y-114956961D01*
X34872489Y-114911206D01*
X34924000Y-114900000D01*
X37400501Y-114900000D01*
X37467540Y-114919685D01*
G37*
%TD.AperFunction*%
%TD*%
%TA.AperFunction,Conductor*%
%TO.N,VIN*%
G36*
X87465677Y-149069685D02*
G01*
X87486319Y-149086319D01*
X88163681Y-149763681D01*
X88197166Y-149825004D01*
X88200000Y-149851362D01*
X88200000Y-150880305D01*
X88198473Y-150899703D01*
X88167121Y-151097648D01*
X88167121Y-151302351D01*
X88198473Y-151500300D01*
X88200000Y-151519698D01*
X88200000Y-159298638D01*
X88180315Y-159365677D01*
X88163681Y-159386319D01*
X86886319Y-160663681D01*
X86824996Y-160697166D01*
X86798638Y-160700000D01*
X79899999Y-160700000D01*
X79419717Y-161180281D01*
X79388332Y-161203084D01*
X79263569Y-161266655D01*
X79186720Y-161322490D01*
X79072490Y-161405483D01*
X79072488Y-161405485D01*
X79072487Y-161405485D01*
X78905485Y-161572487D01*
X78905485Y-161572488D01*
X78905483Y-161572490D01*
X78838302Y-161664957D01*
X78766655Y-161763569D01*
X78703084Y-161888332D01*
X78680281Y-161919717D01*
X77900000Y-162699999D01*
X77900000Y-165248638D01*
X77880315Y-165315677D01*
X77863681Y-165336319D01*
X77486319Y-165713681D01*
X77424996Y-165747166D01*
X77398638Y-165750000D01*
X67524000Y-165750000D01*
X67456961Y-165730315D01*
X67411206Y-165677511D01*
X67400000Y-165626000D01*
X67400000Y-162244215D01*
X74012067Y-162244215D01*
X74012067Y-162448918D01*
X74044089Y-162651101D01*
X74107348Y-162845790D01*
X74200282Y-163028180D01*
X74320595Y-163193780D01*
X74465353Y-163338538D01*
X74611224Y-163444517D01*
X74630957Y-163458854D01*
X74747174Y-163518070D01*
X74813343Y-163551785D01*
X74813345Y-163551785D01*
X74813348Y-163551787D01*
X74910467Y-163583343D01*
X75008032Y-163615044D01*
X75109124Y-163631055D01*
X75210215Y-163647067D01*
X75210216Y-163647067D01*
X75414918Y-163647067D01*
X75414919Y-163647067D01*
X75617101Y-163615044D01*
X75811786Y-163551787D01*
X75994177Y-163458854D01*
X76087157Y-163391299D01*
X76159780Y-163338538D01*
X76159782Y-163338535D01*
X76159786Y-163338533D01*
X76304533Y-163193786D01*
X76304535Y-163193782D01*
X76304538Y-163193780D01*
X76382529Y-163086433D01*
X76424854Y-163028177D01*
X76517787Y-162845786D01*
X76581044Y-162651101D01*
X76613067Y-162448919D01*
X76613067Y-162244215D01*
X76581044Y-162042033D01*
X76517787Y-161847348D01*
X76517785Y-161847345D01*
X76517785Y-161847343D01*
X76454942Y-161724008D01*
X76424854Y-161664957D01*
X76417123Y-161654316D01*
X76304538Y-161499353D01*
X76159780Y-161354595D01*
X75994180Y-161234282D01*
X75994179Y-161234281D01*
X75994177Y-161234280D01*
X75937220Y-161205258D01*
X75811790Y-161141348D01*
X75617101Y-161078089D01*
X75436594Y-161049500D01*
X75414919Y-161046067D01*
X75210215Y-161046067D01*
X75188540Y-161049500D01*
X75008032Y-161078089D01*
X74813343Y-161141348D01*
X74630953Y-161234282D01*
X74465353Y-161354595D01*
X74320595Y-161499353D01*
X74200282Y-161664953D01*
X74107348Y-161847343D01*
X74044089Y-162042032D01*
X74012067Y-162244215D01*
X67400000Y-162244215D01*
X67400000Y-159451361D01*
X67419685Y-159384322D01*
X67436314Y-159363685D01*
X68066873Y-158733126D01*
X68128192Y-158699644D01*
X68197883Y-158704628D01*
X68253817Y-158746499D01*
X68261282Y-158757689D01*
X68312716Y-158844660D01*
X68312723Y-158844669D01*
X68428929Y-158960875D01*
X68428933Y-158960878D01*
X68428935Y-158960880D01*
X68570402Y-159044543D01*
X68590906Y-159050500D01*
X68728226Y-159090396D01*
X68728229Y-159090396D01*
X68728231Y-159090397D01*
X68765106Y-159093299D01*
X68765114Y-159093299D01*
X70196486Y-159093299D01*
X70196494Y-159093299D01*
X70233369Y-159090397D01*
X70233371Y-159090396D01*
X70233373Y-159090396D01*
X70274991Y-159078304D01*
X70391198Y-159044543D01*
X70438839Y-159016367D01*
X70506562Y-158999184D01*
X70549415Y-159008538D01*
X70581087Y-159021658D01*
X70581089Y-159021658D01*
X70581091Y-159021659D01*
X70726079Y-159050500D01*
X70726082Y-159050500D01*
X70873920Y-159050500D01*
X70971462Y-159031096D01*
X71018913Y-159021658D01*
X71155495Y-158965084D01*
X71278416Y-158882951D01*
X71382951Y-158778416D01*
X71465084Y-158655495D01*
X71521658Y-158518913D01*
X71550500Y-158373918D01*
X71550500Y-158226082D01*
X71550500Y-158226079D01*
X71521659Y-158081092D01*
X71521658Y-158081091D01*
X71521658Y-158081087D01*
X71482136Y-157985672D01*
X71465087Y-157944511D01*
X71465080Y-157944498D01*
X71382951Y-157821584D01*
X71382948Y-157821580D01*
X71278419Y-157717051D01*
X71278415Y-157717048D01*
X71155501Y-157634919D01*
X71155488Y-157634912D01*
X71018917Y-157578343D01*
X71018907Y-157578340D01*
X70873920Y-157549500D01*
X70873918Y-157549500D01*
X70726082Y-157549500D01*
X70726080Y-157549500D01*
X70581088Y-157578341D01*
X70581082Y-157578343D01*
X70563730Y-157585530D01*
X70494261Y-157592996D01*
X70453162Y-157577700D01*
X70425299Y-157561222D01*
X70391198Y-157541055D01*
X70391196Y-157541054D01*
X70391194Y-157541053D01*
X70233373Y-157495201D01*
X70233367Y-157495200D01*
X70196501Y-157492299D01*
X70196494Y-157492299D01*
X68765106Y-157492299D01*
X68765098Y-157492299D01*
X68728232Y-157495200D01*
X68728229Y-157495201D01*
X68694892Y-157504886D01*
X68625022Y-157504685D01*
X68566353Y-157466742D01*
X68537511Y-157403103D01*
X68536299Y-157385809D01*
X68536300Y-156451869D01*
X68536300Y-156303893D01*
X68536299Y-156303879D01*
X68536299Y-155424000D01*
X68555984Y-155356961D01*
X68608788Y-155311206D01*
X68660299Y-155300000D01*
X70057974Y-155300000D01*
X70074317Y-155304799D01*
X70091348Y-155304576D01*
X70107145Y-155314438D01*
X70125013Y-155319685D01*
X70136494Y-155332761D01*
X70150615Y-155341577D01*
X70164572Y-155364739D01*
X70170084Y-155371016D01*
X70172312Y-155375731D01*
X70176416Y-155386715D01*
X70184442Y-155401396D01*
X70186001Y-155404695D01*
X70186074Y-155405161D01*
X70187922Y-155408966D01*
X70194783Y-155425031D01*
X70203284Y-155444931D01*
X70211020Y-155457650D01*
X70211025Y-155457657D01*
X70215655Y-155463550D01*
X70224881Y-155477035D01*
X70295894Y-155597113D01*
X70299399Y-155602949D01*
X70299744Y-155603515D01*
X70310944Y-155617942D01*
X70315774Y-155630232D01*
X70341008Y-155661241D01*
X70361749Y-155686730D01*
X70413470Y-155741413D01*
X70442566Y-155761144D01*
X70497003Y-155805569D01*
X70530908Y-155821053D01*
X70532551Y-155822167D01*
X70535254Y-155823483D01*
X70535257Y-155823485D01*
X70595363Y-155852752D01*
X70595378Y-155852758D01*
X70595390Y-155852764D01*
X70605035Y-155855856D01*
X70606865Y-155856458D01*
X70612897Y-155858495D01*
X70627881Y-155865339D01*
X70651813Y-155872366D01*
X70652006Y-155871707D01*
X70668195Y-155877176D01*
X70694684Y-155884955D01*
X70695393Y-155885165D01*
X70698878Y-155886211D01*
X70699024Y-155886228D01*
X70701131Y-155886847D01*
X70701071Y-155887050D01*
X70704196Y-155887650D01*
X70732397Y-155896691D01*
X70732398Y-155896691D01*
X70732401Y-155896692D01*
X70777782Y-155897811D01*
X70792371Y-155899034D01*
X70837335Y-155905500D01*
X70837337Y-155905500D01*
X74285990Y-155905500D01*
X74286000Y-155905500D01*
X74393456Y-155893947D01*
X74444967Y-155882741D01*
X74480291Y-155870984D01*
X74547497Y-155848616D01*
X74547501Y-155848613D01*
X74547504Y-155848613D01*
X74668543Y-155770825D01*
X74713018Y-155732287D01*
X74776572Y-155703262D01*
X74794220Y-155702000D01*
X74950000Y-155702000D01*
X81500000Y-149152000D01*
X81500000Y-149050000D01*
X82250000Y-149050000D01*
X87398638Y-149050000D01*
X87465677Y-149069685D01*
G37*
%TD.AperFunction*%
%TD*%
%TA.AperFunction,Conductor*%
%TO.N,PGND*%
G36*
X34403039Y-138219685D02*
G01*
X34448794Y-138272489D01*
X34460000Y-138324000D01*
X34460000Y-140276000D01*
X34440315Y-140343039D01*
X34387511Y-140388794D01*
X34336000Y-140400000D01*
X32584000Y-140400000D01*
X32516961Y-140380315D01*
X32471206Y-140327511D01*
X32460000Y-140276000D01*
X32460000Y-138324000D01*
X32479685Y-138256961D01*
X32532489Y-138211206D01*
X32584000Y-138200000D01*
X34336000Y-138200000D01*
X34403039Y-138219685D01*
G37*
%TD.AperFunction*%
%TD*%
%TA.AperFunction,Conductor*%
%TO.N,AGND*%
G36*
X50565677Y-124194685D02*
G01*
X50586319Y-124211319D01*
X50788681Y-124413680D01*
X50822166Y-124475003D01*
X50825000Y-124501361D01*
X50825000Y-128773638D01*
X50805315Y-128840677D01*
X50788681Y-128861319D01*
X50436319Y-129213681D01*
X50374996Y-129247166D01*
X50348638Y-129250000D01*
X49126362Y-129250000D01*
X49096921Y-129241355D01*
X49066935Y-129234832D01*
X49061919Y-129231077D01*
X49059323Y-129230315D01*
X49038681Y-129213681D01*
X49036319Y-129211319D01*
X49002834Y-129149996D01*
X49000000Y-129123638D01*
X49000000Y-124299000D01*
X49019685Y-124231961D01*
X49072489Y-124186206D01*
X49124000Y-124175000D01*
X50498638Y-124175000D01*
X50565677Y-124194685D01*
G37*
%TD.AperFunction*%
%TD*%
%TA.AperFunction,Conductor*%
%TO.N,/AWG/2421_SW*%
G36*
X61998454Y-158200641D02*
G01*
X62006855Y-158201500D01*
X62553544Y-158201499D01*
X62561934Y-158200642D01*
X62574536Y-158200000D01*
X64476000Y-158200000D01*
X64543039Y-158219685D01*
X64588794Y-158272489D01*
X64600000Y-158324000D01*
X64600000Y-164676000D01*
X64580315Y-164743039D01*
X64527511Y-164788794D01*
X64476000Y-164800000D01*
X59524000Y-164800000D01*
X59456961Y-164780315D01*
X59411206Y-164727511D01*
X59400000Y-164676000D01*
X59400000Y-160651362D01*
X59419685Y-160584323D01*
X59436319Y-160563681D01*
X61763681Y-158236319D01*
X61790608Y-158221615D01*
X61816427Y-158205023D01*
X61822627Y-158204131D01*
X61825004Y-158202834D01*
X61851362Y-158200000D01*
X61985854Y-158200000D01*
X61998454Y-158200641D01*
G37*
%TD.AperFunction*%
%TD*%
%TA.AperFunction,Conductor*%
%TO.N,PGND*%
G36*
X63014553Y-143080024D02*
G01*
X63031570Y-143085021D01*
X63031576Y-143085021D01*
X63031580Y-143085023D01*
X63031584Y-143085024D01*
X63174000Y-143105500D01*
X64239254Y-143105500D01*
X64268694Y-143114144D01*
X64298681Y-143120668D01*
X64303696Y-143124422D01*
X64306293Y-143125185D01*
X64326935Y-143141819D01*
X64458181Y-143273065D01*
X64491666Y-143334388D01*
X64494500Y-143360746D01*
X64494500Y-143398640D01*
X64497397Y-143452688D01*
X64497397Y-143452689D01*
X64500229Y-143479022D01*
X64500232Y-143479049D01*
X64508885Y-143532445D01*
X64508885Y-143532447D01*
X64559166Y-143667252D01*
X64559168Y-143667257D01*
X64582503Y-143709992D01*
X64592652Y-143728578D01*
X64595043Y-143732298D01*
X64593258Y-143733445D01*
X64614679Y-143790799D01*
X64614999Y-143799701D01*
X64614999Y-145151000D01*
X64595314Y-145218039D01*
X64542510Y-145263794D01*
X64490999Y-145275000D01*
X62739000Y-145275000D01*
X62671961Y-145255315D01*
X62626206Y-145202511D01*
X62615000Y-145151000D01*
X62615000Y-143199000D01*
X62617550Y-143190314D01*
X62616262Y-143181353D01*
X62627240Y-143157312D01*
X62634685Y-143131961D01*
X62641525Y-143126033D01*
X62645287Y-143117797D01*
X62667521Y-143103507D01*
X62687489Y-143086206D01*
X62698003Y-143083918D01*
X62704065Y-143080023D01*
X62739000Y-143075000D01*
X62979616Y-143075000D01*
X63014553Y-143080024D01*
G37*
%TD.AperFunction*%
%TD*%
%TA.AperFunction,Conductor*%
%TO.N,PGND*%
G36*
X62203039Y-145919685D02*
G01*
X62248794Y-145972489D01*
X62260000Y-146024000D01*
X62260000Y-147877851D01*
X62240315Y-147944890D01*
X62187511Y-147990645D01*
X62118355Y-148000589D01*
X62076003Y-147994500D01*
X62076000Y-147994500D01*
X60860746Y-147994500D01*
X60793707Y-147974815D01*
X60773065Y-147958181D01*
X60296319Y-147481435D01*
X60262834Y-147420112D01*
X60260000Y-147393754D01*
X60260000Y-146024000D01*
X60279685Y-145956961D01*
X60332489Y-145911206D01*
X60384000Y-145900000D01*
X62136000Y-145900000D01*
X62203039Y-145919685D01*
G37*
%TD.AperFunction*%
%TD*%
%TA.AperFunction,Conductor*%
%TO.N,PGND*%
G36*
X37003039Y-138219685D02*
G01*
X37048794Y-138272489D01*
X37060000Y-138324000D01*
X37060000Y-140276000D01*
X37040315Y-140343039D01*
X36987511Y-140388794D01*
X36936000Y-140400000D01*
X35184000Y-140400000D01*
X35116961Y-140380315D01*
X35071206Y-140327511D01*
X35060000Y-140276000D01*
X35060000Y-138324000D01*
X35079685Y-138256961D01*
X35132489Y-138211206D01*
X35184000Y-138200000D01*
X36936000Y-138200000D01*
X37003039Y-138219685D01*
G37*
%TD.AperFunction*%
%TD*%
%TA.AperFunction,Conductor*%
%TO.N,-13V*%
G36*
X37226742Y-140915261D02*
G01*
X37258026Y-140977736D01*
X37260000Y-140999771D01*
X37260000Y-143241195D01*
X37240315Y-143308234D01*
X37235267Y-143315506D01*
X37203704Y-143357668D01*
X37203702Y-143357671D01*
X37153408Y-143492517D01*
X37152604Y-143500000D01*
X35060000Y-143500000D01*
X35060000Y-141029500D01*
X35079685Y-140962461D01*
X35132489Y-140916706D01*
X35184000Y-140905500D01*
X36935990Y-140905500D01*
X36936000Y-140905500D01*
X37043456Y-140893947D01*
X37094967Y-140882741D01*
X37096823Y-140882122D01*
X37097281Y-140882106D01*
X37098173Y-140881862D01*
X37098230Y-140882072D01*
X37166648Y-140879618D01*
X37226742Y-140915261D01*
G37*
%TD.AperFunction*%
%TD*%
%TA.AperFunction,Conductor*%
%TO.N,-13V*%
G36*
X48603039Y-141019685D02*
G01*
X48648794Y-141072489D01*
X48660000Y-141124000D01*
X48660000Y-143241195D01*
X48640315Y-143308234D01*
X48635267Y-143315506D01*
X48603704Y-143357668D01*
X48603702Y-143357671D01*
X48553408Y-143492517D01*
X48547001Y-143552116D01*
X48547000Y-143552135D01*
X48547000Y-143597000D01*
X48500000Y-143550000D01*
X46600000Y-143550000D01*
X46460000Y-143690000D01*
X46460000Y-141124000D01*
X46479685Y-141056961D01*
X46532489Y-141011206D01*
X46584000Y-141000000D01*
X48536000Y-141000000D01*
X48603039Y-141019685D01*
G37*
%TD.AperFunction*%
%TD*%
%TA.AperFunction,Conductor*%
%TO.N,+13V*%
G36*
X55675000Y-157450000D02*
G01*
X55900000Y-157675000D01*
X57000000Y-157675000D01*
X57000000Y-164476000D01*
X56980315Y-164543039D01*
X56927511Y-164588794D01*
X56876000Y-164600000D01*
X52724000Y-164600000D01*
X52656961Y-164580315D01*
X52611206Y-164527511D01*
X52600000Y-164476000D01*
X52600000Y-155924000D01*
X52619685Y-155856961D01*
X52672489Y-155811206D01*
X52724000Y-155800000D01*
X55675000Y-155800000D01*
X55675000Y-157450000D01*
G37*
%TD.AperFunction*%
%TD*%
%TA.AperFunction,Conductor*%
%TO.N,PGND*%
G36*
X35250793Y-148619685D02*
G01*
X35271435Y-148636319D01*
X35358181Y-148723065D01*
X35391666Y-148784388D01*
X35394500Y-148810746D01*
X35394500Y-149048640D01*
X35397396Y-149102661D01*
X35397399Y-149102702D01*
X35399289Y-149120271D01*
X35400000Y-149133531D01*
X35400000Y-152476000D01*
X35380315Y-152543039D01*
X35327511Y-152588794D01*
X35276000Y-152600000D01*
X31924000Y-152600000D01*
X31856961Y-152580315D01*
X31811206Y-152527511D01*
X31800000Y-152476000D01*
X31800000Y-148724000D01*
X31819685Y-148656961D01*
X31872489Y-148611206D01*
X31924000Y-148600000D01*
X35183754Y-148600000D01*
X35250793Y-148619685D01*
G37*
%TD.AperFunction*%
%TD*%
%TA.AperFunction,Conductor*%
%TO.N,+12VLDO*%
G36*
X66615677Y-140494685D02*
G01*
X66636319Y-140511319D01*
X66988681Y-140863681D01*
X67022166Y-140925004D01*
X67025000Y-140951362D01*
X67025000Y-143623638D01*
X67016355Y-143653078D01*
X67009832Y-143683065D01*
X67006077Y-143688080D01*
X67005315Y-143690677D01*
X66988681Y-143711319D01*
X66886319Y-143813681D01*
X66824996Y-143847166D01*
X66798638Y-143850000D01*
X65451362Y-143850000D01*
X65384323Y-143830315D01*
X65363681Y-143813681D01*
X65036319Y-143486319D01*
X65002834Y-143424996D01*
X65000000Y-143398638D01*
X65000000Y-143100000D01*
X64500000Y-142600000D01*
X63174000Y-142600000D01*
X63106961Y-142580315D01*
X63061206Y-142527511D01*
X63056672Y-142506672D01*
X63050000Y-142500000D01*
X63050000Y-141100000D01*
X63060958Y-141089041D01*
X63069685Y-141059323D01*
X63086319Y-141038681D01*
X63613681Y-140511319D01*
X63675004Y-140477834D01*
X63701362Y-140475000D01*
X66548638Y-140475000D01*
X66615677Y-140494685D01*
G37*
%TD.AperFunction*%
%TD*%
%TA.AperFunction,Conductor*%
%TO.N,/AWG/2421_SW*%
G36*
X51315677Y-159969685D02*
G01*
X51336319Y-159986319D01*
X51863681Y-160513681D01*
X51897166Y-160575004D01*
X51900000Y-160601362D01*
X51900000Y-164126000D01*
X51880315Y-164193039D01*
X51827511Y-164238794D01*
X51776000Y-164250000D01*
X49174000Y-164250000D01*
X49106961Y-164230315D01*
X49061206Y-164177511D01*
X49050000Y-164126000D01*
X49050000Y-160326362D01*
X49069685Y-160259323D01*
X49086319Y-160238681D01*
X49338681Y-159986319D01*
X49400004Y-159952834D01*
X49426362Y-159950000D01*
X51248638Y-159950000D01*
X51315677Y-159969685D01*
G37*
%TD.AperFunction*%
%TD*%
%TA.AperFunction,Conductor*%
%TO.N,PGND*%
G36*
X83328039Y-145169685D02*
G01*
X83373794Y-145222489D01*
X83385000Y-145274000D01*
X83385000Y-147226000D01*
X83365315Y-147293039D01*
X83312511Y-147338794D01*
X83261000Y-147350000D01*
X81509001Y-147350000D01*
X81441962Y-147330315D01*
X81396207Y-147277511D01*
X81385001Y-147226000D01*
X81385001Y-145274000D01*
X81404686Y-145206961D01*
X81457490Y-145161206D01*
X81509001Y-145150000D01*
X83261000Y-145150000D01*
X83328039Y-145169685D01*
G37*
%TD.AperFunction*%
%TD*%
%TA.AperFunction,Conductor*%
%TO.N,-5V_LDO*%
G36*
X44558494Y-141000410D02*
G01*
X44558498Y-141000339D01*
X44561630Y-141000497D01*
X44561655Y-141000500D01*
X45158344Y-141000499D01*
X45158350Y-141000498D01*
X45161499Y-141000338D01*
X45161502Y-141000409D01*
X45169547Y-141000000D01*
X45830500Y-141000000D01*
X45897539Y-141019685D01*
X45943294Y-141072489D01*
X45954500Y-141124000D01*
X45954500Y-143438127D01*
X45934815Y-143505166D01*
X45927056Y-143515928D01*
X45926076Y-143517143D01*
X45894433Y-143561025D01*
X45834663Y-143691899D01*
X45814976Y-143758944D01*
X45794500Y-143901363D01*
X45794500Y-144078054D01*
X45799588Y-144149206D01*
X45799589Y-144149215D01*
X45799645Y-144149995D01*
X45800350Y-144154899D01*
X45800373Y-144155070D01*
X45804664Y-144184911D01*
X45804669Y-144184938D01*
X45805598Y-144189210D01*
X45805599Y-144189210D01*
X45806447Y-144193106D01*
X45806422Y-144193111D01*
X45806791Y-144195441D01*
X45808547Y-144202759D01*
X45808829Y-144204055D01*
X45820025Y-144255491D01*
X45822125Y-144261798D01*
X45822077Y-144261813D01*
X45822912Y-144263980D01*
X45824270Y-144268252D01*
X45825309Y-144272576D01*
X45841236Y-144321597D01*
X45841391Y-144322084D01*
X45841397Y-144322359D01*
X45845696Y-144340266D01*
X45865974Y-144468286D01*
X45867501Y-144487685D01*
X45867501Y-144712313D01*
X45865974Y-144731712D01*
X45845697Y-144859728D01*
X45841156Y-144878645D01*
X45825311Y-144927413D01*
X45825305Y-144927433D01*
X45806793Y-145004544D01*
X45806788Y-145004569D01*
X45800722Y-145042872D01*
X45800722Y-145042880D01*
X45794500Y-145121937D01*
X45794500Y-145272192D01*
X45774815Y-145339231D01*
X45722011Y-145384986D01*
X45685076Y-145395332D01*
X45574113Y-145408465D01*
X45517826Y-145421977D01*
X45517818Y-145421979D01*
X45517810Y-145421981D01*
X45406320Y-145463110D01*
X45292403Y-145521153D01*
X45274427Y-145528599D01*
X45151155Y-145568652D01*
X45132237Y-145573194D01*
X45034139Y-145588732D01*
X45004211Y-145593473D01*
X44984814Y-145595000D01*
X44855186Y-145595000D01*
X44835789Y-145593473D01*
X44810152Y-145589412D01*
X44707765Y-145573195D01*
X44688847Y-145568653D01*
X44565573Y-145528600D01*
X44547595Y-145521154D01*
X44512237Y-145503138D01*
X44433680Y-145463111D01*
X44322185Y-145421979D01*
X44322183Y-145421978D01*
X44322179Y-145421977D01*
X44292999Y-145414972D01*
X44265891Y-145408465D01*
X44147893Y-145394500D01*
X43184000Y-145394500D01*
X43116961Y-145374815D01*
X43071206Y-145322011D01*
X43060000Y-145270500D01*
X43060000Y-141251362D01*
X43068644Y-141221921D01*
X43075168Y-141191935D01*
X43078922Y-141186919D01*
X43079685Y-141184323D01*
X43096319Y-141163681D01*
X43223681Y-141036319D01*
X43285004Y-141002834D01*
X43311362Y-141000000D01*
X44550441Y-141000000D01*
X44558494Y-141000410D01*
G37*
%TD.AperFunction*%
%TD*%
%TA.AperFunction,Conductor*%
%TO.N,PGND*%
G36*
X48403039Y-138314685D02*
G01*
X48448794Y-138367489D01*
X48460000Y-138419000D01*
X48460000Y-140371000D01*
X48440315Y-140438039D01*
X48387511Y-140483794D01*
X48336000Y-140495000D01*
X46584000Y-140495000D01*
X46516961Y-140475315D01*
X46471206Y-140422511D01*
X46460000Y-140371000D01*
X46460000Y-138419000D01*
X46479685Y-138351961D01*
X46532489Y-138306206D01*
X46584000Y-138295000D01*
X48336000Y-138295000D01*
X48403039Y-138314685D01*
G37*
%TD.AperFunction*%
%TD*%
%TA.AperFunction,Conductor*%
%TO.N,Net-(D2-A)*%
G36*
X42743039Y-153619685D02*
G01*
X42788794Y-153672489D01*
X42800000Y-153724000D01*
X42800000Y-158476000D01*
X42780315Y-158543039D01*
X42727511Y-158588794D01*
X42676000Y-158600000D01*
X39200000Y-158600000D01*
X39200000Y-163276000D01*
X39180315Y-163343039D01*
X39127511Y-163388794D01*
X39076000Y-163400000D01*
X32451362Y-163400000D01*
X32384323Y-163380315D01*
X32363681Y-163363681D01*
X31036319Y-162036319D01*
X31002834Y-161974996D01*
X31000000Y-161948638D01*
X31000000Y-155651362D01*
X31019685Y-155584323D01*
X31036319Y-155563681D01*
X32963681Y-153636319D01*
X33025004Y-153602834D01*
X33051362Y-153600000D01*
X42676000Y-153600000D01*
X42743039Y-153619685D01*
G37*
%TD.AperFunction*%
%TD*%
%TA.AperFunction,Conductor*%
%TO.N,PGND*%
G36*
X64853039Y-146094685D02*
G01*
X64898794Y-146147489D01*
X64910000Y-146199000D01*
X64910000Y-148151000D01*
X64890315Y-148218039D01*
X64837511Y-148263794D01*
X64786000Y-148275000D01*
X63034001Y-148275000D01*
X62966962Y-148255315D01*
X62921207Y-148202511D01*
X62910001Y-148151000D01*
X62910001Y-146199000D01*
X62929686Y-146131961D01*
X62982490Y-146086206D01*
X63034001Y-146075000D01*
X64786000Y-146075000D01*
X64853039Y-146094685D01*
G37*
%TD.AperFunction*%
%TD*%
%TA.AperFunction,Conductor*%
%TO.N,-12V_LDO*%
G36*
X34486365Y-140909131D02*
G01*
X34537502Y-140956741D01*
X34554782Y-141024440D01*
X34554546Y-141028846D01*
X34554500Y-141029490D01*
X34554500Y-143429735D01*
X34552123Y-143453897D01*
X34548317Y-143473053D01*
X34548315Y-143473065D01*
X34545393Y-143527834D01*
X34544855Y-143541294D01*
X34544679Y-143547903D01*
X34544500Y-143561360D01*
X34544500Y-145476000D01*
X34524815Y-145543039D01*
X34472011Y-145588794D01*
X34420500Y-145600000D01*
X32584000Y-145600000D01*
X32516961Y-145580315D01*
X32471206Y-145527511D01*
X32460000Y-145476000D01*
X32460000Y-141029500D01*
X32479685Y-140962461D01*
X32532489Y-140916706D01*
X32584000Y-140905500D01*
X34335990Y-140905500D01*
X34336000Y-140905500D01*
X34417606Y-140896726D01*
X34486365Y-140909131D01*
G37*
%TD.AperFunction*%
%TD*%
%TA.AperFunction,Conductor*%
%TO.N,+13V*%
G36*
X61600000Y-150775000D02*
G01*
X61600000Y-151499999D01*
X61600000Y-151848637D01*
X61580315Y-151915676D01*
X61563681Y-151936318D01*
X61050152Y-152449846D01*
X60988829Y-152483331D01*
X60930378Y-152481940D01*
X60849626Y-152460303D01*
X60809309Y-152449500D01*
X60690691Y-152449500D01*
X60576114Y-152480201D01*
X60576112Y-152480201D01*
X60576112Y-152480202D01*
X60473387Y-152539511D01*
X60473384Y-152539513D01*
X60389513Y-152623384D01*
X60389511Y-152623387D01*
X60330201Y-152726114D01*
X60299500Y-152840691D01*
X60299500Y-152840693D01*
X60299500Y-152959308D01*
X60331940Y-153080378D01*
X60330277Y-153150228D01*
X60299847Y-153200152D01*
X60025000Y-153475000D01*
X60025000Y-156773638D01*
X60005315Y-156840677D01*
X59988681Y-156861319D01*
X59211319Y-157638681D01*
X59149996Y-157672166D01*
X59123638Y-157675000D01*
X55900000Y-157675000D01*
X55675000Y-157450000D01*
X55675000Y-154451362D01*
X55694685Y-154384323D01*
X55711319Y-154363681D01*
X56600000Y-153475000D01*
X58000000Y-152075000D01*
X58000000Y-150700000D01*
X61525000Y-150700000D01*
X61600000Y-150775000D01*
G37*
%TD.AperFunction*%
%TD*%
%TA.AperFunction,Conductor*%
%TO.N,PGND*%
G36*
X83171502Y-143059652D02*
G01*
X83222640Y-143107262D01*
X83239999Y-143170537D01*
X83239999Y-144826000D01*
X83220314Y-144893039D01*
X83167510Y-144938794D01*
X83115999Y-144950000D01*
X81364000Y-144950000D01*
X81296961Y-144930315D01*
X81251206Y-144877511D01*
X81240000Y-144826000D01*
X81240000Y-143316245D01*
X81248644Y-143286804D01*
X81255168Y-143256818D01*
X81258922Y-143251802D01*
X81259685Y-143249206D01*
X81276319Y-143228564D01*
X81413064Y-143091819D01*
X81474387Y-143058334D01*
X81500745Y-143055500D01*
X83025990Y-143055500D01*
X83026000Y-143055500D01*
X83102746Y-143047248D01*
X83171502Y-143059652D01*
G37*
%TD.AperFunction*%
%TD*%
M02*
