%TF.GenerationSoftware,KiCad,Pcbnew,9.0.0-rc1-459-gb92bef8eee*%
%TF.CreationDate,2025-02-18T20:32:15+01:00*%
%TF.ProjectId,AWG101,41574731-3031-42e6-9b69-6361645f7063,rev?*%
%TF.SameCoordinates,Original*%
%TF.FileFunction,Soldermask,Bot*%
%TF.FilePolarity,Negative*%
%FSLAX46Y46*%
G04 Gerber Fmt 4.6, Leading zero omitted, Abs format (unit mm)*
G04 Created by KiCad (PCBNEW 9.0.0-rc1-459-gb92bef8eee) date 2025-02-18 20:32:15*
%MOMM*%
%LPD*%
G01*
G04 APERTURE LIST*
G04 Aperture macros list*
%AMRoundRect*
0 Rectangle with rounded corners*
0 $1 Rounding radius*
0 $2 $3 $4 $5 $6 $7 $8 $9 X,Y pos of 4 corners*
0 Add a 4 corners polygon primitive as box body*
4,1,4,$2,$3,$4,$5,$6,$7,$8,$9,$2,$3,0*
0 Add four circle primitives for the rounded corners*
1,1,$1+$1,$2,$3*
1,1,$1+$1,$4,$5*
1,1,$1+$1,$6,$7*
1,1,$1+$1,$8,$9*
0 Add four rect primitives between the rounded corners*
20,1,$1+$1,$2,$3,$4,$5,0*
20,1,$1+$1,$4,$5,$6,$7,0*
20,1,$1+$1,$6,$7,$8,$9,0*
20,1,$1+$1,$8,$9,$2,$3,0*%
%AMRotRect*
0 Rectangle, with rotation*
0 The origin of the aperture is its center*
0 $1 length*
0 $2 width*
0 $3 Rotation angle, in degrees counterclockwise*
0 Add horizontal line*
21,1,$1,$2,0,0,$3*%
G04 Aperture macros list end*
%ADD10R,1.700000X1.700000*%
%ADD11O,1.700000X1.700000*%
%ADD12RoundRect,0.100000X-0.637500X-0.100000X0.637500X-0.100000X0.637500X0.100000X-0.637500X0.100000X0*%
%ADD13RoundRect,0.200000X-0.200000X-0.275000X0.200000X-0.275000X0.200000X0.275000X-0.200000X0.275000X0*%
%ADD14RoundRect,0.225000X0.225000X0.250000X-0.225000X0.250000X-0.225000X-0.250000X0.225000X-0.250000X0*%
%ADD15O,2.000000X3.500000*%
%ADD16O,3.300000X2.000000*%
%ADD17R,4.000000X2.000000*%
%ADD18C,1.600000*%
%ADD19R,1.600000X1.600000*%
%ADD20RotRect,1.600000X1.600000X315.000000*%
%ADD21R,1.905000X2.000000*%
%ADD22O,1.905000X2.000000*%
%ADD23C,3.556000*%
%ADD24C,3.810000*%
G04 APERTURE END LIST*
D10*
%TO.C,J5*%
X72420000Y-98400000D03*
D11*
X74960000Y-98400000D03*
X77500000Y-98400000D03*
X80040000Y-98400000D03*
X82580000Y-98400000D03*
X85120000Y-98400000D03*
%TD*%
D12*
%TO.C,U4*%
X81637500Y-118775000D03*
X81637500Y-118125000D03*
X81637500Y-117475000D03*
X81637500Y-116825000D03*
X87362500Y-116825000D03*
X87362500Y-117475000D03*
X87362500Y-118125000D03*
X87362500Y-118775000D03*
%TD*%
D13*
%TO.C,R3*%
X83475000Y-120300000D03*
X85125000Y-120300000D03*
%TD*%
D14*
%TO.C,C56*%
X85375000Y-115200000D03*
X83825000Y-115200000D03*
%TD*%
D15*
%TO.C,J3*%
X89050000Y-163300000D03*
X80050000Y-163300000D03*
D16*
X84550000Y-162300000D03*
D17*
X84550000Y-156300000D03*
D18*
X84550000Y-165300000D03*
%TD*%
D19*
%TO.C,C18*%
X47545103Y-156704897D03*
D18*
X47545103Y-154204897D03*
%TD*%
D19*
%TO.C,C32*%
X86967621Y-151200000D03*
D18*
X89467621Y-151200000D03*
%TD*%
D20*
%TO.C,C41*%
X73544800Y-160578800D03*
D18*
X75312567Y-162346567D03*
%TD*%
D19*
%TO.C,C17*%
X40582380Y-162400000D03*
D18*
X38082380Y-162400000D03*
%TD*%
D19*
%TO.C,C16*%
X54647200Y-156731980D03*
D18*
X54647200Y-154231980D03*
%TD*%
D21*
%TO.C,U15*%
X38600000Y-144600000D03*
D22*
X36060000Y-144600000D03*
X33520001Y-144600000D03*
%TD*%
D21*
%TO.C,U10*%
X50000000Y-144600000D03*
D22*
X47460000Y-144600000D03*
X44920001Y-144600000D03*
%TD*%
D23*
%TO.C,J1*%
X36250000Y-102250000D03*
D24*
X33075000Y-99075000D03*
X33075000Y-105425000D03*
X39425000Y-99075000D03*
X39425000Y-105425000D03*
%TD*%
M02*
