%TF.GenerationSoftware,KiCad,Pcbnew,9.0.0-rc1-459-gb92bef8eee*%
%TF.CreationDate,2025-02-18T20:32:15+01:00*%
%TF.ProjectId,AWG101,41574731-3031-42e6-9b69-6361645f7063,rev?*%
%TF.SameCoordinates,Original*%
%TF.FileFunction,Soldermask,Top*%
%TF.FilePolarity,Negative*%
%FSLAX46Y46*%
G04 Gerber Fmt 4.6, Leading zero omitted, Abs format (unit mm)*
G04 Created by KiCad (PCBNEW 9.0.0-rc1-459-gb92bef8eee) date 2025-02-18 20:32:15*
%MOMM*%
%LPD*%
G01*
G04 APERTURE LIST*
G04 Aperture macros list*
%AMRoundRect*
0 Rectangle with rounded corners*
0 $1 Rounding radius*
0 $2 $3 $4 $5 $6 $7 $8 $9 X,Y pos of 4 corners*
0 Add a 4 corners polygon primitive as box body*
4,1,4,$2,$3,$4,$5,$6,$7,$8,$9,$2,$3,0*
0 Add four circle primitives for the rounded corners*
1,1,$1+$1,$2,$3*
1,1,$1+$1,$4,$5*
1,1,$1+$1,$6,$7*
1,1,$1+$1,$8,$9*
0 Add four rect primitives between the rounded corners*
20,1,$1+$1,$2,$3,$4,$5,0*
20,1,$1+$1,$4,$5,$6,$7,0*
20,1,$1+$1,$6,$7,$8,$9,0*
20,1,$1+$1,$8,$9,$2,$3,0*%
%AMRotRect*
0 Rectangle, with rotation*
0 The origin of the aperture is its center*
0 $1 length*
0 $2 width*
0 $3 Rotation angle, in degrees counterclockwise*
0 Add horizontal line*
21,1,$1,$2,0,0,$3*%
G04 Aperture macros list end*
%ADD10R,1.700000X1.700000*%
%ADD11O,1.700000X1.700000*%
%ADD12RoundRect,0.200000X0.200000X0.275000X-0.200000X0.275000X-0.200000X-0.275000X0.200000X-0.275000X0*%
%ADD13O,2.000000X3.500000*%
%ADD14O,3.300000X2.000000*%
%ADD15R,4.000000X2.000000*%
%ADD16C,1.600000*%
%ADD17RoundRect,0.100000X0.637500X0.100000X-0.637500X0.100000X-0.637500X-0.100000X0.637500X-0.100000X0*%
%ADD18RoundRect,0.150000X-0.737500X-0.150000X0.737500X-0.150000X0.737500X0.150000X-0.737500X0.150000X0*%
%ADD19R,2.400000X3.100000*%
%ADD20R,2.410000X3.100000*%
%ADD21RoundRect,0.150000X0.650000X0.150000X-0.650000X0.150000X-0.650000X-0.150000X0.650000X-0.150000X0*%
%ADD22RoundRect,0.250000X-0.625000X0.312500X-0.625000X-0.312500X0.625000X-0.312500X0.625000X0.312500X0*%
%ADD23RoundRect,0.200000X-0.275000X0.200000X-0.275000X-0.200000X0.275000X-0.200000X0.275000X0.200000X0*%
%ADD24RoundRect,0.250000X-1.425000X0.362500X-1.425000X-0.362500X1.425000X-0.362500X1.425000X0.362500X0*%
%ADD25RoundRect,0.225000X-0.225000X-0.250000X0.225000X-0.250000X0.225000X0.250000X-0.225000X0.250000X0*%
%ADD26RoundRect,0.225000X-0.250000X0.225000X-0.250000X-0.225000X0.250000X-0.225000X0.250000X0.225000X0*%
%ADD27RoundRect,0.225000X0.250000X-0.225000X0.250000X0.225000X-0.250000X0.225000X-0.250000X-0.225000X0*%
%ADD28RoundRect,0.225000X0.225000X0.250000X-0.225000X0.250000X-0.225000X-0.250000X0.225000X-0.250000X0*%
%ADD29RoundRect,0.218750X0.218750X0.256250X-0.218750X0.256250X-0.218750X-0.256250X0.218750X-0.256250X0*%
%ADD30RoundRect,0.200000X-0.200000X-0.275000X0.200000X-0.275000X0.200000X0.275000X-0.200000X0.275000X0*%
%ADD31RoundRect,0.250000X1.000000X-1.400000X1.000000X1.400000X-1.000000X1.400000X-1.000000X-1.400000X0*%
%ADD32RoundRect,0.200000X0.275000X-0.200000X0.275000X0.200000X-0.275000X0.200000X-0.275000X-0.200000X0*%
%ADD33RoundRect,0.250000X0.362500X1.425000X-0.362500X1.425000X-0.362500X-1.425000X0.362500X-1.425000X0*%
%ADD34RoundRect,0.250000X-1.400000X-1.000000X1.400000X-1.000000X1.400000X1.000000X-1.400000X1.000000X0*%
%ADD35RoundRect,0.200000X0.250000X-0.200000X0.250000X0.200000X-0.250000X0.200000X-0.250000X-0.200000X0*%
%ADD36RoundRect,0.375000X-0.375000X0.625000X-0.375000X-0.625000X0.375000X-0.625000X0.375000X0.625000X0*%
%ADD37RoundRect,0.500000X-1.400000X0.500000X-1.400000X-0.500000X1.400000X-0.500000X1.400000X0.500000X0*%
%ADD38R,1.600000X1.600000*%
%ADD39RoundRect,0.250000X1.400000X1.000000X-1.400000X1.000000X-1.400000X-1.000000X1.400000X-1.000000X0*%
%ADD40RoundRect,0.150000X0.512500X0.150000X-0.512500X0.150000X-0.512500X-0.150000X0.512500X-0.150000X0*%
%ADD41RoundRect,0.375000X0.375000X-0.625000X0.375000X0.625000X-0.375000X0.625000X-0.375000X-0.625000X0*%
%ADD42RoundRect,0.500000X1.400000X-0.500000X1.400000X0.500000X-1.400000X0.500000X-1.400000X-0.500000X0*%
%ADD43RoundRect,0.250000X1.425000X-0.362500X1.425000X0.362500X-1.425000X0.362500X-1.425000X-0.362500X0*%
%ADD44RotRect,1.600000X1.600000X315.000000*%
%ADD45R,1.905000X2.000000*%
%ADD46O,1.905000X2.000000*%
%ADD47RoundRect,0.307500X-0.717500X2.342500X-0.717500X-2.342500X0.717500X-2.342500X0.717500X2.342500X0*%
%ADD48RoundRect,0.218750X-0.218750X-0.256250X0.218750X-0.256250X0.218750X0.256250X-0.218750X0.256250X0*%
%ADD49RoundRect,0.075000X0.075000X-0.725000X0.075000X0.725000X-0.075000X0.725000X-0.075000X-0.725000X0*%
%ADD50RoundRect,0.075000X0.725000X-0.075000X0.725000X0.075000X-0.725000X0.075000X-0.725000X-0.075000X0*%
%ADD51C,3.556000*%
%ADD52C,3.810000*%
G04 APERTURE END LIST*
D10*
%TO.C,J5*%
X72420000Y-98400000D03*
D11*
X74960000Y-98400000D03*
X77500000Y-98400000D03*
X80040000Y-98400000D03*
X82580000Y-98400000D03*
X85120000Y-98400000D03*
%TD*%
D12*
%TO.C,R7*%
X81325000Y-130000000D03*
X79675000Y-130000000D03*
%TD*%
D13*
%TO.C,J3*%
X89050000Y-163300000D03*
X80050000Y-163300000D03*
D14*
X84550000Y-162300000D03*
D15*
X84550000Y-156300000D03*
D16*
X84550000Y-165300000D03*
%TD*%
D17*
%TO.C,U3*%
X53875000Y-122450000D03*
X53875000Y-121800000D03*
X53875000Y-121150000D03*
X53875000Y-120500000D03*
X53875000Y-119850000D03*
X53875000Y-119200000D03*
X53875000Y-118550000D03*
X53875000Y-117900000D03*
X53875000Y-117250000D03*
X53875000Y-116600000D03*
X53875000Y-115950000D03*
X53875000Y-115300000D03*
X53875000Y-114650000D03*
X53875000Y-114000000D03*
X59600000Y-114000000D03*
X59600000Y-114650000D03*
X59600000Y-115300000D03*
X59600000Y-115950000D03*
X59600000Y-116600000D03*
X59600000Y-117250000D03*
X59600000Y-117900000D03*
X59600000Y-118550000D03*
X59600000Y-119200000D03*
X59600000Y-119850000D03*
X59600000Y-120500000D03*
X59600000Y-121150000D03*
X59600000Y-121800000D03*
X59600000Y-122450000D03*
%TD*%
D18*
%TO.C,U5*%
X42062501Y-111465000D03*
X42062500Y-112735000D03*
X42062500Y-114005000D03*
X42062501Y-115275000D03*
X36937499Y-115275000D03*
X36937500Y-114005000D03*
X36937500Y-112735000D03*
X36937499Y-111465000D03*
D19*
X39500000Y-113370000D03*
%TD*%
D20*
%TO.C,U11*%
X66830800Y-156387800D03*
D21*
X64180800Y-158292799D03*
X64180800Y-157022800D03*
X64180800Y-155752800D03*
X64180800Y-154482801D03*
X69480800Y-154482801D03*
X69480800Y-155752800D03*
X69480800Y-157022800D03*
X69480800Y-158292799D03*
%TD*%
D22*
%TO.C,R46*%
X49800000Y-107737500D03*
X49800000Y-110662500D03*
%TD*%
D23*
%TO.C,R17*%
X47750000Y-122925000D03*
X47750000Y-124575000D03*
%TD*%
D24*
%TO.C,R21*%
X49000000Y-100037500D03*
X49000000Y-105962500D03*
%TD*%
D25*
%TO.C,C9*%
X86875000Y-113750000D03*
X88425000Y-113750000D03*
%TD*%
D26*
%TO.C,C15*%
X73300000Y-129550000D03*
X73300000Y-131100000D03*
%TD*%
%TO.C,C7*%
X82300000Y-141975000D03*
X82300000Y-143525000D03*
%TD*%
D12*
%TO.C,R27*%
X66875000Y-151350000D03*
X65225000Y-151350000D03*
%TD*%
D26*
%TO.C,C1*%
X51950000Y-124250000D03*
X51950000Y-125800000D03*
%TD*%
D27*
%TO.C,C28*%
X33212500Y-123775000D03*
X33212500Y-122225000D03*
%TD*%
D28*
%TO.C,C27*%
X34737500Y-125250000D03*
X33187500Y-125250000D03*
%TD*%
D29*
%TO.C,L1*%
X40750001Y-125250000D03*
X39174999Y-125250000D03*
%TD*%
D26*
%TO.C,C48*%
X63849999Y-142125000D03*
X63849999Y-143675000D03*
%TD*%
D27*
%TO.C,C26*%
X34712500Y-123775000D03*
X34712500Y-122225000D03*
%TD*%
D30*
%TO.C,R28*%
X59175000Y-155600000D03*
X60825000Y-155600000D03*
%TD*%
D26*
%TO.C,C13*%
X86900000Y-110775000D03*
X86900000Y-112325000D03*
%TD*%
D29*
%TO.C,L2*%
X37750000Y-125250000D03*
X36174998Y-125250000D03*
%TD*%
D31*
%TO.C,D1*%
X54600000Y-162356800D03*
X61400000Y-162356800D03*
%TD*%
D28*
%TO.C,C22*%
X40737500Y-126750000D03*
X39187500Y-126750000D03*
%TD*%
D25*
%TO.C,C50*%
X44225000Y-112600000D03*
X45775000Y-112600000D03*
%TD*%
D26*
%TO.C,C40*%
X36900000Y-116925000D03*
X36900000Y-118475000D03*
%TD*%
%TO.C,C4*%
X50350000Y-119425000D03*
X50350000Y-120975000D03*
%TD*%
D27*
%TO.C,C21*%
X39212500Y-123775000D03*
X39212500Y-122225000D03*
%TD*%
D32*
%TO.C,R15*%
X47250000Y-121575000D03*
X47250000Y-119925000D03*
%TD*%
D12*
%TO.C,R8*%
X33925000Y-115670000D03*
X32275000Y-115670000D03*
%TD*%
D33*
%TO.C,R30*%
X49962500Y-162400000D03*
X44037500Y-162400000D03*
%TD*%
D34*
%TO.C,D2*%
X33600000Y-151200000D03*
X33600000Y-158000000D03*
%TD*%
D27*
%TO.C,C25*%
X36212500Y-123775000D03*
X36212500Y-122225000D03*
%TD*%
D28*
%TO.C,C29*%
X69836400Y-152806400D03*
X68286400Y-152806400D03*
%TD*%
D23*
%TO.C,R4*%
X72850000Y-141125000D03*
X72850000Y-142775000D03*
%TD*%
D27*
%TO.C,C20*%
X40712500Y-123775000D03*
X40712500Y-122225000D03*
%TD*%
%TO.C,C44*%
X61200000Y-149075000D03*
X61200000Y-147525000D03*
%TD*%
D26*
%TO.C,C52*%
X42550000Y-128175000D03*
X42550000Y-129725000D03*
%TD*%
D25*
%TO.C,C37*%
X59225000Y-154000000D03*
X60775000Y-154000000D03*
%TD*%
D35*
%TO.C,X1*%
X74875000Y-130850001D03*
X76725000Y-130850001D03*
X76725000Y-129400001D03*
X74875000Y-129400001D03*
%TD*%
D28*
%TO.C,C35*%
X73375000Y-127500000D03*
X71825000Y-127500000D03*
%TD*%
D36*
%TO.C,U14*%
X70650000Y-142550000D03*
X68350000Y-142550001D03*
D37*
X68350000Y-148849999D03*
D36*
X66050000Y-142550000D03*
%TD*%
D28*
%TO.C,C14*%
X76425000Y-127500000D03*
X74875000Y-127500000D03*
%TD*%
D27*
%TO.C,C42*%
X72884400Y-156463999D03*
X72884400Y-154913999D03*
%TD*%
D38*
%TO.C,C18*%
X47545103Y-156704897D03*
D16*
X47545103Y-154204897D03*
%TD*%
D27*
%TO.C,C11*%
X67600000Y-124325000D03*
X67600000Y-122775000D03*
%TD*%
D26*
%TO.C,C12*%
X86850000Y-122825000D03*
X86850000Y-124375000D03*
%TD*%
D39*
%TO.C,D3*%
X40600000Y-157200000D03*
X40600000Y-150400000D03*
%TD*%
D12*
%TO.C,R44*%
X33925000Y-114170000D03*
X32275000Y-114170000D03*
%TD*%
D25*
%TO.C,C54*%
X47800000Y-126000000D03*
X49350000Y-126000000D03*
%TD*%
D26*
%TO.C,C43*%
X71360400Y-154927000D03*
X71360400Y-156477000D03*
%TD*%
D38*
%TO.C,C32*%
X86967621Y-151200000D03*
D16*
X89467621Y-151200000D03*
%TD*%
D40*
%TO.C,U8*%
X46137500Y-126449999D03*
X46137500Y-125500000D03*
X46137500Y-124550001D03*
X43862500Y-124550001D03*
X43862500Y-125500000D03*
X43862500Y-126449999D03*
%TD*%
D32*
%TO.C,R36*%
X72850000Y-145975000D03*
X72850000Y-144325000D03*
%TD*%
D30*
%TO.C,R32*%
X52300000Y-150950000D03*
X53950000Y-150950000D03*
%TD*%
D32*
%TO.C,R2*%
X31825000Y-112700000D03*
X31825000Y-111050000D03*
%TD*%
D41*
%TO.C,U9*%
X75500000Y-148750000D03*
X77800000Y-148749999D03*
D42*
X77800000Y-142450001D03*
D41*
X80100000Y-148750000D03*
%TD*%
D32*
%TO.C,R16*%
X45750000Y-123075000D03*
X45750000Y-121425000D03*
%TD*%
D43*
%TO.C,R22*%
X45000000Y-103962500D03*
X45000000Y-98037500D03*
%TD*%
D27*
%TO.C,C8*%
X72850000Y-108125000D03*
X72850000Y-106575000D03*
%TD*%
D26*
%TO.C,C38*%
X44860000Y-140050000D03*
X44860000Y-141600000D03*
%TD*%
%TO.C,C45*%
X61200000Y-141925000D03*
X61200000Y-143475000D03*
%TD*%
D30*
%TO.C,R9*%
X50125000Y-116400000D03*
X51775000Y-116400000D03*
%TD*%
D26*
%TO.C,C19*%
X47460000Y-140025000D03*
X47460000Y-141575000D03*
%TD*%
D12*
%TO.C,R31*%
X57050000Y-150900000D03*
X55400000Y-150900000D03*
%TD*%
D41*
%TO.C,U12*%
X54300000Y-148650000D03*
X56600000Y-148649999D03*
D42*
X56600000Y-142350001D03*
D41*
X58900000Y-148650000D03*
%TD*%
D26*
%TO.C,C39*%
X35400000Y-116925000D03*
X35400000Y-118475000D03*
%TD*%
D23*
%TO.C,R45*%
X34800000Y-111045000D03*
X34800000Y-112695000D03*
%TD*%
D28*
%TO.C,C31*%
X62280200Y-157226000D03*
X60730200Y-157226000D03*
%TD*%
D27*
%TO.C,C6*%
X82325000Y-148375000D03*
X82325000Y-146825000D03*
%TD*%
D28*
%TO.C,C24*%
X37737500Y-126750000D03*
X36187500Y-126750000D03*
%TD*%
D44*
%TO.C,C41*%
X73544800Y-160578800D03*
D16*
X75312567Y-162346567D03*
%TD*%
D25*
%TO.C,C51*%
X44225000Y-111100000D03*
X45775000Y-111100000D03*
%TD*%
D27*
%TO.C,C49*%
X63850000Y-149325000D03*
X63850000Y-147775000D03*
%TD*%
D28*
%TO.C,C33*%
X51725000Y-114900000D03*
X50175000Y-114900000D03*
%TD*%
D32*
%TO.C,R14*%
X42750000Y-121575000D03*
X42750000Y-119925000D03*
%TD*%
D38*
%TO.C,C17*%
X40582380Y-162400000D03*
D16*
X38082380Y-162400000D03*
%TD*%
D26*
%TO.C,C36*%
X78250000Y-127475000D03*
X78250000Y-129025000D03*
%TD*%
D12*
%TO.C,R5*%
X78048700Y-151043000D03*
X76398700Y-151043000D03*
%TD*%
D38*
%TO.C,C16*%
X54647200Y-156731980D03*
D16*
X54647200Y-154231980D03*
%TD*%
D45*
%TO.C,U15*%
X38600000Y-144600000D03*
D46*
X36060000Y-144600000D03*
X33520001Y-144600000D03*
%TD*%
D32*
%TO.C,R29*%
X62267199Y-155663400D03*
X62267199Y-154013400D03*
%TD*%
D28*
%TO.C,C2*%
X51875000Y-122500000D03*
X50325000Y-122500000D03*
%TD*%
D47*
%TO.C,L4*%
X69039200Y-162255200D03*
X64589200Y-162255200D03*
%TD*%
D32*
%TO.C,R11*%
X67550000Y-120225000D03*
X67550000Y-118575000D03*
%TD*%
D29*
%TO.C,L3*%
X34750001Y-126750000D03*
X33174999Y-126750000D03*
%TD*%
D32*
%TO.C,R43*%
X33300000Y-112695000D03*
X33300000Y-111045000D03*
%TD*%
D27*
%TO.C,C23*%
X37712500Y-123775000D03*
X37712500Y-122225000D03*
%TD*%
D28*
%TO.C,C30*%
X69836400Y-151333200D03*
X68286400Y-151333200D03*
%TD*%
D48*
%TO.C,FB3*%
X54774998Y-112225000D03*
X56350000Y-112225000D03*
%TD*%
D26*
%TO.C,C47*%
X33460000Y-139850000D03*
X33460000Y-141400000D03*
%TD*%
%TO.C,C46*%
X36060000Y-139850000D03*
X36060000Y-141400000D03*
%TD*%
D25*
%TO.C,C55*%
X47800000Y-127475000D03*
X49350000Y-127475000D03*
%TD*%
D26*
%TO.C,C53*%
X44050000Y-128175000D03*
X44050000Y-129725000D03*
%TD*%
D49*
%TO.C,U6*%
X71200000Y-125475000D03*
X71700000Y-125475000D03*
X72200001Y-125475000D03*
X72700000Y-125475000D03*
X73199999Y-125475000D03*
X73700000Y-125475000D03*
X74200000Y-125475000D03*
X74700001Y-125475000D03*
X75200000Y-125475000D03*
X75700000Y-125475000D03*
X76200000Y-125475000D03*
X76700000Y-125475000D03*
X77200000Y-125475001D03*
X77700000Y-125475000D03*
X78200000Y-125475000D03*
X78700000Y-125475000D03*
X79200000Y-125475000D03*
X79699999Y-125475000D03*
X80200000Y-125475000D03*
X80700000Y-125475000D03*
X81200001Y-125475000D03*
X81700000Y-125475000D03*
X82199999Y-125475000D03*
X82700000Y-125475000D03*
X83200000Y-125475000D03*
D50*
X84875000Y-123800000D03*
X84875000Y-123300000D03*
X84875000Y-122799999D03*
X84875000Y-122300000D03*
X84875000Y-121800001D03*
X84875000Y-121300000D03*
X84875000Y-120800000D03*
X84875000Y-120299999D03*
X84875000Y-119800000D03*
X84875000Y-119300000D03*
X84875000Y-118800000D03*
X84875000Y-118300000D03*
X84875001Y-117800000D03*
X84875000Y-117300000D03*
X84875000Y-116800000D03*
X84875000Y-116300000D03*
X84875000Y-115800000D03*
X84875000Y-115300001D03*
X84875000Y-114800000D03*
X84875000Y-114300000D03*
X84875000Y-113799999D03*
X84875000Y-113300000D03*
X84875000Y-112800001D03*
X84875000Y-112300000D03*
X84875000Y-111800000D03*
D49*
X83200000Y-110125000D03*
X82700000Y-110125000D03*
X82199999Y-110125000D03*
X81700000Y-110125000D03*
X81200001Y-110125000D03*
X80700000Y-110125000D03*
X80200000Y-110125000D03*
X79699999Y-110125000D03*
X79200000Y-110125000D03*
X78700000Y-110125000D03*
X78200000Y-110125000D03*
X77700000Y-110125000D03*
X77200000Y-110124999D03*
X76700000Y-110125000D03*
X76200000Y-110125000D03*
X75700000Y-110125000D03*
X75200000Y-110125000D03*
X74700001Y-110125000D03*
X74200000Y-110125000D03*
X73700000Y-110125000D03*
X73199999Y-110125000D03*
X72700000Y-110125000D03*
X72200001Y-110125000D03*
X71700000Y-110125000D03*
X71200000Y-110125000D03*
D50*
X69525000Y-111800000D03*
X69525000Y-112300000D03*
X69525000Y-112800001D03*
X69525000Y-113300000D03*
X69525000Y-113799999D03*
X69525000Y-114300000D03*
X69525000Y-114800000D03*
X69525000Y-115300001D03*
X69525000Y-115800000D03*
X69525000Y-116300000D03*
X69525000Y-116800000D03*
X69525000Y-117300000D03*
X69524999Y-117800000D03*
X69525000Y-118300000D03*
X69525000Y-118800000D03*
X69525000Y-119300000D03*
X69525000Y-119800000D03*
X69525000Y-120299999D03*
X69525000Y-120800000D03*
X69525000Y-121300000D03*
X69525000Y-121800001D03*
X69525000Y-122300000D03*
X69525000Y-122799999D03*
X69525000Y-123300000D03*
X69525000Y-123800000D03*
%TD*%
D25*
%TO.C,C34*%
X44225000Y-120000000D03*
X45775000Y-120000000D03*
%TD*%
D45*
%TO.C,U10*%
X50000000Y-144600000D03*
D46*
X47460000Y-144600000D03*
X44920001Y-144600000D03*
%TD*%
D25*
%TO.C,C10*%
X69850000Y-108125000D03*
X71400000Y-108125000D03*
%TD*%
D32*
%TO.C,R18*%
X44250000Y-123075000D03*
X44250000Y-121425000D03*
%TD*%
%TO.C,R19*%
X42200000Y-126225000D03*
X42200000Y-124575000D03*
%TD*%
D26*
%TO.C,C3*%
X51850000Y-119425000D03*
X51850000Y-120975000D03*
%TD*%
D30*
%TO.C,R6*%
X73298700Y-151043000D03*
X74948700Y-151043000D03*
%TD*%
D28*
%TO.C,C5*%
X81550000Y-127675000D03*
X80000000Y-127675000D03*
%TD*%
D51*
%TO.C,J1*%
X36250000Y-102250000D03*
D52*
X33075000Y-99075000D03*
X33075000Y-105425000D03*
X39425000Y-99075000D03*
X39425000Y-105425000D03*
%TD*%
M02*
