M48
; DRILL file {KiCad 9.0.0-rc1-459-gb92bef8eee} date 2025-02-18T20:32:17+0100
; FORMAT={-:-/ absolute / inch / decimal}
; #@! TF.CreationDate,2025-02-18T20:32:17+01:00
; #@! TF.GenerationSoftware,Kicad,Pcbnew,9.0.0-rc1-459-gb92bef8eee
; #@! TF.FileFunction,Plated,1,4,PTH
FMAT,2
INCH
; #@! TA.AperFunction,Plated,PTH,ViaDrill
T1C0.0118
; #@! TA.AperFunction,Plated,PTH,ComponentDrill
T2C0.0118
; #@! TA.AperFunction,Plated,PTH,ComponentDrill
T3C0.0315
; #@! TA.AperFunction,Plated,PTH,ComponentDrill
T4C0.0394
; #@! TA.AperFunction,Plated,PTH,ComponentDrill
T5C0.0472
; #@! TA.AperFunction,Plated,PTH,ComponentDrill
T6C0.0500
; #@! TA.AperFunction,Plated,PTH,ComponentDrill
T7C0.0600
%
G90
G05
T1
X1.2549Y-4.3278
X1.2697Y-4.6043
X1.2756Y-5.874
X1.2937Y-5.4724
X1.3071Y-4.7672
X1.313Y-4.3327
X1.3228Y-5.874
X1.3331Y-5.4724
X1.3524Y-4.6722
X1.3622Y-4.7672
X1.3622Y-5.874
X1.3701Y-4.3228
X1.375Y-4.7047
X1.4039Y-5.4724
X1.4124Y-4.7057
X1.4252Y-4.7672
X1.4433Y-5.4724
X1.4469Y-4.7077
X1.4803Y-4.7672
X1.4813Y-4.7047
X1.4931Y-4.6693
X1.5207Y-4.5817
X1.5207Y-4.6152
X1.5433Y-4.7672
X1.6029Y-4.7682
X1.6368Y-5.0463
X1.6752Y-5.1486
X1.6841Y-4.6811
X1.7165Y-4.3159
X1.7283Y-4.4882
X1.7352Y-5.1447
X1.7425Y-5.4762
X1.748Y-4.3159
X1.7677Y-4.9409
X1.7898Y-5.4762
X1.7943Y-4.3287
X1.8297Y-4.3287
X1.8465Y-4.4026
X1.8465Y-4.439
X1.8474Y-4.3661
X1.8528Y-5.4762
X1.8612Y-4.687
X1.8809Y-5.0591
X1.8921Y-5.4762
X1.9203Y-4.8396
X1.9291Y-4.7638
X1.9341Y-4.7008
X1.936Y-4.5226
X1.94Y-4.5817
X1.9419Y-4.9134
X1.9429Y-5.062
X1.9793Y-4.9587
X1.9813Y-4.8583
X1.9892Y-4.9085
X1.9911Y-5.0089
X1.997Y-5.0581
X2.0098Y-6.372
X2.0098Y-6.4065
X2.0098Y-6.4321
X2.0108Y-6.3406
X2.0217Y-5.9429
X2.0472Y-4.9961
X2.0692Y-4.4982
X2.0709Y-4.6142
X2.1033Y-4.4222
X2.2343Y-4.3799
X2.3337Y-5.5709
X2.3337Y-5.6033
X2.3563Y-6.2283
X2.3652Y-4.9478
X2.3835Y-5.6811
X2.3917Y-4.7205
X2.3917Y-6.0197
X2.3961Y-5.7756
X2.3976Y-4.3858
X2.4094Y-4.6929
X2.4154Y-4.7677
X2.4228Y-5.6811
X2.4354Y-5.7756
X2.437Y-4.5906
X2.437Y-4.8346
X2.4508Y-6.0256
X2.4685Y-4.7953
X2.4809Y-5.688
X2.4862Y-6.3986
X2.4872Y-6.4409
X2.4882Y-6.3622
X2.4921Y-4.7677
X2.5004Y-5.7825
X2.5118Y-4.8976
X2.5203Y-5.688
X2.5276Y-6.0315
X2.5398Y-5.7825
X2.5689Y-6.002
X2.5886Y-5.8868
X2.6142Y-4.6693
X2.6181Y-4.8937
X2.622Y-4.8327
X2.6299Y-5.0315
X2.6457Y-6.0157
X2.7539Y-4.2126
X2.7874Y-6.2323
X2.7996Y-6.063
X2.811Y-4.4961
X2.811Y-4.5394
X2.815Y-4.2185
X2.8169Y-4.4016
X2.8258Y-5.0679
X2.839Y-6.063
X2.8425Y-4.4291
X2.8445Y-5.0965
X2.8465Y-4.5551
X2.8494Y-5.9466
X2.8681Y-5.5118
X2.8744Y-6.063
X2.8839Y-5.1929
X2.8888Y-5.0571
X2.9055Y-4.4685
X2.9124Y-4.1969
X2.9138Y-6.063
X2.9488Y-5.0591
X3.0049Y-5.5453
X3.0069Y-5.0571
X3.0207Y-5.1969
X3.0433Y-4.2283
X3.0502Y-5.5443
X3.0591Y-4.6969
X3.0591Y-4.8593
X3.0787Y-5.126
X3.0984Y-4.3937
X3.1102Y-5.5443
X3.1181Y-4.2706
X3.1299Y-4.189
X3.1467Y-5.0689
X3.1594Y-5.5443
X3.1614Y-4.6506
X3.1732Y-4.4144
X3.2115Y-5.0717
X3.2146Y-5.5433
X3.2215Y-5.6919
X3.2254Y-5.7382
X3.252Y-5.1142
X3.2559Y-5.687
X3.2579Y-4.8632
X3.2598Y-4.5984
X3.2677Y-5.7362
X3.4567Y-4.8356
X3.4587Y-4.8976
X3.4626Y-4.3622
X3.4626Y-4.4252
X3.4961Y-4.626
X3.5187Y-4.4793
X3.5709Y-4.9528
T2
X1.5295Y-4.4122
X1.5295Y-4.5146
X1.5295Y-4.4634
X1.5807Y-4.4634
X1.5807Y-4.4122
X1.5807Y-4.5146
X2.187Y-4.7402
X2.2343Y-4.7402
X2.5935Y-6.1058
X2.5935Y-6.157
X2.5935Y-6.2082
X2.6575Y-5.2244
X2.6575Y-5.2717
X2.6687Y-6.1058
X2.6687Y-6.157
X2.6687Y-6.2082
T3
X1.4993Y-6.3937
X1.5977Y-6.3937
X1.8719Y-6.0711
X1.8719Y-6.1695
X2.1515Y-6.0721
X2.1515Y-6.1706
X2.8955Y-6.322
X2.9651Y-6.3916
X3.4239Y-5.9528
X3.5223Y-5.9528
T4
X2.8512Y-3.874
X2.9512Y-3.874
X3.0512Y-3.874
X3.1512Y-3.874
X3.2512Y-3.874
X3.3512Y-3.874
T5
X1.3197Y-5.6929
X1.4197Y-5.6929
X1.5197Y-5.6929
X1.7685Y-5.6929
X1.8685Y-5.6929
X1.9685Y-5.6929
T6
X1.4272Y-4.0256
T7
X1.3022Y-3.9006
X1.3022Y-4.1506
X1.5522Y-3.9006
X1.5522Y-4.1506
T4
G00X3.1516Y-6.3996
M15
G01X3.1516Y-6.4587
M16
G05
G00X3.2894Y-6.1535
M15
G01X3.3681Y-6.1535
M16
G05
G00X3.3031Y-6.3898
M15
G01X3.3543Y-6.3898
M16
G05
G00X3.5059Y-6.3996
M15
G01X3.5059Y-6.4587
M16
G05
M30
