%TF.GenerationSoftware,KiCad,Pcbnew,9.0.0-rc1-459-gb92bef8eee*%
%TF.CreationDate,2025-02-18T20:32:14+01:00*%
%TF.ProjectId,AWG101,41574731-3031-42e6-9b69-6361645f7063,rev?*%
%TF.SameCoordinates,Original*%
%TF.FileFunction,Copper,L2,Inr*%
%TF.FilePolarity,Positive*%
%FSLAX46Y46*%
G04 Gerber Fmt 4.6, Leading zero omitted, Abs format (unit mm)*
G04 Created by KiCad (PCBNEW 9.0.0-rc1-459-gb92bef8eee) date 2025-02-18 20:32:14*
%MOMM*%
%LPD*%
G01*
G04 APERTURE LIST*
G04 Aperture macros list*
%AMRotRect*
0 Rectangle, with rotation*
0 The origin of the aperture is its center*
0 $1 length*
0 $2 width*
0 $3 Rotation angle, in degrees counterclockwise*
0 Add horizontal line*
21,1,$1,$2,0,0,$3*%
G04 Aperture macros list end*
%TA.AperFunction,ComponentPad*%
%ADD10R,1.700000X1.700000*%
%TD*%
%TA.AperFunction,ComponentPad*%
%ADD11O,1.700000X1.700000*%
%TD*%
%TA.AperFunction,ComponentPad*%
%ADD12O,2.000000X3.500000*%
%TD*%
%TA.AperFunction,ComponentPad*%
%ADD13O,3.300000X2.000000*%
%TD*%
%TA.AperFunction,ComponentPad*%
%ADD14R,4.000000X2.000000*%
%TD*%
%TA.AperFunction,HeatsinkPad*%
%ADD15C,0.500000*%
%TD*%
%TA.AperFunction,ComponentPad*%
%ADD16R,1.600000X1.600000*%
%TD*%
%TA.AperFunction,ComponentPad*%
%ADD17C,1.600000*%
%TD*%
%TA.AperFunction,ComponentPad*%
%ADD18C,0.600000*%
%TD*%
%TA.AperFunction,ComponentPad*%
%ADD19RotRect,1.600000X1.600000X315.000000*%
%TD*%
%TA.AperFunction,ComponentPad*%
%ADD20R,1.905000X2.000000*%
%TD*%
%TA.AperFunction,ComponentPad*%
%ADD21O,1.905000X2.000000*%
%TD*%
%TA.AperFunction,ComponentPad*%
%ADD22C,3.556000*%
%TD*%
%TA.AperFunction,ComponentPad*%
%ADD23C,3.810000*%
%TD*%
%TA.AperFunction,ViaPad*%
%ADD24C,0.600000*%
%TD*%
%TA.AperFunction,ViaPad*%
%ADD25C,0.500000*%
%TD*%
G04 APERTURE END LIST*
D10*
%TO.N,+3.3VLDO*%
%TO.C,J5*%
X72420000Y-98400000D03*
D11*
%TO.N,/AWG/SWCLK*%
X74960000Y-98400000D03*
%TO.N,DGND*%
X77500000Y-98400000D03*
%TO.N,/AWG/SWDIO*%
X80040000Y-98400000D03*
%TO.N,/AWG/NRST*%
X82580000Y-98400000D03*
%TO.N,unconnected-(J5-SWO-Pad6)*%
X85120000Y-98400000D03*
%TD*%
D12*
%TO.N,N/C*%
%TO.C,J3*%
X89050000Y-163300000D03*
X80050000Y-163300000D03*
D13*
%TO.N,PGND*%
X84550000Y-162300000D03*
D14*
%TO.N,VIN*%
X84550000Y-156300000D03*
%TD*%
D15*
%TO.N,AGND*%
%TO.C,U5*%
X40150000Y-114670000D03*
X40150000Y-112070000D03*
X40149999Y-113370000D03*
X38850001Y-113370000D03*
X38850000Y-114670000D03*
X38850000Y-112070000D03*
%TD*%
%TO.N,N/C*%
%TO.C,U11*%
X65875800Y-155087800D03*
X65875800Y-156387800D03*
X65875800Y-157687800D03*
X67785800Y-155087800D03*
X67785800Y-156387800D03*
X67785800Y-157687800D03*
%TD*%
D16*
%TO.N,PGND*%
%TO.C,C18*%
X47545103Y-156704897D03*
D17*
%TO.N,-13V*%
X47545103Y-154204897D03*
%TD*%
D16*
%TO.N,VIN*%
%TO.C,C32*%
X86967621Y-151200000D03*
D17*
%TO.N,PGND*%
X89467621Y-151200000D03*
%TD*%
D18*
%TO.N,DGND*%
%TO.C,NT2*%
X67500000Y-132700000D03*
%TO.N,PGND*%
X67500000Y-133900000D03*
%TD*%
D19*
%TO.N,VIN*%
%TO.C,C41*%
X73544800Y-160578800D03*
D17*
%TO.N,PGND*%
X75312567Y-162346567D03*
%TD*%
D16*
%TO.N,Net-(C17-Pad1)*%
%TO.C,C17*%
X40582380Y-162400000D03*
D17*
%TO.N,Net-(D2-A)*%
X38082380Y-162400000D03*
%TD*%
D16*
%TO.N,+13V*%
%TO.C,C16*%
X54647200Y-156731980D03*
D17*
%TO.N,PGND*%
X54647200Y-154231980D03*
%TD*%
D20*
%TO.N,PGND*%
%TO.C,U15*%
X38600000Y-144600000D03*
D21*
%TO.N,-13V*%
X36060000Y-144600000D03*
%TO.N,-12V_LDO*%
X33520001Y-144600000D03*
%TD*%
D20*
%TO.N,PGND*%
%TO.C,U10*%
X50000000Y-144600000D03*
D21*
%TO.N,-13V*%
X47460000Y-144600000D03*
%TO.N,-5V_LDO*%
X44920001Y-144600000D03*
%TD*%
D22*
%TO.N,Net-(J1-In)*%
%TO.C,J1*%
X36250000Y-102250000D03*
D23*
%TO.N,AGND*%
X33075000Y-99075000D03*
X33075000Y-105425000D03*
X39425000Y-99075000D03*
X39425000Y-105425000D03*
%TD*%
D18*
%TO.N,DGND*%
%TO.C,NT1*%
X56750000Y-120400000D03*
%TO.N,AGND*%
X55550000Y-120400000D03*
%TD*%
D24*
%TO.N,+3.3VLDO*%
X82600000Y-129900000D03*
%TO.N,DGND*%
X78200000Y-130200000D03*
%TO.N,/AWG/PSSI_CLK*%
X90700000Y-125800000D03*
%TO.N,+3.3VLDO*%
X88800000Y-117500000D03*
X80300000Y-118125000D03*
%TO.N,/AWG/DAC_CLK*%
X63800000Y-124400000D03*
%TO.N,DGND*%
X82800000Y-116800000D03*
%TO.N,/AWG/MCO1*%
X80600000Y-112125000D03*
D25*
%TO.N,AGND*%
X50275000Y-125950000D03*
X46900000Y-111825000D03*
X34925000Y-119500000D03*
X37600000Y-121087500D03*
X42550000Y-130775000D03*
X34350000Y-118675000D03*
X33200000Y-121087500D03*
X46475000Y-109950000D03*
X46925000Y-110900000D03*
X37625000Y-119500000D03*
X36750000Y-119575000D03*
X36200000Y-121087500D03*
X49275000Y-116375000D03*
X46900000Y-112750000D03*
X49000000Y-121000000D03*
X48775000Y-122925000D03*
X47275000Y-119050000D03*
X50575000Y-127225000D03*
X49350000Y-128575000D03*
X40712500Y-121112500D03*
X34600000Y-121087500D03*
X31875000Y-109925000D03*
X37925000Y-118600000D03*
X35875000Y-119525000D03*
X50525000Y-124675000D03*
X44075000Y-130675000D03*
X33350000Y-110050000D03*
X39200000Y-121087500D03*
X42775000Y-118900000D03*
X45575000Y-109950000D03*
X49325000Y-124800000D03*
X50725000Y-128475000D03*
X52600000Y-117200000D03*
X52557343Y-114253987D03*
X79925000Y-128750000D03*
X49175000Y-114875000D03*
%TO.N,/AWG/PSSI_D8*%
X72200000Y-112500000D03*
X61200000Y-119200000D03*
%TO.N,/AWG/PSSI_D0*%
X60900000Y-111400000D03*
X77300000Y-107400000D03*
%TO.N,/AWG/PSSI_D4*%
X61900000Y-116600000D03*
X73800000Y-113500000D03*
%TO.N,/AWG/PSSI_D9*%
X60750000Y-119900000D03*
X71400000Y-114200000D03*
%TO.N,/AWG/PSSI_D10*%
X72300000Y-115700000D03*
X63300000Y-121100000D03*
%TO.N,/AWG/PSSI_D12*%
X62700000Y-121800000D03*
X79200000Y-108474265D03*
%TO.N,/AWG/PSSI_D13*%
X78700000Y-111600000D03*
X61900000Y-122800000D03*
%TO.N,/AWG/PSSI_D11*%
X61350000Y-121100000D03*
X71400000Y-115300000D03*
%TO.N,/AWG/SWCLK*%
X71550000Y-111800000D03*
X79500000Y-106400000D03*
%TO.N,+3V3A*%
X81571091Y-128821091D03*
X53425000Y-112325000D03*
X49125000Y-119400000D03*
%TO.N,PGND*%
X83000000Y-145700000D03*
X64510000Y-146875000D03*
X64200000Y-153200000D03*
X32400000Y-149200000D03*
X47060000Y-139095000D03*
X70800000Y-158300000D03*
X74010000Y-154000000D03*
X63015000Y-144475000D03*
X61860000Y-146700000D03*
X63510000Y-146875000D03*
X35660000Y-139000000D03*
X34600000Y-149200000D03*
X65250000Y-152450000D03*
X36660000Y-139000000D03*
X62250000Y-153050000D03*
X73010000Y-154000000D03*
X33860000Y-139000000D03*
X67200000Y-152800000D03*
X51350000Y-150950000D03*
X81925000Y-145750000D03*
X59850000Y-158200000D03*
X32860000Y-139000000D03*
X72850000Y-140000000D03*
X48060000Y-139095000D03*
X81825000Y-144575000D03*
X71110000Y-154000000D03*
X45460000Y-139095000D03*
X72375000Y-151043000D03*
X61540000Y-144300000D03*
X60750000Y-152900000D03*
X44260000Y-139095000D03*
X82700000Y-144450000D03*
X33600000Y-149200000D03*
X64015000Y-144475000D03*
X72110000Y-154000000D03*
X60540000Y-144300000D03*
X60860000Y-146700000D03*
%TO.N,/AWG/695_EN*%
X66800000Y-127800000D03*
X44900000Y-125500000D03*
%TO.N,/AWG/OFFSET*%
X82750000Y-123525000D03*
X32250000Y-116950000D03*
%TO.N,-12V_LDO*%
X38625000Y-117225000D03*
X38625000Y-116375000D03*
%TO.N,/AWG/2421_SW*%
X51050000Y-161850000D03*
X63175000Y-163600000D03*
X51075000Y-161050000D03*
X51050000Y-163375000D03*
X63150000Y-162525000D03*
X51050000Y-162725000D03*
X63200000Y-161600000D03*
%TO.N,Net-(R45-Pad1)*%
X43900000Y-114000000D03*
X34800000Y-109800000D03*
%TO.N,+12VLDO*%
X59275000Y-141500000D03*
X59275000Y-142325000D03*
X44400000Y-109625000D03*
X43600000Y-109625000D03*
%TO.N,+3.3VLDO*%
X66500000Y-124300000D03*
X80250000Y-140825000D03*
X87950000Y-110800000D03*
X87800000Y-122825000D03*
X69950000Y-107000000D03*
X77475000Y-140825000D03*
X79000000Y-140825000D03*
X72250000Y-129450000D03*
X76325000Y-140850000D03*
X76375000Y-128450000D03*
X73375000Y-128450000D03*
X56750000Y-111250000D03*
X81650000Y-140800000D03*
%TO.N,-5V_LDO*%
X47775000Y-128500000D03*
%TO.N,+5VLDO*%
X41575000Y-128175000D03*
X65750000Y-149525000D03*
%TO.N,DGND*%
X73250000Y-131900000D03*
X76725000Y-132000000D03*
X74900000Y-128500000D03*
X89375000Y-113775000D03*
X71775000Y-128725000D03*
X66400000Y-118600000D03*
X50325000Y-123400000D03*
X87850000Y-124400000D03*
X66600000Y-122750000D03*
X73975000Y-106600000D03*
X71500000Y-107150000D03*
X52000000Y-126900000D03*
X87950000Y-112400000D03*
%TO.N,+3.3VLDO*%
X60075000Y-125675000D03*
%TO.N,/AWG/NRST*%
X77700000Y-119300000D03*
X77700000Y-123425000D03*
%TD*%
%TA.AperFunction,Conductor*%
%TO.N,DGND*%
G36*
X91293039Y-96569685D02*
G01*
X91338794Y-96622489D01*
X91350000Y-96674000D01*
X91350000Y-125462058D01*
X91330315Y-125529097D01*
X91277511Y-125574852D01*
X91208353Y-125584796D01*
X91144797Y-125555771D01*
X91118613Y-125524059D01*
X91100500Y-125492686D01*
X91007314Y-125399500D01*
X90950250Y-125366554D01*
X90893187Y-125333608D01*
X90821914Y-125314511D01*
X90765892Y-125299500D01*
X90634108Y-125299500D01*
X90506812Y-125333608D01*
X90392686Y-125399500D01*
X90392683Y-125399502D01*
X90299502Y-125492683D01*
X90299500Y-125492686D01*
X90233608Y-125606812D01*
X90199500Y-125734108D01*
X90199500Y-125865891D01*
X90233608Y-125993187D01*
X90253550Y-126027726D01*
X90299500Y-126107314D01*
X90392686Y-126200500D01*
X90506814Y-126266392D01*
X90634108Y-126300500D01*
X90634110Y-126300500D01*
X90765890Y-126300500D01*
X90765892Y-126300500D01*
X90893186Y-126266392D01*
X91007314Y-126200500D01*
X91100500Y-126107314D01*
X91118613Y-126075940D01*
X91169180Y-126027726D01*
X91237787Y-126014502D01*
X91302651Y-126040470D01*
X91343180Y-126097384D01*
X91350000Y-126137941D01*
X91350000Y-132676000D01*
X91330315Y-132743039D01*
X91277511Y-132788794D01*
X91226000Y-132800000D01*
X68424000Y-132800000D01*
X68356961Y-132780315D01*
X68311206Y-132727511D01*
X68300000Y-132676000D01*
X68300000Y-132621206D01*
X68299999Y-132621202D01*
X68269258Y-132466656D01*
X68269257Y-132466652D01*
X68215844Y-132337705D01*
X67764457Y-132789095D01*
X67744486Y-132800000D01*
X67612132Y-132800000D01*
X67627164Y-132784968D01*
X67650000Y-132729837D01*
X67650000Y-132670163D01*
X67627164Y-132615032D01*
X67584968Y-132572836D01*
X67529837Y-132550000D01*
X67470163Y-132550000D01*
X67415032Y-132572836D01*
X67372836Y-132615032D01*
X67350000Y-132670163D01*
X67350000Y-132729837D01*
X67372836Y-132784968D01*
X67387868Y-132800000D01*
X67252510Y-132800000D01*
X67235542Y-132789095D01*
X66784153Y-132337705D01*
X66730743Y-132466648D01*
X66730741Y-132466656D01*
X66700000Y-132621202D01*
X66700000Y-132676000D01*
X66680315Y-132743039D01*
X66627511Y-132788794D01*
X66576000Y-132800000D01*
X56474000Y-132800000D01*
X56406961Y-132780315D01*
X56361206Y-132727511D01*
X56350000Y-132676000D01*
X56350000Y-131984153D01*
X67137705Y-131984153D01*
X67500000Y-132346446D01*
X67500001Y-132346446D01*
X67862293Y-131984153D01*
X67733351Y-131930743D01*
X67733343Y-131930741D01*
X67578797Y-131900000D01*
X67421202Y-131900000D01*
X67266656Y-131930741D01*
X67266648Y-131930743D01*
X67137705Y-131984153D01*
X56350000Y-131984153D01*
X56350000Y-129390691D01*
X71799500Y-129390691D01*
X71799500Y-129509309D01*
X71830201Y-129623886D01*
X71889511Y-129726613D01*
X71973387Y-129810489D01*
X72076114Y-129869799D01*
X72190691Y-129900500D01*
X72190694Y-129900500D01*
X72309306Y-129900500D01*
X72309309Y-129900500D01*
X72423886Y-129869799D01*
X72485704Y-129834108D01*
X82099500Y-129834108D01*
X82099500Y-129965891D01*
X82133608Y-130093187D01*
X82166554Y-130150250D01*
X82199500Y-130207314D01*
X82292686Y-130300500D01*
X82406814Y-130366392D01*
X82534108Y-130400500D01*
X82534110Y-130400500D01*
X82665890Y-130400500D01*
X82665892Y-130400500D01*
X82793186Y-130366392D01*
X82907314Y-130300500D01*
X83000500Y-130207314D01*
X83066392Y-130093186D01*
X83100500Y-129965892D01*
X83100500Y-129834108D01*
X83066392Y-129706814D01*
X83000500Y-129592686D01*
X82907314Y-129499500D01*
X82850250Y-129466554D01*
X82793187Y-129433608D01*
X82729539Y-129416554D01*
X82665892Y-129399500D01*
X82534108Y-129399500D01*
X82406812Y-129433608D01*
X82292686Y-129499500D01*
X82292683Y-129499502D01*
X82199502Y-129592683D01*
X82199500Y-129592686D01*
X82133608Y-129706812D01*
X82099500Y-129834108D01*
X72485704Y-129834108D01*
X72526613Y-129810489D01*
X72610489Y-129726613D01*
X72669799Y-129623886D01*
X72700500Y-129509309D01*
X72700500Y-129390691D01*
X72669799Y-129276114D01*
X72610489Y-129173387D01*
X72526613Y-129089511D01*
X72423886Y-129030201D01*
X72309309Y-128999500D01*
X72190691Y-128999500D01*
X72076114Y-129030201D01*
X72076112Y-129030201D01*
X72076112Y-129030202D01*
X71973387Y-129089511D01*
X71973384Y-129089513D01*
X71889513Y-129173384D01*
X71889511Y-129173387D01*
X71830201Y-129276114D01*
X71799500Y-129390691D01*
X56350000Y-129390691D01*
X56350000Y-128390691D01*
X72924500Y-128390691D01*
X72924500Y-128509309D01*
X72955201Y-128623886D01*
X73014511Y-128726613D01*
X73098387Y-128810489D01*
X73201114Y-128869799D01*
X73315691Y-128900500D01*
X73315694Y-128900500D01*
X73434306Y-128900500D01*
X73434309Y-128900500D01*
X73548886Y-128869799D01*
X73651613Y-128810489D01*
X73735489Y-128726613D01*
X73794799Y-128623886D01*
X73825500Y-128509309D01*
X73825500Y-128390691D01*
X75924500Y-128390691D01*
X75924500Y-128509309D01*
X75955201Y-128623886D01*
X76014511Y-128726613D01*
X76098387Y-128810489D01*
X76201114Y-128869799D01*
X76315691Y-128900500D01*
X76315694Y-128900500D01*
X76434306Y-128900500D01*
X76434309Y-128900500D01*
X76548886Y-128869799D01*
X76651613Y-128810489D01*
X76735489Y-128726613D01*
X76756229Y-128690691D01*
X79474500Y-128690691D01*
X79474500Y-128809309D01*
X79505201Y-128923886D01*
X79564511Y-129026613D01*
X79648387Y-129110489D01*
X79751114Y-129169799D01*
X79865691Y-129200500D01*
X79865694Y-129200500D01*
X79984306Y-129200500D01*
X79984309Y-129200500D01*
X80098886Y-129169799D01*
X80201613Y-129110489D01*
X80285489Y-129026613D01*
X80344799Y-128923886D01*
X80375500Y-128809309D01*
X80375500Y-128761782D01*
X81120591Y-128761782D01*
X81120591Y-128880400D01*
X81151292Y-128994977D01*
X81210602Y-129097704D01*
X81294478Y-129181580D01*
X81397205Y-129240890D01*
X81511782Y-129271591D01*
X81511785Y-129271591D01*
X81630397Y-129271591D01*
X81630400Y-129271591D01*
X81744977Y-129240890D01*
X81847704Y-129181580D01*
X81931580Y-129097704D01*
X81990890Y-128994977D01*
X82021591Y-128880400D01*
X82021591Y-128761782D01*
X81990890Y-128647205D01*
X81931580Y-128544478D01*
X81847704Y-128460602D01*
X81744977Y-128401292D01*
X81630400Y-128370591D01*
X81511782Y-128370591D01*
X81397205Y-128401292D01*
X81397203Y-128401292D01*
X81397203Y-128401293D01*
X81294478Y-128460602D01*
X81294475Y-128460604D01*
X81210604Y-128544475D01*
X81210602Y-128544478D01*
X81151292Y-128647205D01*
X81120591Y-128761782D01*
X80375500Y-128761782D01*
X80375500Y-128690691D01*
X80344799Y-128576114D01*
X80285489Y-128473387D01*
X80201613Y-128389511D01*
X80098886Y-128330201D01*
X79984309Y-128299500D01*
X79865691Y-128299500D01*
X79751114Y-128330201D01*
X79751112Y-128330201D01*
X79751112Y-128330202D01*
X79648387Y-128389511D01*
X79648384Y-128389513D01*
X79564513Y-128473384D01*
X79564511Y-128473387D01*
X79505201Y-128576114D01*
X79474500Y-128690691D01*
X76756229Y-128690691D01*
X76781337Y-128647203D01*
X76794795Y-128623894D01*
X76794797Y-128623890D01*
X76794798Y-128623887D01*
X76794799Y-128623886D01*
X76825500Y-128509309D01*
X76825500Y-128390691D01*
X76794799Y-128276114D01*
X76735489Y-128173387D01*
X76651613Y-128089511D01*
X76548886Y-128030201D01*
X76434309Y-127999500D01*
X76315691Y-127999500D01*
X76201114Y-128030201D01*
X76201112Y-128030201D01*
X76201112Y-128030202D01*
X76098387Y-128089511D01*
X76098384Y-128089513D01*
X76014513Y-128173384D01*
X76014511Y-128173387D01*
X75955201Y-128276114D01*
X75924500Y-128390691D01*
X73825500Y-128390691D01*
X73794799Y-128276114D01*
X73735489Y-128173387D01*
X73651613Y-128089511D01*
X73548886Y-128030201D01*
X73434309Y-127999500D01*
X73315691Y-127999500D01*
X73201114Y-128030201D01*
X73201112Y-128030201D01*
X73201112Y-128030202D01*
X73098387Y-128089511D01*
X73098384Y-128089513D01*
X73014513Y-128173384D01*
X73014511Y-128173387D01*
X72955201Y-128276114D01*
X72924500Y-128390691D01*
X56350000Y-128390691D01*
X56350000Y-127740691D01*
X66349500Y-127740691D01*
X66349500Y-127859309D01*
X66380201Y-127973886D01*
X66439511Y-128076613D01*
X66523387Y-128160489D01*
X66626114Y-128219799D01*
X66740691Y-128250500D01*
X66740694Y-128250500D01*
X66859306Y-128250500D01*
X66859309Y-128250500D01*
X66973886Y-128219799D01*
X67076613Y-128160489D01*
X67160489Y-128076613D01*
X67219799Y-127973886D01*
X67250500Y-127859309D01*
X67250500Y-127740691D01*
X67219799Y-127626114D01*
X67160489Y-127523387D01*
X67076613Y-127439511D01*
X66973886Y-127380201D01*
X66859309Y-127349500D01*
X66740691Y-127349500D01*
X66626114Y-127380201D01*
X66626112Y-127380201D01*
X66626112Y-127380202D01*
X66523387Y-127439511D01*
X66523384Y-127439513D01*
X66439513Y-127523384D01*
X66439511Y-127523387D01*
X66380201Y-127626114D01*
X66349500Y-127740691D01*
X56350000Y-127740691D01*
X56350000Y-127425000D01*
X56425000Y-127425000D01*
X56575000Y-127275000D01*
X56575000Y-125615691D01*
X59624500Y-125615691D01*
X59624500Y-125734309D01*
X59655201Y-125848886D01*
X59714511Y-125951613D01*
X59798387Y-126035489D01*
X59901114Y-126094799D01*
X60015691Y-126125500D01*
X60015694Y-126125500D01*
X60134306Y-126125500D01*
X60134309Y-126125500D01*
X60248886Y-126094799D01*
X60351613Y-126035489D01*
X60435489Y-125951613D01*
X60494799Y-125848886D01*
X60525500Y-125734309D01*
X60525500Y-125615691D01*
X60494799Y-125501114D01*
X60435489Y-125398387D01*
X60351613Y-125314511D01*
X60248886Y-125255201D01*
X60134309Y-125224500D01*
X60015691Y-125224500D01*
X59901114Y-125255201D01*
X59901112Y-125255201D01*
X59901112Y-125255202D01*
X59798387Y-125314511D01*
X59798384Y-125314513D01*
X59714513Y-125398384D01*
X59714511Y-125398387D01*
X59655201Y-125501114D01*
X59624500Y-125615691D01*
X56575000Y-125615691D01*
X56575000Y-124334108D01*
X63299500Y-124334108D01*
X63299500Y-124465891D01*
X63333608Y-124593187D01*
X63366554Y-124650250D01*
X63399500Y-124707314D01*
X63492686Y-124800500D01*
X63606814Y-124866392D01*
X63734108Y-124900500D01*
X63734110Y-124900500D01*
X63865890Y-124900500D01*
X63865892Y-124900500D01*
X63993186Y-124866392D01*
X64107314Y-124800500D01*
X64200500Y-124707314D01*
X64266392Y-124593186D01*
X64300500Y-124465892D01*
X64300500Y-124334108D01*
X64275469Y-124240691D01*
X66049500Y-124240691D01*
X66049500Y-124359309D01*
X66080201Y-124473886D01*
X66139511Y-124576613D01*
X66223387Y-124660489D01*
X66326114Y-124719799D01*
X66440691Y-124750500D01*
X66440694Y-124750500D01*
X66559306Y-124750500D01*
X66559309Y-124750500D01*
X66673886Y-124719799D01*
X66776613Y-124660489D01*
X66860489Y-124576613D01*
X66919799Y-124473886D01*
X66950500Y-124359309D01*
X66950500Y-124240691D01*
X66919799Y-124126114D01*
X66860489Y-124023387D01*
X66776613Y-123939511D01*
X66673886Y-123880201D01*
X66559309Y-123849500D01*
X66440691Y-123849500D01*
X66326114Y-123880201D01*
X66326112Y-123880201D01*
X66326112Y-123880202D01*
X66223387Y-123939511D01*
X66223384Y-123939513D01*
X66139513Y-124023384D01*
X66139511Y-124023387D01*
X66099503Y-124092683D01*
X66080201Y-124126114D01*
X66049500Y-124240691D01*
X64275469Y-124240691D01*
X64266392Y-124206814D01*
X64200500Y-124092686D01*
X64107314Y-123999500D01*
X64050250Y-123966554D01*
X63993187Y-123933608D01*
X63929539Y-123916554D01*
X63865892Y-123899500D01*
X63734108Y-123899500D01*
X63606812Y-123933608D01*
X63492686Y-123999500D01*
X63492683Y-123999502D01*
X63399502Y-124092683D01*
X63399500Y-124092686D01*
X63333608Y-124206812D01*
X63299500Y-124334108D01*
X56575000Y-124334108D01*
X56575000Y-123365691D01*
X77249500Y-123365691D01*
X77249500Y-123484309D01*
X77280201Y-123598886D01*
X77339511Y-123701613D01*
X77423387Y-123785489D01*
X77526114Y-123844799D01*
X77640691Y-123875500D01*
X77640694Y-123875500D01*
X77759306Y-123875500D01*
X77759309Y-123875500D01*
X77873886Y-123844799D01*
X77976613Y-123785489D01*
X78060489Y-123701613D01*
X78119799Y-123598886D01*
X78150500Y-123484309D01*
X78150500Y-123465691D01*
X82299500Y-123465691D01*
X82299500Y-123584309D01*
X82330201Y-123698886D01*
X82389511Y-123801613D01*
X82473387Y-123885489D01*
X82576114Y-123944799D01*
X82690691Y-123975500D01*
X82690694Y-123975500D01*
X82809306Y-123975500D01*
X82809309Y-123975500D01*
X82923886Y-123944799D01*
X83026613Y-123885489D01*
X83110489Y-123801613D01*
X83169799Y-123698886D01*
X83200500Y-123584309D01*
X83200500Y-123465691D01*
X83169799Y-123351114D01*
X83110489Y-123248387D01*
X83026613Y-123164511D01*
X82923886Y-123105201D01*
X82809309Y-123074500D01*
X82690691Y-123074500D01*
X82576114Y-123105201D01*
X82576112Y-123105201D01*
X82576112Y-123105202D01*
X82473387Y-123164511D01*
X82473384Y-123164513D01*
X82389513Y-123248384D01*
X82389511Y-123248387D01*
X82330201Y-123351114D01*
X82299500Y-123465691D01*
X78150500Y-123465691D01*
X78150500Y-123365691D01*
X78119799Y-123251114D01*
X78060489Y-123148387D01*
X77976613Y-123064511D01*
X77873886Y-123005201D01*
X77759309Y-122974500D01*
X77640691Y-122974500D01*
X77526114Y-123005201D01*
X77526112Y-123005201D01*
X77526112Y-123005202D01*
X77423387Y-123064511D01*
X77423384Y-123064513D01*
X77339513Y-123148384D01*
X77339511Y-123148387D01*
X77318091Y-123185488D01*
X77280201Y-123251114D01*
X77249500Y-123365691D01*
X56575000Y-123365691D01*
X56575000Y-122740691D01*
X61449500Y-122740691D01*
X61449500Y-122859309D01*
X61480201Y-122973886D01*
X61539511Y-123076613D01*
X61623387Y-123160489D01*
X61726114Y-123219799D01*
X61840691Y-123250500D01*
X61840694Y-123250500D01*
X61959306Y-123250500D01*
X61959309Y-123250500D01*
X62073886Y-123219799D01*
X62176613Y-123160489D01*
X62260489Y-123076613D01*
X62319799Y-122973886D01*
X62350500Y-122859309D01*
X62350500Y-122765691D01*
X87349500Y-122765691D01*
X87349500Y-122884309D01*
X87380201Y-122998886D01*
X87439511Y-123101613D01*
X87523387Y-123185489D01*
X87626114Y-123244799D01*
X87740691Y-123275500D01*
X87740694Y-123275500D01*
X87859306Y-123275500D01*
X87859309Y-123275500D01*
X87973886Y-123244799D01*
X88076613Y-123185489D01*
X88160489Y-123101613D01*
X88219799Y-122998886D01*
X88250500Y-122884309D01*
X88250500Y-122765691D01*
X88219799Y-122651114D01*
X88160489Y-122548387D01*
X88076613Y-122464511D01*
X87973886Y-122405201D01*
X87859309Y-122374500D01*
X87740691Y-122374500D01*
X87626114Y-122405201D01*
X87626112Y-122405201D01*
X87626112Y-122405202D01*
X87523387Y-122464511D01*
X87523384Y-122464513D01*
X87439513Y-122548384D01*
X87439511Y-122548387D01*
X87380201Y-122651114D01*
X87349500Y-122765691D01*
X62350500Y-122765691D01*
X62350500Y-122740691D01*
X62319799Y-122626114D01*
X62260489Y-122523387D01*
X62176613Y-122439511D01*
X62073886Y-122380201D01*
X61959309Y-122349500D01*
X61840691Y-122349500D01*
X61726114Y-122380201D01*
X61726112Y-122380201D01*
X61726112Y-122380202D01*
X61623387Y-122439511D01*
X61623384Y-122439513D01*
X61539513Y-122523384D01*
X61539511Y-122523387D01*
X61480201Y-122626114D01*
X61449500Y-122740691D01*
X56575000Y-122740691D01*
X56575000Y-121740691D01*
X62249500Y-121740691D01*
X62249500Y-121859309D01*
X62280201Y-121973886D01*
X62339511Y-122076613D01*
X62423387Y-122160489D01*
X62526114Y-122219799D01*
X62640691Y-122250500D01*
X62640694Y-122250500D01*
X62759306Y-122250500D01*
X62759309Y-122250500D01*
X62873886Y-122219799D01*
X62976613Y-122160489D01*
X63060489Y-122076613D01*
X63119799Y-121973886D01*
X63150500Y-121859309D01*
X63150500Y-121740691D01*
X63141363Y-121706591D01*
X63143026Y-121636744D01*
X63182188Y-121578881D01*
X63246417Y-121551377D01*
X63261138Y-121550500D01*
X63359306Y-121550500D01*
X63359309Y-121550500D01*
X63473886Y-121519799D01*
X63576613Y-121460489D01*
X63660489Y-121376613D01*
X63719799Y-121273886D01*
X63750500Y-121159309D01*
X63750500Y-121040691D01*
X63719799Y-120926114D01*
X63660489Y-120823387D01*
X63576613Y-120739511D01*
X63473886Y-120680201D01*
X63359309Y-120649500D01*
X63240691Y-120649500D01*
X63126114Y-120680201D01*
X63126112Y-120680201D01*
X63126112Y-120680202D01*
X63023387Y-120739511D01*
X63023384Y-120739513D01*
X62939513Y-120823384D01*
X62939511Y-120823387D01*
X62880201Y-120926114D01*
X62849500Y-121040691D01*
X62849500Y-121159309D01*
X62858636Y-121193408D01*
X62856974Y-121263256D01*
X62817812Y-121321119D01*
X62753583Y-121348623D01*
X62738862Y-121349500D01*
X62640691Y-121349500D01*
X62526114Y-121380201D01*
X62526112Y-121380201D01*
X62526112Y-121380202D01*
X62423387Y-121439511D01*
X62423384Y-121439513D01*
X62339513Y-121523384D01*
X62339511Y-121523387D01*
X62280201Y-121626114D01*
X62249500Y-121740691D01*
X56575000Y-121740691D01*
X56575000Y-121675000D01*
X56350000Y-121675000D01*
X56350000Y-121285807D01*
X56369685Y-121218768D01*
X56422489Y-121173013D01*
X56491647Y-121163069D01*
X56510584Y-121168271D01*
X56510822Y-121167489D01*
X56516656Y-121169258D01*
X56671202Y-121199999D01*
X56671206Y-121200000D01*
X56828794Y-121200000D01*
X56828797Y-121199999D01*
X56983343Y-121169258D01*
X56983347Y-121169257D01*
X57112293Y-121115845D01*
X57037139Y-121040691D01*
X60899500Y-121040691D01*
X60899500Y-121159309D01*
X60930201Y-121273886D01*
X60989511Y-121376613D01*
X61073387Y-121460489D01*
X61176114Y-121519799D01*
X61290691Y-121550500D01*
X61290694Y-121550500D01*
X61409306Y-121550500D01*
X61409309Y-121550500D01*
X61523886Y-121519799D01*
X61626613Y-121460489D01*
X61710489Y-121376613D01*
X61769799Y-121273886D01*
X61800500Y-121159309D01*
X61800500Y-121040691D01*
X61769799Y-120926114D01*
X61710489Y-120823387D01*
X61626613Y-120739511D01*
X61523886Y-120680201D01*
X61409309Y-120649500D01*
X61290691Y-120649500D01*
X61176114Y-120680201D01*
X61176112Y-120680201D01*
X61176112Y-120680202D01*
X61073387Y-120739511D01*
X61073384Y-120739513D01*
X60989513Y-120823384D01*
X60989511Y-120823387D01*
X60930201Y-120926114D01*
X60899500Y-121040691D01*
X57037139Y-121040691D01*
X56660904Y-120664457D01*
X56627419Y-120603134D01*
X56632403Y-120533443D01*
X56647624Y-120509756D01*
X56665032Y-120527164D01*
X56720163Y-120550000D01*
X56779837Y-120550000D01*
X56834968Y-120527164D01*
X56877164Y-120484968D01*
X56900000Y-120429837D01*
X56900000Y-120399999D01*
X57103553Y-120399999D01*
X57103553Y-120400001D01*
X57465845Y-120762293D01*
X57519257Y-120633347D01*
X57519258Y-120633343D01*
X57549999Y-120478797D01*
X57550000Y-120478794D01*
X57550000Y-120321206D01*
X57549999Y-120321202D01*
X57519258Y-120166656D01*
X57519257Y-120166652D01*
X57465845Y-120037706D01*
X57103553Y-120399999D01*
X56900000Y-120399999D01*
X56900000Y-120370163D01*
X56877164Y-120315032D01*
X56834968Y-120272836D01*
X56779837Y-120250000D01*
X56720163Y-120250000D01*
X56665032Y-120272836D01*
X56648916Y-120288951D01*
X56627419Y-120249581D01*
X56632403Y-120179889D01*
X56660904Y-120135542D01*
X56955756Y-119840691D01*
X60299500Y-119840691D01*
X60299500Y-119959309D01*
X60330201Y-120073886D01*
X60389511Y-120176613D01*
X60473387Y-120260489D01*
X60576114Y-120319799D01*
X60690691Y-120350500D01*
X60690694Y-120350500D01*
X60809306Y-120350500D01*
X60809309Y-120350500D01*
X60923886Y-120319799D01*
X61026613Y-120260489D01*
X61110489Y-120176613D01*
X61169799Y-120073886D01*
X61200500Y-119959309D01*
X61200500Y-119840691D01*
X61188984Y-119797713D01*
X61190647Y-119727868D01*
X61229809Y-119670005D01*
X61276661Y-119645850D01*
X61373886Y-119619799D01*
X61476613Y-119560489D01*
X61560489Y-119476613D01*
X61619799Y-119373886D01*
X61650500Y-119259309D01*
X61650500Y-119240691D01*
X77249500Y-119240691D01*
X77249500Y-119359309D01*
X77280201Y-119473886D01*
X77339511Y-119576613D01*
X77423387Y-119660489D01*
X77526114Y-119719799D01*
X77640691Y-119750500D01*
X77640694Y-119750500D01*
X77759306Y-119750500D01*
X77759309Y-119750500D01*
X77873886Y-119719799D01*
X77976613Y-119660489D01*
X78060489Y-119576613D01*
X78119799Y-119473886D01*
X78150500Y-119359309D01*
X78150500Y-119240691D01*
X78119799Y-119126114D01*
X78060489Y-119023387D01*
X77976613Y-118939511D01*
X77873886Y-118880201D01*
X77759309Y-118849500D01*
X77640691Y-118849500D01*
X77526114Y-118880201D01*
X77526112Y-118880201D01*
X77526112Y-118880202D01*
X77423387Y-118939511D01*
X77423384Y-118939513D01*
X77339513Y-119023384D01*
X77339511Y-119023387D01*
X77280201Y-119126114D01*
X77249500Y-119240691D01*
X61650500Y-119240691D01*
X61650500Y-119140691D01*
X61619799Y-119026114D01*
X61560489Y-118923387D01*
X61476613Y-118839511D01*
X61373886Y-118780201D01*
X61259309Y-118749500D01*
X61140691Y-118749500D01*
X61026114Y-118780201D01*
X61026112Y-118780201D01*
X61026112Y-118780202D01*
X60923387Y-118839511D01*
X60923384Y-118839513D01*
X60839513Y-118923384D01*
X60839511Y-118923387D01*
X60798454Y-118994500D01*
X60780201Y-119026114D01*
X60749500Y-119140691D01*
X60749500Y-119140693D01*
X60749500Y-119259308D01*
X60761015Y-119302283D01*
X60759352Y-119372133D01*
X60720189Y-119429995D01*
X60673334Y-119454150D01*
X60576114Y-119480201D01*
X60576112Y-119480201D01*
X60576112Y-119480202D01*
X60473387Y-119539511D01*
X60473384Y-119539513D01*
X60389513Y-119623384D01*
X60389511Y-119623387D01*
X60368091Y-119660488D01*
X60330201Y-119726114D01*
X60299500Y-119840691D01*
X56955756Y-119840691D01*
X57051564Y-119744883D01*
X57112293Y-119684153D01*
X56983351Y-119630743D01*
X56983343Y-119630741D01*
X56828797Y-119600000D01*
X56671202Y-119600000D01*
X56516656Y-119630741D01*
X56510822Y-119632511D01*
X56510055Y-119629985D01*
X56451944Y-119636215D01*
X56389475Y-119604920D01*
X56353842Y-119544819D01*
X56350000Y-119514192D01*
X56350000Y-118059108D01*
X79799500Y-118059108D01*
X79799500Y-118190891D01*
X79833608Y-118318187D01*
X79866554Y-118375250D01*
X79899500Y-118432314D01*
X79992686Y-118525500D01*
X80106814Y-118591392D01*
X80234108Y-118625500D01*
X80234110Y-118625500D01*
X80365890Y-118625500D01*
X80365892Y-118625500D01*
X80493186Y-118591392D01*
X80607314Y-118525500D01*
X80700500Y-118432314D01*
X80766392Y-118318186D01*
X80800500Y-118190892D01*
X80800500Y-118059108D01*
X80766392Y-117931814D01*
X80700500Y-117817686D01*
X80607314Y-117724500D01*
X80550250Y-117691554D01*
X80493187Y-117658608D01*
X80429539Y-117641554D01*
X80365892Y-117624500D01*
X80234108Y-117624500D01*
X80106812Y-117658608D01*
X79992686Y-117724500D01*
X79992683Y-117724502D01*
X79899502Y-117817683D01*
X79899500Y-117817686D01*
X79833608Y-117931812D01*
X79799500Y-118059108D01*
X56350000Y-118059108D01*
X56350000Y-117434108D01*
X88299500Y-117434108D01*
X88299500Y-117565891D01*
X88333608Y-117693187D01*
X88351687Y-117724500D01*
X88399500Y-117807314D01*
X88492686Y-117900500D01*
X88606814Y-117966392D01*
X88734108Y-118000500D01*
X88734110Y-118000500D01*
X88865890Y-118000500D01*
X88865892Y-118000500D01*
X88993186Y-117966392D01*
X89107314Y-117900500D01*
X89200500Y-117807314D01*
X89266392Y-117693186D01*
X89300500Y-117565892D01*
X89300500Y-117434108D01*
X89266392Y-117306814D01*
X89200500Y-117192686D01*
X89107314Y-117099500D01*
X89022444Y-117050500D01*
X88993187Y-117033608D01*
X88929539Y-117016554D01*
X88865892Y-116999500D01*
X88734108Y-116999500D01*
X88606812Y-117033608D01*
X88492686Y-117099500D01*
X88492683Y-117099502D01*
X88399502Y-117192683D01*
X88399500Y-117192686D01*
X88333608Y-117306812D01*
X88299500Y-117434108D01*
X56350000Y-117434108D01*
X56350000Y-116540691D01*
X61449500Y-116540691D01*
X61449500Y-116659309D01*
X61480201Y-116773886D01*
X61539511Y-116876613D01*
X61623387Y-116960489D01*
X61726114Y-117019799D01*
X61840691Y-117050500D01*
X61840694Y-117050500D01*
X61959306Y-117050500D01*
X61959309Y-117050500D01*
X62073886Y-117019799D01*
X62176613Y-116960489D01*
X62260489Y-116876613D01*
X62319799Y-116773886D01*
X62350500Y-116659309D01*
X62350500Y-116540691D01*
X62319799Y-116426114D01*
X62260489Y-116323387D01*
X62176613Y-116239511D01*
X62073886Y-116180201D01*
X61959309Y-116149500D01*
X61840691Y-116149500D01*
X61726114Y-116180201D01*
X61726112Y-116180201D01*
X61726112Y-116180202D01*
X61623387Y-116239511D01*
X61623384Y-116239513D01*
X61539513Y-116323384D01*
X61539511Y-116323387D01*
X61480201Y-116426114D01*
X61449500Y-116540691D01*
X56350000Y-116540691D01*
X56350000Y-114140691D01*
X70949500Y-114140691D01*
X70949500Y-114259309D01*
X70980201Y-114373886D01*
X71039511Y-114476613D01*
X71123387Y-114560489D01*
X71226114Y-114619799D01*
X71265027Y-114630225D01*
X71324686Y-114666590D01*
X71355215Y-114729437D01*
X71346920Y-114798813D01*
X71302435Y-114852691D01*
X71265028Y-114869773D01*
X71226114Y-114880201D01*
X71226112Y-114880201D01*
X71226112Y-114880202D01*
X71123387Y-114939511D01*
X71123384Y-114939513D01*
X71039513Y-115023384D01*
X71039511Y-115023387D01*
X70980201Y-115126114D01*
X70949500Y-115240691D01*
X70949500Y-115359309D01*
X70980201Y-115473886D01*
X71039511Y-115576613D01*
X71123387Y-115660489D01*
X71226114Y-115719799D01*
X71340691Y-115750500D01*
X71340694Y-115750500D01*
X71459306Y-115750500D01*
X71459309Y-115750500D01*
X71573886Y-115719799D01*
X71664481Y-115667493D01*
X71732378Y-115651020D01*
X71798405Y-115673871D01*
X71841597Y-115728792D01*
X71849419Y-115758690D01*
X71849500Y-115759306D01*
X71849500Y-115759309D01*
X71880201Y-115873886D01*
X71939511Y-115976613D01*
X72023387Y-116060489D01*
X72126114Y-116119799D01*
X72240691Y-116150500D01*
X72240694Y-116150500D01*
X72359306Y-116150500D01*
X72359309Y-116150500D01*
X72473886Y-116119799D01*
X72576613Y-116060489D01*
X72660489Y-115976613D01*
X72719799Y-115873886D01*
X72750500Y-115759309D01*
X72750500Y-115640691D01*
X72719799Y-115526114D01*
X72660489Y-115423387D01*
X72576613Y-115339511D01*
X72473886Y-115280201D01*
X72359309Y-115249500D01*
X72240691Y-115249500D01*
X72159684Y-115271206D01*
X72126110Y-115280202D01*
X72035519Y-115332506D01*
X71967619Y-115348979D01*
X71901592Y-115326127D01*
X71858402Y-115271206D01*
X71850579Y-115241296D01*
X71850500Y-115240698D01*
X71850500Y-115240691D01*
X71819799Y-115126114D01*
X71760489Y-115023387D01*
X71676613Y-114939511D01*
X71625249Y-114909856D01*
X71573887Y-114880201D01*
X71560343Y-114876572D01*
X71534972Y-114869774D01*
X71475313Y-114833410D01*
X71444784Y-114770563D01*
X71453079Y-114701188D01*
X71497564Y-114647310D01*
X71534971Y-114630226D01*
X71573886Y-114619799D01*
X71676613Y-114560489D01*
X71760489Y-114476613D01*
X71819799Y-114373886D01*
X71850500Y-114259309D01*
X71850500Y-114140691D01*
X71819799Y-114026114D01*
X71760489Y-113923387D01*
X71676613Y-113839511D01*
X71573886Y-113780201D01*
X71459309Y-113749500D01*
X71340691Y-113749500D01*
X71226114Y-113780201D01*
X71226112Y-113780201D01*
X71226112Y-113780202D01*
X71123387Y-113839511D01*
X71123384Y-113839513D01*
X71039513Y-113923384D01*
X71039511Y-113923387D01*
X70983732Y-114019999D01*
X70980201Y-114026114D01*
X70949500Y-114140691D01*
X56350000Y-114140691D01*
X56350000Y-113440691D01*
X73349500Y-113440691D01*
X73349500Y-113559309D01*
X73380201Y-113673886D01*
X73439511Y-113776613D01*
X73523387Y-113860489D01*
X73626114Y-113919799D01*
X73740691Y-113950500D01*
X73740694Y-113950500D01*
X73859306Y-113950500D01*
X73859309Y-113950500D01*
X73973886Y-113919799D01*
X74076613Y-113860489D01*
X74160489Y-113776613D01*
X74219799Y-113673886D01*
X74250500Y-113559309D01*
X74250500Y-113440691D01*
X74219799Y-113326114D01*
X74160489Y-113223387D01*
X74076613Y-113139511D01*
X73973886Y-113080201D01*
X73859309Y-113049500D01*
X73740691Y-113049500D01*
X73626114Y-113080201D01*
X73626112Y-113080201D01*
X73626112Y-113080202D01*
X73523387Y-113139511D01*
X73523384Y-113139513D01*
X73439513Y-113223384D01*
X73439511Y-113223387D01*
X73380201Y-113326114D01*
X73349500Y-113440691D01*
X56350000Y-113440691D01*
X56350000Y-111754026D01*
X56369685Y-111686987D01*
X56422489Y-111641232D01*
X56491647Y-111631288D01*
X56536001Y-111646640D01*
X56576108Y-111669796D01*
X56576109Y-111669797D01*
X56576111Y-111669797D01*
X56576114Y-111669799D01*
X56690691Y-111700500D01*
X56690694Y-111700500D01*
X56809306Y-111700500D01*
X56809309Y-111700500D01*
X56923886Y-111669799D01*
X57026613Y-111610489D01*
X57110489Y-111526613D01*
X57169799Y-111423886D01*
X57192091Y-111340691D01*
X60449500Y-111340691D01*
X60449500Y-111459309D01*
X60480201Y-111573886D01*
X60539511Y-111676613D01*
X60623387Y-111760489D01*
X60726114Y-111819799D01*
X60840691Y-111850500D01*
X60840694Y-111850500D01*
X60959306Y-111850500D01*
X60959309Y-111850500D01*
X61073886Y-111819799D01*
X61176613Y-111760489D01*
X61196411Y-111740691D01*
X71099500Y-111740691D01*
X71099500Y-111859309D01*
X71130201Y-111973886D01*
X71189511Y-112076613D01*
X71273387Y-112160489D01*
X71376114Y-112219799D01*
X71490691Y-112250500D01*
X71490694Y-112250500D01*
X71609307Y-112250500D01*
X71609309Y-112250500D01*
X71609310Y-112250499D01*
X71617365Y-112249439D01*
X71617589Y-112251142D01*
X71677623Y-112252562D01*
X71735491Y-112291715D01*
X71763006Y-112355939D01*
X71759660Y-112402772D01*
X71749500Y-112440689D01*
X71749500Y-112440691D01*
X71749500Y-112559309D01*
X71780201Y-112673886D01*
X71839511Y-112776613D01*
X71923387Y-112860489D01*
X72026114Y-112919799D01*
X72140691Y-112950500D01*
X72140694Y-112950500D01*
X72259306Y-112950500D01*
X72259309Y-112950500D01*
X72373886Y-112919799D01*
X72476613Y-112860489D01*
X72560489Y-112776613D01*
X72619799Y-112673886D01*
X72650500Y-112559309D01*
X72650500Y-112440691D01*
X72619799Y-112326114D01*
X72560489Y-112223387D01*
X72476613Y-112139511D01*
X72373886Y-112080201D01*
X72295166Y-112059108D01*
X80099500Y-112059108D01*
X80099500Y-112190891D01*
X80133608Y-112318187D01*
X80138184Y-112326112D01*
X80199500Y-112432314D01*
X80292686Y-112525500D01*
X80406814Y-112591392D01*
X80534108Y-112625500D01*
X80534110Y-112625500D01*
X80665890Y-112625500D01*
X80665892Y-112625500D01*
X80793186Y-112591392D01*
X80907314Y-112525500D01*
X81000500Y-112432314D01*
X81066392Y-112318186D01*
X81100500Y-112190892D01*
X81100500Y-112059108D01*
X81066392Y-111931814D01*
X81000500Y-111817686D01*
X80907314Y-111724500D01*
X80824375Y-111676615D01*
X80793187Y-111658608D01*
X80691225Y-111631288D01*
X80665892Y-111624500D01*
X80534108Y-111624500D01*
X80406812Y-111658608D01*
X80292686Y-111724500D01*
X80292683Y-111724502D01*
X80199502Y-111817683D01*
X80199500Y-111817686D01*
X80133608Y-111931812D01*
X80099500Y-112059108D01*
X72295166Y-112059108D01*
X72259309Y-112049500D01*
X72140691Y-112049500D01*
X72140689Y-112049500D01*
X72132635Y-112050561D01*
X72132411Y-112048861D01*
X72072354Y-112047430D01*
X72014493Y-112008266D01*
X71986991Y-111944037D01*
X71990339Y-111897227D01*
X72000500Y-111859309D01*
X72000500Y-111740691D01*
X71969799Y-111626114D01*
X71960778Y-111610489D01*
X71951585Y-111594566D01*
X71951584Y-111594565D01*
X71920480Y-111540691D01*
X78249500Y-111540691D01*
X78249500Y-111659309D01*
X78280201Y-111773886D01*
X78339511Y-111876613D01*
X78423387Y-111960489D01*
X78526114Y-112019799D01*
X78640691Y-112050500D01*
X78640694Y-112050500D01*
X78759306Y-112050500D01*
X78759309Y-112050500D01*
X78873886Y-112019799D01*
X78976613Y-111960489D01*
X79060489Y-111876613D01*
X79119799Y-111773886D01*
X79150500Y-111659309D01*
X79150500Y-111540691D01*
X79119799Y-111426114D01*
X79060489Y-111323387D01*
X78976613Y-111239511D01*
X78873886Y-111180201D01*
X78759309Y-111149500D01*
X78640691Y-111149500D01*
X78526114Y-111180201D01*
X78526112Y-111180201D01*
X78526112Y-111180202D01*
X78423387Y-111239511D01*
X78423384Y-111239513D01*
X78339513Y-111323384D01*
X78339511Y-111323387D01*
X78306709Y-111380202D01*
X78280201Y-111426114D01*
X78249500Y-111540691D01*
X71920480Y-111540691D01*
X71910489Y-111523387D01*
X71826613Y-111439511D01*
X71723886Y-111380201D01*
X71609309Y-111349500D01*
X71490691Y-111349500D01*
X71376114Y-111380201D01*
X71376112Y-111380201D01*
X71376112Y-111380202D01*
X71273387Y-111439511D01*
X71273384Y-111439513D01*
X71189513Y-111523384D01*
X71189511Y-111523387D01*
X71160355Y-111573887D01*
X71130201Y-111626114D01*
X71099500Y-111740691D01*
X61196411Y-111740691D01*
X61260489Y-111676613D01*
X61319799Y-111573886D01*
X61350500Y-111459309D01*
X61350500Y-111340691D01*
X61319799Y-111226114D01*
X61260489Y-111123387D01*
X61176613Y-111039511D01*
X61073886Y-110980201D01*
X60959309Y-110949500D01*
X60840691Y-110949500D01*
X60726114Y-110980201D01*
X60726112Y-110980201D01*
X60726112Y-110980202D01*
X60623387Y-111039511D01*
X60623384Y-111039513D01*
X60539513Y-111123384D01*
X60539511Y-111123387D01*
X60500652Y-111190693D01*
X60480201Y-111226114D01*
X60449500Y-111340691D01*
X57192091Y-111340691D01*
X57200500Y-111309309D01*
X57200500Y-111190691D01*
X57169799Y-111076114D01*
X57110489Y-110973387D01*
X57026613Y-110889511D01*
X56923886Y-110830201D01*
X56809309Y-110799500D01*
X56690691Y-110799500D01*
X56585505Y-110827684D01*
X56576110Y-110830202D01*
X56536000Y-110853360D01*
X56468099Y-110869833D01*
X56402073Y-110846980D01*
X56358882Y-110792059D01*
X56350000Y-110745973D01*
X56350000Y-110740691D01*
X87499500Y-110740691D01*
X87499500Y-110859309D01*
X87530201Y-110973886D01*
X87589511Y-111076613D01*
X87673387Y-111160489D01*
X87776114Y-111219799D01*
X87890691Y-111250500D01*
X87890694Y-111250500D01*
X88009306Y-111250500D01*
X88009309Y-111250500D01*
X88123886Y-111219799D01*
X88226613Y-111160489D01*
X88310489Y-111076613D01*
X88369799Y-110973886D01*
X88400500Y-110859309D01*
X88400500Y-110740691D01*
X88369799Y-110626114D01*
X88310489Y-110523387D01*
X88226613Y-110439511D01*
X88123886Y-110380201D01*
X88009309Y-110349500D01*
X87890691Y-110349500D01*
X87776114Y-110380201D01*
X87776112Y-110380201D01*
X87776112Y-110380202D01*
X87673387Y-110439511D01*
X87673384Y-110439513D01*
X87589513Y-110523384D01*
X87589511Y-110523387D01*
X87530201Y-110626114D01*
X87499500Y-110740691D01*
X56350000Y-110740691D01*
X56350000Y-108414956D01*
X78749500Y-108414956D01*
X78749500Y-108533574D01*
X78780201Y-108648151D01*
X78839511Y-108750878D01*
X78923387Y-108834754D01*
X79026114Y-108894064D01*
X79140691Y-108924765D01*
X79140694Y-108924765D01*
X79259306Y-108924765D01*
X79259309Y-108924765D01*
X79373886Y-108894064D01*
X79476613Y-108834754D01*
X79560489Y-108750878D01*
X79619799Y-108648151D01*
X79650500Y-108533574D01*
X79650500Y-108414956D01*
X79619799Y-108300379D01*
X79560489Y-108197652D01*
X79476613Y-108113776D01*
X79373886Y-108054466D01*
X79259309Y-108023765D01*
X79140691Y-108023765D01*
X79026114Y-108054466D01*
X79026112Y-108054466D01*
X79026112Y-108054467D01*
X78923387Y-108113776D01*
X78923384Y-108113778D01*
X78839513Y-108197649D01*
X78839511Y-108197652D01*
X78780201Y-108300379D01*
X78749500Y-108414956D01*
X56350000Y-108414956D01*
X56350000Y-106940691D01*
X69499500Y-106940691D01*
X69499500Y-107059309D01*
X69530201Y-107173886D01*
X69589511Y-107276613D01*
X69673387Y-107360489D01*
X69776114Y-107419799D01*
X69890691Y-107450500D01*
X69890694Y-107450500D01*
X70009306Y-107450500D01*
X70009309Y-107450500D01*
X70123886Y-107419799D01*
X70226613Y-107360489D01*
X70246411Y-107340691D01*
X76849500Y-107340691D01*
X76849500Y-107459309D01*
X76880201Y-107573886D01*
X76939511Y-107676613D01*
X77023387Y-107760489D01*
X77126114Y-107819799D01*
X77240691Y-107850500D01*
X77240694Y-107850500D01*
X77359306Y-107850500D01*
X77359309Y-107850500D01*
X77473886Y-107819799D01*
X77576613Y-107760489D01*
X77660489Y-107676613D01*
X77719799Y-107573886D01*
X77750500Y-107459309D01*
X77750500Y-107340691D01*
X77719799Y-107226114D01*
X77660489Y-107123387D01*
X77576613Y-107039511D01*
X77473886Y-106980201D01*
X77359309Y-106949500D01*
X77240691Y-106949500D01*
X77126114Y-106980201D01*
X77126112Y-106980201D01*
X77126112Y-106980202D01*
X77023387Y-107039511D01*
X77023384Y-107039513D01*
X76939513Y-107123384D01*
X76939511Y-107123387D01*
X76910355Y-107173887D01*
X76880201Y-107226114D01*
X76849500Y-107340691D01*
X70246411Y-107340691D01*
X70310489Y-107276613D01*
X70369799Y-107173886D01*
X70400500Y-107059309D01*
X70400500Y-106940691D01*
X70369799Y-106826114D01*
X70310489Y-106723387D01*
X70226613Y-106639511D01*
X70123886Y-106580201D01*
X70009309Y-106549500D01*
X69890691Y-106549500D01*
X69776114Y-106580201D01*
X69776112Y-106580201D01*
X69776112Y-106580202D01*
X69673387Y-106639511D01*
X69673384Y-106639513D01*
X69589513Y-106723384D01*
X69589511Y-106723387D01*
X69568091Y-106760488D01*
X69530201Y-106826114D01*
X69499500Y-106940691D01*
X56350000Y-106940691D01*
X56350000Y-106340691D01*
X79049500Y-106340691D01*
X79049500Y-106459309D01*
X79080201Y-106573886D01*
X79139511Y-106676613D01*
X79223387Y-106760489D01*
X79326114Y-106819799D01*
X79440691Y-106850500D01*
X79440694Y-106850500D01*
X79559306Y-106850500D01*
X79559309Y-106850500D01*
X79673886Y-106819799D01*
X79776613Y-106760489D01*
X79860489Y-106676613D01*
X79919799Y-106573886D01*
X79950500Y-106459309D01*
X79950500Y-106340691D01*
X79919799Y-106226114D01*
X79860489Y-106123387D01*
X79776613Y-106039511D01*
X79673886Y-105980201D01*
X79559309Y-105949500D01*
X79440691Y-105949500D01*
X79326114Y-105980201D01*
X79326112Y-105980201D01*
X79326112Y-105980202D01*
X79223387Y-106039511D01*
X79223384Y-106039513D01*
X79139513Y-106123384D01*
X79139511Y-106123387D01*
X79080201Y-106226114D01*
X79049500Y-106340691D01*
X56350000Y-106340691D01*
X56350000Y-97530247D01*
X71369500Y-97530247D01*
X71369500Y-99269752D01*
X71381131Y-99328229D01*
X71381132Y-99328230D01*
X71425447Y-99394552D01*
X71491769Y-99438867D01*
X71491770Y-99438868D01*
X71550247Y-99450499D01*
X71550250Y-99450500D01*
X71550252Y-99450500D01*
X73289750Y-99450500D01*
X73289751Y-99450499D01*
X73304568Y-99447552D01*
X73348229Y-99438868D01*
X73348229Y-99438867D01*
X73348231Y-99438867D01*
X73414552Y-99394552D01*
X73458867Y-99328231D01*
X73458867Y-99328229D01*
X73458868Y-99328229D01*
X73470499Y-99269752D01*
X73470500Y-99269750D01*
X73470500Y-98296530D01*
X73909500Y-98296530D01*
X73909500Y-98503469D01*
X73949868Y-98706412D01*
X73949870Y-98706420D01*
X74024710Y-98887100D01*
X74029059Y-98897598D01*
X74060321Y-98944385D01*
X74144024Y-99069657D01*
X74290342Y-99215975D01*
X74290345Y-99215977D01*
X74462402Y-99330941D01*
X74653580Y-99410130D01*
X74856530Y-99450499D01*
X74856534Y-99450500D01*
X74856535Y-99450500D01*
X75063466Y-99450500D01*
X75063467Y-99450499D01*
X75266420Y-99410130D01*
X75457598Y-99330941D01*
X75629655Y-99215977D01*
X75775977Y-99069655D01*
X75890941Y-98897598D01*
X75959165Y-98732889D01*
X76003004Y-98678488D01*
X76069298Y-98656423D01*
X76136998Y-98673702D01*
X76184609Y-98724839D01*
X76191656Y-98742026D01*
X76248904Y-98918216D01*
X76345379Y-99107557D01*
X76470272Y-99279459D01*
X76470276Y-99279464D01*
X76620535Y-99429723D01*
X76620540Y-99429727D01*
X76792442Y-99554620D01*
X76981782Y-99651095D01*
X77183871Y-99716757D01*
X77250000Y-99727231D01*
X77250000Y-98833012D01*
X77307007Y-98865925D01*
X77434174Y-98900000D01*
X77565826Y-98900000D01*
X77692993Y-98865925D01*
X77750000Y-98833012D01*
X77750000Y-99727230D01*
X77816126Y-99716757D01*
X77816129Y-99716757D01*
X78018217Y-99651095D01*
X78207557Y-99554620D01*
X78379459Y-99429727D01*
X78379464Y-99429723D01*
X78529723Y-99279464D01*
X78529727Y-99279459D01*
X78654620Y-99107557D01*
X78751095Y-98918217D01*
X78808343Y-98742026D01*
X78847780Y-98684351D01*
X78912139Y-98657152D01*
X78980985Y-98669066D01*
X79032461Y-98716310D01*
X79040835Y-98732891D01*
X79104710Y-98887100D01*
X79109059Y-98897598D01*
X79140321Y-98944385D01*
X79224024Y-99069657D01*
X79370342Y-99215975D01*
X79370345Y-99215977D01*
X79542402Y-99330941D01*
X79733580Y-99410130D01*
X79936530Y-99450499D01*
X79936534Y-99450500D01*
X79936535Y-99450500D01*
X80143466Y-99450500D01*
X80143467Y-99450499D01*
X80346420Y-99410130D01*
X80537598Y-99330941D01*
X80709655Y-99215977D01*
X80855977Y-99069655D01*
X80970941Y-98897598D01*
X81050130Y-98706420D01*
X81090500Y-98503465D01*
X81090500Y-98296535D01*
X81090499Y-98296530D01*
X81529500Y-98296530D01*
X81529500Y-98503469D01*
X81569868Y-98706412D01*
X81569870Y-98706420D01*
X81644710Y-98887100D01*
X81649059Y-98897598D01*
X81680321Y-98944385D01*
X81764024Y-99069657D01*
X81910342Y-99215975D01*
X81910345Y-99215977D01*
X82082402Y-99330941D01*
X82273580Y-99410130D01*
X82476530Y-99450499D01*
X82476534Y-99450500D01*
X82476535Y-99450500D01*
X82683466Y-99450500D01*
X82683467Y-99450499D01*
X82886420Y-99410130D01*
X83077598Y-99330941D01*
X83249655Y-99215977D01*
X83395977Y-99069655D01*
X83510941Y-98897598D01*
X83590130Y-98706420D01*
X83630500Y-98503465D01*
X83630500Y-98296535D01*
X83630499Y-98296530D01*
X84069500Y-98296530D01*
X84069500Y-98503469D01*
X84109868Y-98706412D01*
X84109870Y-98706420D01*
X84184710Y-98887100D01*
X84189059Y-98897598D01*
X84220321Y-98944385D01*
X84304024Y-99069657D01*
X84450342Y-99215975D01*
X84450345Y-99215977D01*
X84622402Y-99330941D01*
X84813580Y-99410130D01*
X85016530Y-99450499D01*
X85016534Y-99450500D01*
X85016535Y-99450500D01*
X85223466Y-99450500D01*
X85223467Y-99450499D01*
X85426420Y-99410130D01*
X85617598Y-99330941D01*
X85789655Y-99215977D01*
X85935977Y-99069655D01*
X86050941Y-98897598D01*
X86130130Y-98706420D01*
X86170500Y-98503465D01*
X86170500Y-98296535D01*
X86130130Y-98093580D01*
X86050941Y-97902402D01*
X85935977Y-97730345D01*
X85935975Y-97730342D01*
X85789657Y-97584024D01*
X85621655Y-97471770D01*
X85617598Y-97469059D01*
X85426420Y-97389870D01*
X85426412Y-97389868D01*
X85223469Y-97349500D01*
X85223465Y-97349500D01*
X85016535Y-97349500D01*
X85016530Y-97349500D01*
X84813587Y-97389868D01*
X84813579Y-97389870D01*
X84622403Y-97469058D01*
X84450342Y-97584024D01*
X84304024Y-97730342D01*
X84189058Y-97902403D01*
X84109870Y-98093579D01*
X84109868Y-98093587D01*
X84069500Y-98296530D01*
X83630499Y-98296530D01*
X83590130Y-98093580D01*
X83510941Y-97902402D01*
X83395977Y-97730345D01*
X83395975Y-97730342D01*
X83249657Y-97584024D01*
X83081655Y-97471770D01*
X83077598Y-97469059D01*
X82886420Y-97389870D01*
X82886412Y-97389868D01*
X82683469Y-97349500D01*
X82683465Y-97349500D01*
X82476535Y-97349500D01*
X82476530Y-97349500D01*
X82273587Y-97389868D01*
X82273579Y-97389870D01*
X82082403Y-97469058D01*
X81910342Y-97584024D01*
X81764024Y-97730342D01*
X81649058Y-97902403D01*
X81569870Y-98093579D01*
X81569868Y-98093587D01*
X81529500Y-98296530D01*
X81090499Y-98296530D01*
X81050130Y-98093580D01*
X80970941Y-97902402D01*
X80855977Y-97730345D01*
X80855975Y-97730342D01*
X80709657Y-97584024D01*
X80541655Y-97471770D01*
X80537598Y-97469059D01*
X80346420Y-97389870D01*
X80346412Y-97389868D01*
X80143469Y-97349500D01*
X80143465Y-97349500D01*
X79936535Y-97349500D01*
X79936530Y-97349500D01*
X79733587Y-97389868D01*
X79733579Y-97389870D01*
X79542403Y-97469058D01*
X79370342Y-97584024D01*
X79224024Y-97730342D01*
X79109057Y-97902403D01*
X79040835Y-98067108D01*
X78996994Y-98121511D01*
X78930700Y-98143576D01*
X78863000Y-98126297D01*
X78815390Y-98075159D01*
X78808343Y-98057973D01*
X78751095Y-97881782D01*
X78654620Y-97692442D01*
X78529727Y-97520540D01*
X78529723Y-97520535D01*
X78379464Y-97370276D01*
X78379459Y-97370272D01*
X78207557Y-97245379D01*
X78018215Y-97148903D01*
X77816124Y-97083241D01*
X77750000Y-97072768D01*
X77750000Y-97966988D01*
X77692993Y-97934075D01*
X77565826Y-97900000D01*
X77434174Y-97900000D01*
X77307007Y-97934075D01*
X77250000Y-97966988D01*
X77250000Y-97072768D01*
X77249999Y-97072768D01*
X77183875Y-97083241D01*
X76981784Y-97148903D01*
X76792442Y-97245379D01*
X76620540Y-97370272D01*
X76620535Y-97370276D01*
X76470276Y-97520535D01*
X76470272Y-97520540D01*
X76345379Y-97692442D01*
X76248905Y-97881781D01*
X76191656Y-98057974D01*
X76152218Y-98115649D01*
X76087859Y-98142847D01*
X76019013Y-98130932D01*
X75967537Y-98083688D01*
X75959164Y-98067107D01*
X75890943Y-97902405D01*
X75775975Y-97730342D01*
X75629657Y-97584024D01*
X75461655Y-97471770D01*
X75457598Y-97469059D01*
X75266420Y-97389870D01*
X75266412Y-97389868D01*
X75063469Y-97349500D01*
X75063465Y-97349500D01*
X74856535Y-97349500D01*
X74856530Y-97349500D01*
X74653587Y-97389868D01*
X74653579Y-97389870D01*
X74462403Y-97469058D01*
X74290342Y-97584024D01*
X74144024Y-97730342D01*
X74029058Y-97902403D01*
X73949870Y-98093579D01*
X73949868Y-98093587D01*
X73909500Y-98296530D01*
X73470500Y-98296530D01*
X73470500Y-97530249D01*
X73470499Y-97530247D01*
X73458868Y-97471770D01*
X73458867Y-97471769D01*
X73414552Y-97405447D01*
X73348230Y-97361132D01*
X73348229Y-97361131D01*
X73289752Y-97349500D01*
X73289748Y-97349500D01*
X71550252Y-97349500D01*
X71550247Y-97349500D01*
X71491770Y-97361131D01*
X71491769Y-97361132D01*
X71425447Y-97405447D01*
X71381132Y-97471769D01*
X71381131Y-97471770D01*
X71369500Y-97530247D01*
X56350000Y-97530247D01*
X56350000Y-96674000D01*
X56369685Y-96606961D01*
X56422489Y-96561206D01*
X56474000Y-96550000D01*
X91226000Y-96550000D01*
X91293039Y-96569685D01*
G37*
%TD.AperFunction*%
%TD*%
%TA.AperFunction,Conductor*%
%TO.N,DGND*%
G36*
X56575000Y-127275000D02*
G01*
X56425000Y-127425000D01*
X52076362Y-127425000D01*
X52009323Y-127405315D01*
X51988681Y-127388681D01*
X51661319Y-127061319D01*
X51627834Y-126999996D01*
X51625000Y-126973638D01*
X51625000Y-124350000D01*
X51450000Y-124175000D01*
X50351362Y-124175000D01*
X50284323Y-124155315D01*
X50263681Y-124138681D01*
X49661319Y-123536319D01*
X49627834Y-123474996D01*
X49625000Y-123448638D01*
X49625000Y-121799000D01*
X49644685Y-121731961D01*
X49697489Y-121686206D01*
X49749000Y-121675000D01*
X56350000Y-121675000D01*
X56575000Y-121675000D01*
X56575000Y-127275000D01*
G37*
%TD.AperFunction*%
%TD*%
%TA.AperFunction,Conductor*%
%TO.N,AGND*%
G36*
X55893039Y-119219685D02*
G01*
X55938794Y-119272489D01*
X55950000Y-119324000D01*
X55950000Y-120748638D01*
X55930315Y-120815677D01*
X55913681Y-120836319D01*
X55636319Y-121113681D01*
X55574996Y-121147166D01*
X55548638Y-121150000D01*
X54550000Y-121150000D01*
X54250000Y-120850000D01*
X54250000Y-119625000D01*
X54675000Y-119200000D01*
X54800000Y-119200000D01*
X55826000Y-119200000D01*
X55893039Y-119219685D01*
G37*
%TD.AperFunction*%
%TD*%
%TA.AperFunction,Conductor*%
%TO.N,AGND*%
G36*
X32513161Y-96520185D02*
G01*
X32558916Y-96572989D01*
X32568860Y-96642147D01*
X32539835Y-96705703D01*
X32481057Y-96743477D01*
X32473715Y-96745391D01*
X32408159Y-96760353D01*
X32153193Y-96849569D01*
X32153189Y-96849571D01*
X31909828Y-96966767D01*
X31681110Y-97110481D01*
X31560342Y-97206789D01*
X32741790Y-98388237D01*
X32714058Y-98399724D01*
X32589253Y-98483116D01*
X32483116Y-98589253D01*
X32399724Y-98714058D01*
X32388237Y-98741790D01*
X31206789Y-97560342D01*
X31110481Y-97681110D01*
X30966767Y-97909828D01*
X30849571Y-98153189D01*
X30849569Y-98153193D01*
X30760353Y-98408160D01*
X30760352Y-98408162D01*
X30700245Y-98671509D01*
X30700243Y-98671525D01*
X30670000Y-98939933D01*
X30670000Y-99210066D01*
X30700243Y-99478474D01*
X30700245Y-99478490D01*
X30760352Y-99741837D01*
X30760353Y-99741839D01*
X30849569Y-99996806D01*
X30849571Y-99996810D01*
X30966767Y-100240171D01*
X31110485Y-100468895D01*
X31206788Y-100589657D01*
X32388236Y-99408209D01*
X32399724Y-99435942D01*
X32483116Y-99560747D01*
X32589253Y-99666884D01*
X32714058Y-99750276D01*
X32741789Y-99761762D01*
X31560341Y-100943209D01*
X31560341Y-100943210D01*
X31681104Y-101039514D01*
X31909828Y-101183232D01*
X32153189Y-101300428D01*
X32153193Y-101300430D01*
X32408160Y-101389646D01*
X32408162Y-101389647D01*
X32671509Y-101449754D01*
X32671525Y-101449756D01*
X32939933Y-101479999D01*
X32939934Y-101480000D01*
X33210066Y-101480000D01*
X33210066Y-101479999D01*
X33478474Y-101449756D01*
X33478490Y-101449754D01*
X33741837Y-101389647D01*
X33741839Y-101389646D01*
X33996806Y-101300430D01*
X33996810Y-101300428D01*
X34240171Y-101183232D01*
X34240175Y-101183229D01*
X34352185Y-101112849D01*
X34419422Y-101093848D01*
X34486257Y-101114215D01*
X34531472Y-101167483D01*
X34540710Y-101236739D01*
X34525545Y-101279842D01*
X34471733Y-101373046D01*
X34471728Y-101373057D01*
X34372479Y-101612665D01*
X34305353Y-101863186D01*
X34271500Y-102120314D01*
X34271500Y-102379685D01*
X34305353Y-102636813D01*
X34372479Y-102887334D01*
X34471728Y-103126942D01*
X34471733Y-103126953D01*
X34525545Y-103220157D01*
X34542018Y-103288057D01*
X34519166Y-103354084D01*
X34464244Y-103397275D01*
X34394691Y-103403916D01*
X34352186Y-103387151D01*
X34240171Y-103316767D01*
X33996810Y-103199571D01*
X33996806Y-103199569D01*
X33741839Y-103110353D01*
X33741837Y-103110352D01*
X33478490Y-103050245D01*
X33478474Y-103050243D01*
X33210066Y-103020000D01*
X32939934Y-103020000D01*
X32671525Y-103050243D01*
X32671509Y-103050245D01*
X32408162Y-103110352D01*
X32408160Y-103110353D01*
X32153193Y-103199569D01*
X32153189Y-103199571D01*
X31909828Y-103316767D01*
X31681110Y-103460481D01*
X31560342Y-103556789D01*
X32741790Y-104738236D01*
X32714058Y-104749724D01*
X32589253Y-104833116D01*
X32483116Y-104939253D01*
X32399724Y-105064058D01*
X32388237Y-105091790D01*
X31206789Y-103910342D01*
X31110481Y-104031110D01*
X30966767Y-104259828D01*
X30849571Y-104503189D01*
X30849569Y-104503193D01*
X30760353Y-104758160D01*
X30760352Y-104758162D01*
X30700245Y-105021509D01*
X30700243Y-105021525D01*
X30670000Y-105289933D01*
X30670000Y-105560066D01*
X30700243Y-105828474D01*
X30700245Y-105828490D01*
X30760352Y-106091837D01*
X30760353Y-106091839D01*
X30849569Y-106346806D01*
X30849571Y-106346810D01*
X30966767Y-106590171D01*
X31110485Y-106818895D01*
X31206788Y-106939657D01*
X32388236Y-105758209D01*
X32399724Y-105785942D01*
X32483116Y-105910747D01*
X32589253Y-106016884D01*
X32714058Y-106100276D01*
X32741789Y-106111762D01*
X31560341Y-107293210D01*
X31681104Y-107389514D01*
X31909828Y-107533232D01*
X32153189Y-107650428D01*
X32153193Y-107650430D01*
X32408160Y-107739646D01*
X32408162Y-107739647D01*
X32671509Y-107799754D01*
X32671525Y-107799756D01*
X32939933Y-107829999D01*
X32939934Y-107830000D01*
X33210066Y-107830000D01*
X33210066Y-107829999D01*
X33478474Y-107799756D01*
X33478490Y-107799754D01*
X33741837Y-107739647D01*
X33741839Y-107739646D01*
X33996806Y-107650430D01*
X33996810Y-107650428D01*
X34240171Y-107533232D01*
X34468895Y-107389515D01*
X34589657Y-107293209D01*
X33408210Y-106111762D01*
X33435942Y-106100276D01*
X33560747Y-106016884D01*
X33666884Y-105910747D01*
X33750276Y-105785942D01*
X33761763Y-105758209D01*
X34943209Y-106939657D01*
X35039515Y-106818895D01*
X35183232Y-106590171D01*
X35300428Y-106346810D01*
X35300430Y-106346806D01*
X35389646Y-106091839D01*
X35389647Y-106091837D01*
X35449754Y-105828490D01*
X35449756Y-105828474D01*
X35479999Y-105560066D01*
X35480000Y-105560066D01*
X35480000Y-105289934D01*
X35479999Y-105289933D01*
X35449756Y-105021525D01*
X35449754Y-105021509D01*
X35389647Y-104758162D01*
X35389646Y-104758160D01*
X35300430Y-104503193D01*
X35300428Y-104503189D01*
X35183232Y-104259828D01*
X35112848Y-104147813D01*
X35093848Y-104080577D01*
X35114216Y-104013741D01*
X35167483Y-103968527D01*
X35236740Y-103959289D01*
X35279841Y-103974453D01*
X35373054Y-104028270D01*
X35492861Y-104077895D01*
X35612665Y-104127520D01*
X35612666Y-104127520D01*
X35612668Y-104127521D01*
X35863186Y-104194647D01*
X36120322Y-104228500D01*
X36120329Y-104228500D01*
X36379671Y-104228500D01*
X36379678Y-104228500D01*
X36636814Y-104194647D01*
X36887332Y-104127521D01*
X37126946Y-104028270D01*
X37220158Y-103974453D01*
X37288056Y-103957981D01*
X37354083Y-103980833D01*
X37397274Y-104035754D01*
X37403916Y-104105307D01*
X37387151Y-104147813D01*
X37316767Y-104259828D01*
X37199571Y-104503189D01*
X37199569Y-104503193D01*
X37110353Y-104758160D01*
X37110352Y-104758162D01*
X37050245Y-105021509D01*
X37050243Y-105021525D01*
X37020000Y-105289933D01*
X37020000Y-105560066D01*
X37050243Y-105828474D01*
X37050245Y-105828490D01*
X37110352Y-106091837D01*
X37110353Y-106091839D01*
X37199569Y-106346806D01*
X37199571Y-106346810D01*
X37316767Y-106590171D01*
X37460485Y-106818895D01*
X37556788Y-106939657D01*
X38738236Y-105758209D01*
X38749724Y-105785942D01*
X38833116Y-105910747D01*
X38939253Y-106016884D01*
X39064058Y-106100276D01*
X39091789Y-106111762D01*
X37910341Y-107293210D01*
X38031104Y-107389514D01*
X38259828Y-107533232D01*
X38503189Y-107650428D01*
X38503193Y-107650430D01*
X38758160Y-107739646D01*
X38758162Y-107739647D01*
X39021509Y-107799754D01*
X39021525Y-107799756D01*
X39289933Y-107829999D01*
X39289934Y-107830000D01*
X39560066Y-107830000D01*
X39560066Y-107829999D01*
X39828474Y-107799756D01*
X39828490Y-107799754D01*
X40091837Y-107739647D01*
X40091839Y-107739646D01*
X40346806Y-107650430D01*
X40346810Y-107650428D01*
X40590171Y-107533232D01*
X40818895Y-107389515D01*
X40939657Y-107293209D01*
X39758210Y-106111762D01*
X39785942Y-106100276D01*
X39910747Y-106016884D01*
X40016884Y-105910747D01*
X40100276Y-105785942D01*
X40111762Y-105758210D01*
X41293209Y-106939657D01*
X41389515Y-106818895D01*
X41533232Y-106590171D01*
X41650428Y-106346810D01*
X41650430Y-106346806D01*
X41739646Y-106091839D01*
X41739647Y-106091837D01*
X41799754Y-105828490D01*
X41799756Y-105828474D01*
X41829999Y-105560066D01*
X41830000Y-105560066D01*
X41830000Y-105289934D01*
X41829999Y-105289933D01*
X41799756Y-105021525D01*
X41799754Y-105021509D01*
X41739647Y-104758162D01*
X41739646Y-104758160D01*
X41650430Y-104503193D01*
X41650428Y-104503189D01*
X41533232Y-104259828D01*
X41389514Y-104031104D01*
X41293210Y-103910341D01*
X40111762Y-105091789D01*
X40100276Y-105064058D01*
X40016884Y-104939253D01*
X39910747Y-104833116D01*
X39785942Y-104749724D01*
X39758209Y-104738236D01*
X40939657Y-103556788D01*
X40818895Y-103460485D01*
X40590171Y-103316767D01*
X40346810Y-103199571D01*
X40346806Y-103199569D01*
X40091839Y-103110353D01*
X40091837Y-103110352D01*
X39828490Y-103050245D01*
X39828474Y-103050243D01*
X39560066Y-103020000D01*
X39289934Y-103020000D01*
X39021525Y-103050243D01*
X39021509Y-103050245D01*
X38758162Y-103110352D01*
X38758160Y-103110353D01*
X38503193Y-103199569D01*
X38503189Y-103199571D01*
X38259828Y-103316767D01*
X38147813Y-103387151D01*
X38080576Y-103406151D01*
X38013741Y-103385783D01*
X37968527Y-103332515D01*
X37959290Y-103263258D01*
X37974454Y-103220157D01*
X38028270Y-103126946D01*
X38127521Y-102887332D01*
X38194647Y-102636814D01*
X38228500Y-102379678D01*
X38228500Y-102120322D01*
X38194647Y-101863186D01*
X38127521Y-101612668D01*
X38028270Y-101373054D01*
X37974453Y-101279841D01*
X37957981Y-101211942D01*
X37980833Y-101145915D01*
X38035754Y-101102725D01*
X38105308Y-101096083D01*
X38147813Y-101112848D01*
X38259828Y-101183232D01*
X38503189Y-101300428D01*
X38503193Y-101300430D01*
X38758160Y-101389646D01*
X38758162Y-101389647D01*
X39021509Y-101449754D01*
X39021525Y-101449756D01*
X39289933Y-101479999D01*
X39289934Y-101480000D01*
X39560066Y-101480000D01*
X39560066Y-101479999D01*
X39828474Y-101449756D01*
X39828490Y-101449754D01*
X40091837Y-101389647D01*
X40091839Y-101389646D01*
X40346806Y-101300430D01*
X40346810Y-101300428D01*
X40590171Y-101183232D01*
X40818895Y-101039515D01*
X40939657Y-100943209D01*
X39758209Y-99761763D01*
X39785942Y-99750276D01*
X39910747Y-99666884D01*
X40016884Y-99560747D01*
X40100276Y-99435942D01*
X40111762Y-99408210D01*
X41293209Y-100589657D01*
X41389515Y-100468895D01*
X41533232Y-100240171D01*
X41650428Y-99996810D01*
X41650430Y-99996806D01*
X41739646Y-99741839D01*
X41739647Y-99741837D01*
X41799754Y-99478490D01*
X41799756Y-99478474D01*
X41829999Y-99210066D01*
X41830000Y-99210066D01*
X41830000Y-98939934D01*
X41829999Y-98939933D01*
X41799756Y-98671525D01*
X41799754Y-98671509D01*
X41739647Y-98408162D01*
X41739646Y-98408160D01*
X41650430Y-98153193D01*
X41650428Y-98153189D01*
X41533232Y-97909828D01*
X41389514Y-97681104D01*
X41293210Y-97560341D01*
X40111762Y-98741789D01*
X40100276Y-98714058D01*
X40016884Y-98589253D01*
X39910747Y-98483116D01*
X39785942Y-98399724D01*
X39758208Y-98388236D01*
X40939657Y-97206788D01*
X40818895Y-97110485D01*
X40590171Y-96966767D01*
X40346810Y-96849571D01*
X40346806Y-96849569D01*
X40091839Y-96760353D01*
X40091841Y-96760353D01*
X40026285Y-96745391D01*
X39965307Y-96711282D01*
X39932449Y-96649621D01*
X39938144Y-96579984D01*
X39980584Y-96524480D01*
X40046294Y-96500732D01*
X40053878Y-96500500D01*
X54676346Y-96500500D01*
X54743385Y-96520185D01*
X54789140Y-96572989D01*
X54796667Y-96625335D01*
X54800000Y-96625335D01*
X54800000Y-96650000D01*
X54800000Y-119200000D01*
X54675000Y-119200000D01*
X54250000Y-119625000D01*
X54250000Y-120850000D01*
X54550000Y-121150000D01*
X54800000Y-121150000D01*
X54800000Y-121345500D01*
X54780315Y-121412539D01*
X54727511Y-121458294D01*
X54676000Y-121469500D01*
X49748992Y-121469500D01*
X49705313Y-121474197D01*
X49653825Y-121485397D01*
X49643627Y-121487890D01*
X49643624Y-121487891D01*
X49562916Y-121530899D01*
X49562913Y-121530901D01*
X49510104Y-121576660D01*
X49492160Y-121594242D01*
X49492154Y-121594249D01*
X49447511Y-121674059D01*
X49447509Y-121674064D01*
X49427826Y-121741096D01*
X49419500Y-121799003D01*
X49419500Y-123448638D01*
X49420678Y-123470618D01*
X49423511Y-123496965D01*
X49423512Y-123496967D01*
X49447470Y-123573478D01*
X49447471Y-123573483D01*
X49453383Y-123584309D01*
X49480956Y-123634805D01*
X49480958Y-123634808D01*
X49480960Y-123634811D01*
X49515998Y-123681615D01*
X49516002Y-123681619D01*
X49516009Y-123681629D01*
X49516016Y-123681636D01*
X50118365Y-124283986D01*
X50118366Y-124283987D01*
X50134716Y-124298674D01*
X50134730Y-124298686D01*
X50134738Y-124298693D01*
X50143136Y-124305460D01*
X50155379Y-124315327D01*
X50226424Y-124352490D01*
X50293456Y-124372173D01*
X50293458Y-124372173D01*
X50293464Y-124372175D01*
X50351362Y-124380500D01*
X51295500Y-124380500D01*
X51362539Y-124400185D01*
X51408294Y-124452989D01*
X51419500Y-124504500D01*
X51419500Y-126973638D01*
X51420678Y-126995618D01*
X51423511Y-127021965D01*
X51423512Y-127021967D01*
X51447470Y-127098478D01*
X51447471Y-127098483D01*
X51461872Y-127124855D01*
X51480956Y-127159805D01*
X51480958Y-127159808D01*
X51480960Y-127159811D01*
X51515998Y-127206615D01*
X51516002Y-127206619D01*
X51516009Y-127206629D01*
X51516016Y-127206636D01*
X51843365Y-127533986D01*
X51843366Y-127533987D01*
X51859716Y-127548674D01*
X51859730Y-127548686D01*
X51859738Y-127548693D01*
X51868136Y-127555460D01*
X51880379Y-127565327D01*
X51951424Y-127602490D01*
X52018456Y-127622173D01*
X52018458Y-127622173D01*
X52018464Y-127622175D01*
X52076362Y-127630500D01*
X52076366Y-127630500D01*
X54676000Y-127630500D01*
X54743039Y-127650185D01*
X54788794Y-127702989D01*
X54800000Y-127754500D01*
X54800000Y-128748638D01*
X54780315Y-128815677D01*
X54763681Y-128836319D01*
X52311319Y-131288681D01*
X52249996Y-131322166D01*
X52223638Y-131325000D01*
X30174000Y-131325000D01*
X30106961Y-131305315D01*
X30061206Y-131252511D01*
X30050000Y-131201000D01*
X30050000Y-128115691D01*
X41124500Y-128115691D01*
X41124500Y-128234309D01*
X41155201Y-128348886D01*
X41214511Y-128451613D01*
X41298387Y-128535489D01*
X41401114Y-128594799D01*
X41515691Y-128625500D01*
X41515694Y-128625500D01*
X41634306Y-128625500D01*
X41634309Y-128625500D01*
X41748886Y-128594799D01*
X41851613Y-128535489D01*
X41935489Y-128451613D01*
X41941795Y-128440691D01*
X47324500Y-128440691D01*
X47324500Y-128559309D01*
X47355201Y-128673886D01*
X47414511Y-128776613D01*
X47498387Y-128860489D01*
X47601114Y-128919799D01*
X47715691Y-128950500D01*
X47715694Y-128950500D01*
X47834306Y-128950500D01*
X47834309Y-128950500D01*
X47948886Y-128919799D01*
X48051613Y-128860489D01*
X48135489Y-128776613D01*
X48194799Y-128673886D01*
X48225500Y-128559309D01*
X48225500Y-128440691D01*
X48194799Y-128326114D01*
X48135489Y-128223387D01*
X48051613Y-128139511D01*
X47948886Y-128080201D01*
X47834309Y-128049500D01*
X47715691Y-128049500D01*
X47601114Y-128080201D01*
X47601112Y-128080201D01*
X47601112Y-128080202D01*
X47498387Y-128139511D01*
X47498384Y-128139513D01*
X47414513Y-128223384D01*
X47414511Y-128223387D01*
X47355201Y-128326114D01*
X47324500Y-128440691D01*
X41941795Y-128440691D01*
X41982285Y-128370563D01*
X41982285Y-128370562D01*
X41994796Y-128348893D01*
X41994797Y-128348890D01*
X41994798Y-128348887D01*
X41994799Y-128348886D01*
X42025500Y-128234309D01*
X42025500Y-128115691D01*
X41994799Y-128001114D01*
X41935489Y-127898387D01*
X41851613Y-127814511D01*
X41748886Y-127755201D01*
X41634309Y-127724500D01*
X41515691Y-127724500D01*
X41401114Y-127755201D01*
X41401112Y-127755201D01*
X41401112Y-127755202D01*
X41298387Y-127814511D01*
X41298384Y-127814513D01*
X41214513Y-127898384D01*
X41214511Y-127898387D01*
X41155201Y-128001114D01*
X41124500Y-128115691D01*
X30050000Y-128115691D01*
X30050000Y-125440691D01*
X44449500Y-125440691D01*
X44449500Y-125559309D01*
X44480201Y-125673886D01*
X44539511Y-125776613D01*
X44623387Y-125860489D01*
X44726114Y-125919799D01*
X44840691Y-125950500D01*
X44840694Y-125950500D01*
X44959306Y-125950500D01*
X44959309Y-125950500D01*
X45073886Y-125919799D01*
X45176613Y-125860489D01*
X45260489Y-125776613D01*
X45319799Y-125673886D01*
X45350500Y-125559309D01*
X45350500Y-125440691D01*
X45319799Y-125326114D01*
X45260489Y-125223387D01*
X45176613Y-125139511D01*
X45073886Y-125080201D01*
X44959309Y-125049500D01*
X44840691Y-125049500D01*
X44726114Y-125080201D01*
X44726112Y-125080201D01*
X44726112Y-125080202D01*
X44623387Y-125139511D01*
X44623384Y-125139513D01*
X44539513Y-125223384D01*
X44539511Y-125223387D01*
X44480201Y-125326114D01*
X44449500Y-125440691D01*
X30050000Y-125440691D01*
X30050000Y-119340691D01*
X48674500Y-119340691D01*
X48674500Y-119459309D01*
X48705201Y-119573886D01*
X48764511Y-119676613D01*
X48848387Y-119760489D01*
X48951114Y-119819799D01*
X49065691Y-119850500D01*
X49065694Y-119850500D01*
X49184306Y-119850500D01*
X49184309Y-119850500D01*
X49298886Y-119819799D01*
X49401613Y-119760489D01*
X49485489Y-119676613D01*
X49544799Y-119573886D01*
X49575500Y-119459309D01*
X49575500Y-119340691D01*
X49544799Y-119226114D01*
X49485489Y-119123387D01*
X49401613Y-119039511D01*
X49298886Y-118980201D01*
X49184309Y-118949500D01*
X49065691Y-118949500D01*
X48951114Y-118980201D01*
X48951112Y-118980201D01*
X48951112Y-118980202D01*
X48848387Y-119039511D01*
X48848384Y-119039513D01*
X48764513Y-119123384D01*
X48764511Y-119123387D01*
X48705201Y-119226114D01*
X48674500Y-119340691D01*
X30050000Y-119340691D01*
X30050000Y-116890691D01*
X31799500Y-116890691D01*
X31799500Y-117009309D01*
X31830201Y-117123886D01*
X31889511Y-117226613D01*
X31973387Y-117310489D01*
X32076114Y-117369799D01*
X32190691Y-117400500D01*
X32190694Y-117400500D01*
X32309306Y-117400500D01*
X32309309Y-117400500D01*
X32423886Y-117369799D01*
X32526613Y-117310489D01*
X32610489Y-117226613D01*
X32669799Y-117123886D01*
X32700500Y-117009309D01*
X32700500Y-116890691D01*
X32669799Y-116776114D01*
X32610489Y-116673387D01*
X32526613Y-116589511D01*
X32423886Y-116530201D01*
X32309309Y-116499500D01*
X32190691Y-116499500D01*
X32076114Y-116530201D01*
X32076112Y-116530201D01*
X32076112Y-116530202D01*
X31973387Y-116589511D01*
X31973384Y-116589513D01*
X31889513Y-116673384D01*
X31889511Y-116673387D01*
X31830201Y-116776114D01*
X31799500Y-116890691D01*
X30050000Y-116890691D01*
X30050000Y-116315691D01*
X38174500Y-116315691D01*
X38174500Y-116434309D01*
X38205201Y-116548886D01*
X38264511Y-116651613D01*
X38264513Y-116651615D01*
X38325217Y-116712319D01*
X38358702Y-116773642D01*
X38353718Y-116843334D01*
X38325217Y-116887681D01*
X38264513Y-116948384D01*
X38264511Y-116948387D01*
X38205201Y-117051114D01*
X38174500Y-117165691D01*
X38174500Y-117284309D01*
X38205201Y-117398886D01*
X38264511Y-117501613D01*
X38348387Y-117585489D01*
X38451114Y-117644799D01*
X38565691Y-117675500D01*
X38565694Y-117675500D01*
X38684306Y-117675500D01*
X38684309Y-117675500D01*
X38798886Y-117644799D01*
X38901613Y-117585489D01*
X38985489Y-117501613D01*
X39044799Y-117398886D01*
X39075500Y-117284309D01*
X39075500Y-117165691D01*
X39044799Y-117051114D01*
X38985489Y-116948387D01*
X38924783Y-116887681D01*
X38891298Y-116826358D01*
X38896282Y-116756666D01*
X38924783Y-116712319D01*
X38985489Y-116651613D01*
X39044799Y-116548886D01*
X39075500Y-116434309D01*
X39075500Y-116315691D01*
X39044799Y-116201114D01*
X38985489Y-116098387D01*
X38901613Y-116014511D01*
X38798886Y-115955201D01*
X38684309Y-115924500D01*
X38565691Y-115924500D01*
X38451114Y-115955201D01*
X38451112Y-115955201D01*
X38451112Y-115955202D01*
X38348387Y-116014511D01*
X38348384Y-116014513D01*
X38264513Y-116098384D01*
X38264511Y-116098387D01*
X38205201Y-116201114D01*
X38174500Y-116315691D01*
X30050000Y-116315691D01*
X30050000Y-115347577D01*
X38525975Y-115347577D01*
X38631236Y-115391178D01*
X38631240Y-115391179D01*
X38776126Y-115419999D01*
X38776129Y-115420000D01*
X38923871Y-115420000D01*
X38923873Y-115419999D01*
X39068760Y-115391179D01*
X39068775Y-115391175D01*
X39174024Y-115347578D01*
X39174024Y-115347577D01*
X39825975Y-115347577D01*
X39931236Y-115391178D01*
X39931240Y-115391179D01*
X40076126Y-115419999D01*
X40076129Y-115420000D01*
X40223871Y-115420000D01*
X40223873Y-115419999D01*
X40368760Y-115391179D01*
X40368775Y-115391175D01*
X40474024Y-115347578D01*
X40474024Y-115347577D01*
X40150001Y-115023554D01*
X40150000Y-115023554D01*
X39825975Y-115347577D01*
X39174024Y-115347577D01*
X38850001Y-115023554D01*
X38850000Y-115023554D01*
X38525975Y-115347577D01*
X30050000Y-115347577D01*
X30050000Y-114596126D01*
X38100000Y-114596126D01*
X38100000Y-114743873D01*
X38128820Y-114888759D01*
X38128822Y-114888767D01*
X38172421Y-114994024D01*
X38496446Y-114670000D01*
X38496446Y-114669999D01*
X38466610Y-114640163D01*
X38700000Y-114640163D01*
X38700000Y-114699837D01*
X38722836Y-114754968D01*
X38765032Y-114797164D01*
X38820163Y-114820000D01*
X38879837Y-114820000D01*
X38934968Y-114797164D01*
X38977164Y-114754968D01*
X39000000Y-114699837D01*
X39000000Y-114670000D01*
X39203554Y-114670000D01*
X39500000Y-114966446D01*
X39796446Y-114670000D01*
X39766609Y-114640163D01*
X40000000Y-114640163D01*
X40000000Y-114699837D01*
X40022836Y-114754968D01*
X40065032Y-114797164D01*
X40120163Y-114820000D01*
X40179837Y-114820000D01*
X40234968Y-114797164D01*
X40277164Y-114754968D01*
X40300000Y-114699837D01*
X40300000Y-114669999D01*
X40503554Y-114669999D01*
X40503554Y-114670001D01*
X40827577Y-114994024D01*
X40827578Y-114994024D01*
X40871175Y-114888775D01*
X40871179Y-114888760D01*
X40899999Y-114743873D01*
X40900000Y-114743871D01*
X40900000Y-114596128D01*
X40899999Y-114596126D01*
X40871179Y-114451240D01*
X40871178Y-114451236D01*
X40827577Y-114345975D01*
X40503554Y-114669999D01*
X40300000Y-114669999D01*
X40300000Y-114640163D01*
X40277164Y-114585032D01*
X40234968Y-114542836D01*
X40179837Y-114520000D01*
X40120163Y-114520000D01*
X40065032Y-114542836D01*
X40022836Y-114585032D01*
X40000000Y-114640163D01*
X39766609Y-114640163D01*
X39500000Y-114373554D01*
X39203554Y-114670000D01*
X39000000Y-114670000D01*
X39000000Y-114640163D01*
X38977164Y-114585032D01*
X38934968Y-114542836D01*
X38879837Y-114520000D01*
X38820163Y-114520000D01*
X38765032Y-114542836D01*
X38722836Y-114585032D01*
X38700000Y-114640163D01*
X38466610Y-114640163D01*
X38172421Y-114345974D01*
X38172420Y-114345974D01*
X38128823Y-114451228D01*
X38128820Y-114451240D01*
X38100000Y-114596126D01*
X30050000Y-114596126D01*
X30050000Y-114019999D01*
X38553554Y-114019999D01*
X38553554Y-114020000D01*
X38850000Y-114316446D01*
X38850001Y-114316446D01*
X39146446Y-114019999D01*
X39146446Y-114019998D01*
X39853553Y-114019998D01*
X39853553Y-114019999D01*
X40150000Y-114316446D01*
X40150001Y-114316446D01*
X40446445Y-114020000D01*
X40446445Y-114019999D01*
X40367137Y-113940691D01*
X43449500Y-113940691D01*
X43449500Y-114059309D01*
X43480201Y-114173886D01*
X43539511Y-114276613D01*
X43623387Y-114360489D01*
X43726114Y-114419799D01*
X43840691Y-114450500D01*
X43840694Y-114450500D01*
X43959306Y-114450500D01*
X43959309Y-114450500D01*
X44073886Y-114419799D01*
X44176613Y-114360489D01*
X44260489Y-114276613D01*
X44319799Y-114173886D01*
X44350500Y-114059309D01*
X44350500Y-113940691D01*
X44319799Y-113826114D01*
X44260489Y-113723387D01*
X44176613Y-113639511D01*
X44073886Y-113580201D01*
X43959309Y-113549500D01*
X43840691Y-113549500D01*
X43726114Y-113580201D01*
X43726112Y-113580201D01*
X43726112Y-113580202D01*
X43623387Y-113639511D01*
X43623384Y-113639513D01*
X43539513Y-113723384D01*
X43539511Y-113723387D01*
X43524435Y-113749500D01*
X43480201Y-113826114D01*
X43449500Y-113940691D01*
X40367137Y-113940691D01*
X40150000Y-113723554D01*
X40149999Y-113723554D01*
X39853553Y-114019998D01*
X39146446Y-114019998D01*
X38850002Y-113723554D01*
X38850001Y-113723554D01*
X38553554Y-114019999D01*
X30050000Y-114019999D01*
X30050000Y-113296126D01*
X38100001Y-113296126D01*
X38100001Y-113443873D01*
X38128821Y-113588759D01*
X38128823Y-113588767D01*
X38172422Y-113694024D01*
X38496447Y-113370000D01*
X38496447Y-113369999D01*
X38466611Y-113340163D01*
X38700001Y-113340163D01*
X38700001Y-113399837D01*
X38722837Y-113454968D01*
X38765033Y-113497164D01*
X38820164Y-113520000D01*
X38879838Y-113520000D01*
X38934969Y-113497164D01*
X38977165Y-113454968D01*
X39000001Y-113399837D01*
X39000001Y-113370000D01*
X39203555Y-113370000D01*
X39500000Y-113666445D01*
X39796445Y-113370000D01*
X39766608Y-113340163D01*
X39999999Y-113340163D01*
X39999999Y-113399837D01*
X40022835Y-113454968D01*
X40065031Y-113497164D01*
X40120162Y-113520000D01*
X40179836Y-113520000D01*
X40234967Y-113497164D01*
X40277163Y-113454968D01*
X40299999Y-113399837D01*
X40299999Y-113369999D01*
X40503553Y-113369999D01*
X40503553Y-113370001D01*
X40827576Y-113694024D01*
X40827577Y-113694024D01*
X40871174Y-113588775D01*
X40871178Y-113588760D01*
X40899998Y-113443873D01*
X40899999Y-113443871D01*
X40899999Y-113296128D01*
X40899998Y-113296126D01*
X40871178Y-113151240D01*
X40871177Y-113151236D01*
X40827576Y-113045975D01*
X40503553Y-113369999D01*
X40299999Y-113369999D01*
X40299999Y-113340163D01*
X40277163Y-113285032D01*
X40234967Y-113242836D01*
X40179836Y-113220000D01*
X40120162Y-113220000D01*
X40065031Y-113242836D01*
X40022835Y-113285032D01*
X39999999Y-113340163D01*
X39766608Y-113340163D01*
X39500000Y-113073555D01*
X39203555Y-113370000D01*
X39000001Y-113370000D01*
X39000001Y-113340163D01*
X38977165Y-113285032D01*
X38934969Y-113242836D01*
X38879838Y-113220000D01*
X38820164Y-113220000D01*
X38765033Y-113242836D01*
X38722837Y-113285032D01*
X38700001Y-113340163D01*
X38466611Y-113340163D01*
X38172422Y-113045974D01*
X38172421Y-113045974D01*
X38128824Y-113151228D01*
X38128821Y-113151240D01*
X38100001Y-113296126D01*
X30050000Y-113296126D01*
X30050000Y-112719998D01*
X38553554Y-112719998D01*
X38553554Y-112719999D01*
X38850001Y-113016446D01*
X38850002Y-113016446D01*
X39146446Y-112720000D01*
X39146446Y-112719999D01*
X39853553Y-112719999D01*
X39853553Y-112720000D01*
X40149999Y-113016446D01*
X40150000Y-113016446D01*
X40446445Y-112719999D01*
X40446445Y-112719998D01*
X40150001Y-112423554D01*
X40150000Y-112423554D01*
X39853553Y-112719999D01*
X39146446Y-112719999D01*
X38850001Y-112423554D01*
X38850000Y-112423554D01*
X38553554Y-112719998D01*
X30050000Y-112719998D01*
X30050000Y-111996126D01*
X38100000Y-111996126D01*
X38100000Y-112143873D01*
X38128820Y-112288759D01*
X38128822Y-112288767D01*
X38172421Y-112394024D01*
X38496446Y-112070000D01*
X38496446Y-112069999D01*
X38466610Y-112040163D01*
X38700000Y-112040163D01*
X38700000Y-112099837D01*
X38722836Y-112154968D01*
X38765032Y-112197164D01*
X38820163Y-112220000D01*
X38879837Y-112220000D01*
X38934968Y-112197164D01*
X38977164Y-112154968D01*
X39000000Y-112099837D01*
X39000000Y-112070000D01*
X39203554Y-112070000D01*
X39500000Y-112366446D01*
X39796446Y-112070000D01*
X39766609Y-112040163D01*
X40000000Y-112040163D01*
X40000000Y-112099837D01*
X40022836Y-112154968D01*
X40065032Y-112197164D01*
X40120163Y-112220000D01*
X40179837Y-112220000D01*
X40234968Y-112197164D01*
X40277164Y-112154968D01*
X40300000Y-112099837D01*
X40300000Y-112069999D01*
X40503554Y-112069999D01*
X40503554Y-112070001D01*
X40827577Y-112394024D01*
X40827578Y-112394024D01*
X40871175Y-112288775D01*
X40871179Y-112288760D01*
X40875768Y-112265691D01*
X52974500Y-112265691D01*
X52974500Y-112384309D01*
X53005201Y-112498886D01*
X53064511Y-112601613D01*
X53148387Y-112685489D01*
X53251114Y-112744799D01*
X53365691Y-112775500D01*
X53365694Y-112775500D01*
X53484306Y-112775500D01*
X53484309Y-112775500D01*
X53598886Y-112744799D01*
X53701613Y-112685489D01*
X53785489Y-112601613D01*
X53844799Y-112498886D01*
X53875500Y-112384309D01*
X53875500Y-112265691D01*
X53844799Y-112151114D01*
X53785489Y-112048387D01*
X53701613Y-111964511D01*
X53598886Y-111905201D01*
X53484309Y-111874500D01*
X53365691Y-111874500D01*
X53251114Y-111905201D01*
X53251112Y-111905201D01*
X53251112Y-111905202D01*
X53148387Y-111964511D01*
X53148384Y-111964513D01*
X53064513Y-112048384D01*
X53064511Y-112048387D01*
X53009382Y-112143873D01*
X53005201Y-112151114D01*
X52974500Y-112265691D01*
X40875768Y-112265691D01*
X40882197Y-112233373D01*
X40882197Y-112233372D01*
X40900000Y-112143871D01*
X40900000Y-111996128D01*
X40899999Y-111996126D01*
X40871179Y-111851240D01*
X40871178Y-111851236D01*
X40827577Y-111745975D01*
X40503554Y-112069999D01*
X40300000Y-112069999D01*
X40300000Y-112040163D01*
X40277164Y-111985032D01*
X40234968Y-111942836D01*
X40179837Y-111920000D01*
X40120163Y-111920000D01*
X40065032Y-111942836D01*
X40022836Y-111985032D01*
X40000000Y-112040163D01*
X39766609Y-112040163D01*
X39500000Y-111773554D01*
X39203554Y-112070000D01*
X39000000Y-112070000D01*
X39000000Y-112040163D01*
X38977164Y-111985032D01*
X38934968Y-111942836D01*
X38879837Y-111920000D01*
X38820163Y-111920000D01*
X38765032Y-111942836D01*
X38722836Y-111985032D01*
X38700000Y-112040163D01*
X38466610Y-112040163D01*
X38172421Y-111745974D01*
X38172420Y-111745974D01*
X38128823Y-111851228D01*
X38128820Y-111851240D01*
X38100000Y-111996126D01*
X30050000Y-111996126D01*
X30050000Y-111392420D01*
X38525974Y-111392420D01*
X38525974Y-111392421D01*
X38850000Y-111716446D01*
X38850001Y-111716446D01*
X39174024Y-111392421D01*
X39174022Y-111392420D01*
X39825974Y-111392420D01*
X39825974Y-111392421D01*
X40150000Y-111716446D01*
X40150001Y-111716446D01*
X40474024Y-111392421D01*
X40368767Y-111348822D01*
X40368759Y-111348820D01*
X40223872Y-111320000D01*
X40076128Y-111320000D01*
X39931240Y-111348820D01*
X39931228Y-111348823D01*
X39825974Y-111392420D01*
X39174022Y-111392420D01*
X39068767Y-111348822D01*
X39068759Y-111348820D01*
X38923872Y-111320000D01*
X38776128Y-111320000D01*
X38631240Y-111348820D01*
X38631228Y-111348823D01*
X38525974Y-111392420D01*
X30050000Y-111392420D01*
X30050000Y-109740691D01*
X34349500Y-109740691D01*
X34349500Y-109859309D01*
X34380201Y-109973886D01*
X34439511Y-110076613D01*
X34523387Y-110160489D01*
X34626114Y-110219799D01*
X34740691Y-110250500D01*
X34740694Y-110250500D01*
X34859306Y-110250500D01*
X34859309Y-110250500D01*
X34973886Y-110219799D01*
X35076613Y-110160489D01*
X35160489Y-110076613D01*
X35219799Y-109973886D01*
X35250500Y-109859309D01*
X35250500Y-109740691D01*
X35219799Y-109626114D01*
X35219797Y-109626110D01*
X35216019Y-109619566D01*
X35216018Y-109619565D01*
X35210911Y-109610720D01*
X35184913Y-109565691D01*
X43149500Y-109565691D01*
X43149500Y-109684309D01*
X43180201Y-109798886D01*
X43239511Y-109901613D01*
X43323387Y-109985489D01*
X43426114Y-110044799D01*
X43540691Y-110075500D01*
X43540694Y-110075500D01*
X43659306Y-110075500D01*
X43659309Y-110075500D01*
X43773886Y-110044799D01*
X43876613Y-109985489D01*
X43912319Y-109949783D01*
X43973642Y-109916298D01*
X44043334Y-109921282D01*
X44087681Y-109949783D01*
X44123387Y-109985489D01*
X44226114Y-110044799D01*
X44340691Y-110075500D01*
X44340694Y-110075500D01*
X44459306Y-110075500D01*
X44459309Y-110075500D01*
X44573886Y-110044799D01*
X44676613Y-109985489D01*
X44760489Y-109901613D01*
X44819799Y-109798886D01*
X44850500Y-109684309D01*
X44850500Y-109565691D01*
X44819799Y-109451114D01*
X44760489Y-109348387D01*
X44676613Y-109264511D01*
X44573886Y-109205201D01*
X44459309Y-109174500D01*
X44340691Y-109174500D01*
X44226114Y-109205201D01*
X44226112Y-109205201D01*
X44226112Y-109205202D01*
X44123387Y-109264511D01*
X44123384Y-109264513D01*
X44087681Y-109300217D01*
X44026358Y-109333702D01*
X43956666Y-109328718D01*
X43912319Y-109300217D01*
X43876615Y-109264513D01*
X43876613Y-109264511D01*
X43773886Y-109205201D01*
X43659309Y-109174500D01*
X43540691Y-109174500D01*
X43426114Y-109205201D01*
X43426112Y-109205201D01*
X43426112Y-109205202D01*
X43323387Y-109264511D01*
X43323384Y-109264513D01*
X43239513Y-109348384D01*
X43239511Y-109348387D01*
X43180201Y-109451114D01*
X43149500Y-109565691D01*
X35184913Y-109565691D01*
X35160489Y-109523387D01*
X35076613Y-109439511D01*
X34973886Y-109380201D01*
X34859309Y-109349500D01*
X34740691Y-109349500D01*
X34626114Y-109380201D01*
X34626112Y-109380201D01*
X34626112Y-109380202D01*
X34523387Y-109439511D01*
X34523384Y-109439513D01*
X34439513Y-109523384D01*
X34439511Y-109523387D01*
X34383982Y-109619566D01*
X34380201Y-109626114D01*
X34349500Y-109740691D01*
X30050000Y-109740691D01*
X30050000Y-96624500D01*
X30069685Y-96557461D01*
X30122489Y-96511706D01*
X30174000Y-96500500D01*
X32446122Y-96500500D01*
X32513161Y-96520185D01*
G37*
%TD.AperFunction*%
%TA.AperFunction,Conductor*%
G36*
X38863161Y-96520185D02*
G01*
X38908916Y-96572989D01*
X38918860Y-96642147D01*
X38889835Y-96705703D01*
X38831057Y-96743477D01*
X38823715Y-96745391D01*
X38758159Y-96760353D01*
X38503193Y-96849569D01*
X38503189Y-96849571D01*
X38259828Y-96966767D01*
X38031110Y-97110481D01*
X37910342Y-97206789D01*
X39091790Y-98388237D01*
X39064058Y-98399724D01*
X38939253Y-98483116D01*
X38833116Y-98589253D01*
X38749724Y-98714058D01*
X38738236Y-98741790D01*
X37556789Y-97560342D01*
X37460481Y-97681110D01*
X37316767Y-97909828D01*
X37199571Y-98153189D01*
X37199569Y-98153193D01*
X37110353Y-98408160D01*
X37110352Y-98408162D01*
X37050245Y-98671509D01*
X37050243Y-98671525D01*
X37020000Y-98939933D01*
X37020000Y-99210066D01*
X37050243Y-99478474D01*
X37050245Y-99478490D01*
X37110352Y-99741837D01*
X37110353Y-99741839D01*
X37199569Y-99996806D01*
X37199571Y-99996810D01*
X37316767Y-100240171D01*
X37387151Y-100352186D01*
X37406151Y-100419423D01*
X37385783Y-100486258D01*
X37332515Y-100531472D01*
X37263259Y-100540709D01*
X37220157Y-100525545D01*
X37126953Y-100471733D01*
X37126942Y-100471728D01*
X36887334Y-100372479D01*
X36720320Y-100327728D01*
X36636814Y-100305353D01*
X36604672Y-100301121D01*
X36379685Y-100271500D01*
X36379678Y-100271500D01*
X36120322Y-100271500D01*
X36120314Y-100271500D01*
X35863186Y-100305353D01*
X35612665Y-100372479D01*
X35373057Y-100471728D01*
X35373046Y-100471733D01*
X35279842Y-100525545D01*
X35211941Y-100542018D01*
X35145915Y-100519165D01*
X35102724Y-100464244D01*
X35096083Y-100394691D01*
X35112849Y-100352185D01*
X35183229Y-100240175D01*
X35183232Y-100240171D01*
X35300428Y-99996810D01*
X35300430Y-99996806D01*
X35389646Y-99741839D01*
X35389647Y-99741837D01*
X35449754Y-99478490D01*
X35449756Y-99478474D01*
X35479999Y-99210066D01*
X35480000Y-99210066D01*
X35480000Y-98939934D01*
X35479999Y-98939933D01*
X35449756Y-98671525D01*
X35449754Y-98671509D01*
X35389647Y-98408162D01*
X35389646Y-98408160D01*
X35300430Y-98153193D01*
X35300428Y-98153189D01*
X35183232Y-97909828D01*
X35039514Y-97681104D01*
X34943209Y-97560341D01*
X33761762Y-98741789D01*
X33750276Y-98714058D01*
X33666884Y-98589253D01*
X33560747Y-98483116D01*
X33435942Y-98399724D01*
X33408208Y-98388236D01*
X34589657Y-97206788D01*
X34468895Y-97110485D01*
X34240171Y-96966767D01*
X33996810Y-96849571D01*
X33996806Y-96849569D01*
X33741839Y-96760353D01*
X33741841Y-96760353D01*
X33676285Y-96745391D01*
X33615307Y-96711282D01*
X33582449Y-96649621D01*
X33588144Y-96579984D01*
X33630584Y-96524480D01*
X33696294Y-96500732D01*
X33703878Y-96500500D01*
X38796122Y-96500500D01*
X38863161Y-96520185D01*
G37*
%TD.AperFunction*%
%TD*%
%TA.AperFunction,Conductor*%
%TO.N,PGND*%
G36*
X91542539Y-134019685D02*
G01*
X91588294Y-134072489D01*
X91599500Y-134124000D01*
X91599500Y-166075500D01*
X91579815Y-166142539D01*
X91527011Y-166188294D01*
X91475500Y-166199500D01*
X85294073Y-166199500D01*
X85227034Y-166179815D01*
X85181279Y-166127011D01*
X85171335Y-166057853D01*
X85200360Y-165994297D01*
X85206392Y-165987819D01*
X85288299Y-165905911D01*
X85288302Y-165905908D01*
X85392322Y-165750231D01*
X85463973Y-165577251D01*
X85500500Y-165393616D01*
X85500500Y-165206384D01*
X85463973Y-165022749D01*
X85392322Y-164849769D01*
X85392321Y-164849768D01*
X85392318Y-164849762D01*
X85288302Y-164694092D01*
X85288299Y-164694088D01*
X85155911Y-164561700D01*
X85155907Y-164561697D01*
X85000237Y-164457681D01*
X85000228Y-164457676D01*
X84827251Y-164386027D01*
X84827243Y-164386025D01*
X84643620Y-164349500D01*
X84643616Y-164349500D01*
X84456384Y-164349500D01*
X84456379Y-164349500D01*
X84272756Y-164386025D01*
X84272748Y-164386027D01*
X84099771Y-164457676D01*
X84099762Y-164457681D01*
X83944092Y-164561697D01*
X83944088Y-164561700D01*
X83811700Y-164694088D01*
X83811697Y-164694092D01*
X83707681Y-164849762D01*
X83707676Y-164849771D01*
X83636027Y-165022748D01*
X83636025Y-165022756D01*
X83599500Y-165206379D01*
X83599500Y-165393620D01*
X83636025Y-165577243D01*
X83636027Y-165577251D01*
X83707676Y-165750228D01*
X83707681Y-165750237D01*
X83811697Y-165905907D01*
X83811700Y-165905911D01*
X83893608Y-165987819D01*
X83927093Y-166049142D01*
X83922109Y-166118834D01*
X83880237Y-166174767D01*
X83814773Y-166199184D01*
X83805927Y-166199500D01*
X30024500Y-166199500D01*
X29957461Y-166179815D01*
X29911706Y-166127011D01*
X29900500Y-166075500D01*
X29900500Y-162498543D01*
X37081879Y-162498543D01*
X37120327Y-162691829D01*
X37120330Y-162691839D01*
X37195744Y-162873907D01*
X37195751Y-162873920D01*
X37305240Y-163037781D01*
X37305243Y-163037785D01*
X37444594Y-163177136D01*
X37444598Y-163177139D01*
X37608459Y-163286628D01*
X37608472Y-163286635D01*
X37748298Y-163344552D01*
X37790545Y-163362051D01*
X37790549Y-163362051D01*
X37790550Y-163362052D01*
X37983836Y-163400500D01*
X37983839Y-163400500D01*
X38180923Y-163400500D01*
X38310962Y-163374632D01*
X38374215Y-163362051D01*
X38556294Y-163286632D01*
X38720162Y-163177139D01*
X38859519Y-163037782D01*
X38969012Y-162873914D01*
X39044431Y-162691835D01*
X39057012Y-162628582D01*
X39082880Y-162498543D01*
X39082880Y-162301456D01*
X39044432Y-162108170D01*
X39044431Y-162108169D01*
X39044431Y-162108165D01*
X38988306Y-161972665D01*
X38969015Y-161926092D01*
X38969008Y-161926079D01*
X38859519Y-161762218D01*
X38859516Y-161762214D01*
X38720165Y-161622863D01*
X38720161Y-161622860D01*
X38656386Y-161580247D01*
X39581880Y-161580247D01*
X39581880Y-163219752D01*
X39593511Y-163278229D01*
X39593512Y-163278230D01*
X39637827Y-163344552D01*
X39704149Y-163388867D01*
X39704150Y-163388868D01*
X39762627Y-163400499D01*
X39762630Y-163400500D01*
X39762632Y-163400500D01*
X41402130Y-163400500D01*
X41402131Y-163400499D01*
X41416948Y-163397552D01*
X41460609Y-163388868D01*
X41460609Y-163388867D01*
X41460611Y-163388867D01*
X41526932Y-163344552D01*
X41571247Y-163278231D01*
X41571247Y-163278229D01*
X41571248Y-163278229D01*
X41582879Y-163219752D01*
X41582880Y-163219750D01*
X41582880Y-161790691D01*
X50599500Y-161790691D01*
X50599500Y-161909309D01*
X50630201Y-162023886D01*
X50689511Y-162126613D01*
X50689513Y-162126615D01*
X50762717Y-162199819D01*
X50796202Y-162261142D01*
X50791218Y-162330834D01*
X50762717Y-162375181D01*
X50689513Y-162448384D01*
X50689511Y-162448387D01*
X50630201Y-162551114D01*
X50599500Y-162665691D01*
X50599500Y-162784309D01*
X50630201Y-162898886D01*
X50659056Y-162948864D01*
X50681651Y-162987999D01*
X50698124Y-163055900D01*
X50681651Y-163112000D01*
X50630201Y-163201114D01*
X50599500Y-163315691D01*
X50599500Y-163434309D01*
X50630201Y-163548886D01*
X50689511Y-163651613D01*
X50773387Y-163735489D01*
X50876114Y-163794799D01*
X50990691Y-163825500D01*
X50990694Y-163825500D01*
X51109306Y-163825500D01*
X51109309Y-163825500D01*
X51223886Y-163794799D01*
X51326613Y-163735489D01*
X51410489Y-163651613D01*
X51469799Y-163548886D01*
X51500500Y-163434309D01*
X51500500Y-163315691D01*
X51469799Y-163201114D01*
X51469797Y-163201111D01*
X51469797Y-163201109D01*
X51469796Y-163201108D01*
X51418349Y-163112001D01*
X51401875Y-163044101D01*
X51418349Y-162987999D01*
X51440945Y-162948863D01*
X51469799Y-162898886D01*
X51500500Y-162784309D01*
X51500500Y-162665691D01*
X51469799Y-162551114D01*
X51420480Y-162465691D01*
X62699500Y-162465691D01*
X62699500Y-162584309D01*
X62730201Y-162698886D01*
X62789511Y-162801613D01*
X62873387Y-162885489D01*
X62976114Y-162944799D01*
X62983527Y-162946785D01*
X63043187Y-162983146D01*
X63073719Y-163045991D01*
X63065428Y-163115367D01*
X63020945Y-163169247D01*
X63008152Y-163176135D01*
X63008153Y-163176137D01*
X62898387Y-163239511D01*
X62898384Y-163239513D01*
X62814513Y-163323384D01*
X62814511Y-163323387D01*
X62792188Y-163362052D01*
X62755201Y-163426114D01*
X62724500Y-163540691D01*
X62724500Y-163659309D01*
X62755201Y-163773886D01*
X62814511Y-163876613D01*
X62898387Y-163960489D01*
X63001114Y-164019799D01*
X63115691Y-164050500D01*
X63115694Y-164050500D01*
X63234306Y-164050500D01*
X63234309Y-164050500D01*
X63348886Y-164019799D01*
X63451613Y-163960489D01*
X63535489Y-163876613D01*
X63594799Y-163773886D01*
X63625500Y-163659309D01*
X63625500Y-163540691D01*
X63594799Y-163426114D01*
X63535489Y-163323387D01*
X63451613Y-163239511D01*
X63385105Y-163201112D01*
X63348887Y-163180201D01*
X63345871Y-163179393D01*
X63341467Y-163178213D01*
X63281808Y-163141849D01*
X63251279Y-163079002D01*
X63259574Y-163009627D01*
X63304059Y-162955749D01*
X63316847Y-162948864D01*
X63316847Y-162948863D01*
X63323888Y-162944798D01*
X63426613Y-162885489D01*
X63510489Y-162801613D01*
X63569799Y-162698886D01*
X63600500Y-162584309D01*
X63600500Y-162465691D01*
X63597773Y-162455513D01*
X78849500Y-162455513D01*
X78849500Y-164144486D01*
X78879059Y-164331118D01*
X78937454Y-164510836D01*
X78963370Y-164561698D01*
X79023240Y-164679199D01*
X79134310Y-164832073D01*
X79267927Y-164965690D01*
X79420801Y-165076760D01*
X79500347Y-165117290D01*
X79589163Y-165162545D01*
X79589165Y-165162545D01*
X79589168Y-165162547D01*
X79685497Y-165193846D01*
X79768881Y-165220940D01*
X79955514Y-165250500D01*
X79955519Y-165250500D01*
X80144486Y-165250500D01*
X80331118Y-165220940D01*
X80375916Y-165206384D01*
X80510832Y-165162547D01*
X80679199Y-165076760D01*
X80832073Y-164965690D01*
X80965690Y-164832073D01*
X81076760Y-164679199D01*
X81162547Y-164510832D01*
X81220940Y-164331118D01*
X81250500Y-164144486D01*
X81250500Y-162455513D01*
X87849500Y-162455513D01*
X87849500Y-164144486D01*
X87879059Y-164331118D01*
X87937454Y-164510836D01*
X87963370Y-164561698D01*
X88023240Y-164679199D01*
X88134310Y-164832073D01*
X88267927Y-164965690D01*
X88420801Y-165076760D01*
X88500347Y-165117290D01*
X88589163Y-165162545D01*
X88589165Y-165162545D01*
X88589168Y-165162547D01*
X88685497Y-165193846D01*
X88768881Y-165220940D01*
X88955514Y-165250500D01*
X88955519Y-165250500D01*
X89144486Y-165250500D01*
X89331118Y-165220940D01*
X89375916Y-165206384D01*
X89510832Y-165162547D01*
X89679199Y-165076760D01*
X89832073Y-164965690D01*
X89965690Y-164832073D01*
X90076760Y-164679199D01*
X90162547Y-164510832D01*
X90220940Y-164331118D01*
X90250500Y-164144486D01*
X90250500Y-162455513D01*
X90220940Y-162268881D01*
X90174714Y-162126615D01*
X90162547Y-162089168D01*
X90162545Y-162089165D01*
X90162545Y-162089163D01*
X90095339Y-161957264D01*
X90076760Y-161920801D01*
X89965690Y-161767927D01*
X89832073Y-161634310D01*
X89679199Y-161523240D01*
X89659816Y-161513364D01*
X89510836Y-161437454D01*
X89331118Y-161379059D01*
X89144486Y-161349500D01*
X89144481Y-161349500D01*
X88955519Y-161349500D01*
X88955514Y-161349500D01*
X88768881Y-161379059D01*
X88589163Y-161437454D01*
X88420800Y-161523240D01*
X88351784Y-161573384D01*
X88267927Y-161634310D01*
X88267925Y-161634312D01*
X88267924Y-161634312D01*
X88134312Y-161767924D01*
X88134312Y-161767925D01*
X88134310Y-161767927D01*
X88086610Y-161833579D01*
X88023240Y-161920800D01*
X87937454Y-162089163D01*
X87879059Y-162268881D01*
X87849500Y-162455513D01*
X81250500Y-162455513D01*
X81220940Y-162268881D01*
X81174714Y-162126615D01*
X81162547Y-162089168D01*
X81162545Y-162089165D01*
X81162545Y-162089163D01*
X81095339Y-161957264D01*
X81076760Y-161920801D01*
X80965690Y-161767927D01*
X80832073Y-161634310D01*
X80679199Y-161523240D01*
X80659816Y-161513364D01*
X80510836Y-161437454D01*
X80331118Y-161379059D01*
X80144486Y-161349500D01*
X80144481Y-161349500D01*
X79955519Y-161349500D01*
X79955514Y-161349500D01*
X79768881Y-161379059D01*
X79589163Y-161437454D01*
X79420800Y-161523240D01*
X79351784Y-161573384D01*
X79267927Y-161634310D01*
X79267925Y-161634312D01*
X79267924Y-161634312D01*
X79134312Y-161767924D01*
X79134312Y-161767925D01*
X79134310Y-161767927D01*
X79086610Y-161833579D01*
X79023240Y-161920800D01*
X78937454Y-162089163D01*
X78879059Y-162268881D01*
X78849500Y-162455513D01*
X63597773Y-162455513D01*
X63569799Y-162351114D01*
X63510489Y-162248387D01*
X63429837Y-162167735D01*
X63396352Y-162106412D01*
X63401336Y-162036720D01*
X63443208Y-161980787D01*
X63455501Y-161972677D01*
X63476613Y-161960489D01*
X63560489Y-161876613D01*
X63619799Y-161773886D01*
X63650500Y-161659309D01*
X63650500Y-161540691D01*
X63619799Y-161426114D01*
X63560489Y-161323387D01*
X63476613Y-161239511D01*
X63373886Y-161180201D01*
X63259309Y-161149500D01*
X63140691Y-161149500D01*
X63026114Y-161180201D01*
X63026112Y-161180201D01*
X63026112Y-161180202D01*
X62923387Y-161239511D01*
X62923384Y-161239513D01*
X62839513Y-161323384D01*
X62839511Y-161323387D01*
X62788852Y-161411131D01*
X62780201Y-161426114D01*
X62749500Y-161540691D01*
X62749500Y-161659309D01*
X62780201Y-161773886D01*
X62839511Y-161876613D01*
X62839513Y-161876615D01*
X62920162Y-161957264D01*
X62953647Y-162018587D01*
X62948663Y-162088279D01*
X62906791Y-162144212D01*
X62894482Y-162152331D01*
X62873393Y-162164507D01*
X62873384Y-162164513D01*
X62789513Y-162248384D01*
X62789511Y-162248387D01*
X62737572Y-162338348D01*
X62730201Y-162351114D01*
X62699500Y-162465691D01*
X51420480Y-162465691D01*
X51410489Y-162448387D01*
X51332102Y-162370000D01*
X51327568Y-162364246D01*
X51317170Y-162338348D01*
X51303798Y-162313858D01*
X51304333Y-162306372D01*
X51301537Y-162299407D01*
X51306791Y-162272000D01*
X51308782Y-162244166D01*
X51313550Y-162236746D01*
X51314693Y-162230787D01*
X51322970Y-162222089D01*
X51337283Y-162199819D01*
X51372595Y-162164507D01*
X51410489Y-162126613D01*
X51469799Y-162023886D01*
X51500500Y-161909309D01*
X51500500Y-161790691D01*
X51469799Y-161676114D01*
X51410489Y-161573387D01*
X51387281Y-161550179D01*
X51353797Y-161488855D01*
X51358783Y-161419163D01*
X51387282Y-161374819D01*
X51435489Y-161326613D01*
X51494799Y-161223886D01*
X51525500Y-161109309D01*
X51525500Y-160990691D01*
X51494799Y-160876114D01*
X51435489Y-160773387D01*
X51351613Y-160689511D01*
X51248886Y-160630201D01*
X51134309Y-160599500D01*
X51015691Y-160599500D01*
X50901114Y-160630201D01*
X50901112Y-160630201D01*
X50901112Y-160630202D01*
X50798387Y-160689511D01*
X50798384Y-160689513D01*
X50714513Y-160773384D01*
X50714511Y-160773387D01*
X50655201Y-160876114D01*
X50624500Y-160990691D01*
X50624500Y-161109309D01*
X50655201Y-161223886D01*
X50714511Y-161326613D01*
X50714513Y-161326615D01*
X50737717Y-161349819D01*
X50771202Y-161411142D01*
X50766218Y-161480834D01*
X50737717Y-161525181D01*
X50689513Y-161573384D01*
X50689511Y-161573387D01*
X50630201Y-161676114D01*
X50599500Y-161790691D01*
X41582880Y-161790691D01*
X41582880Y-161580249D01*
X41582879Y-161580247D01*
X41571248Y-161521770D01*
X41571247Y-161521769D01*
X41526932Y-161455447D01*
X41460610Y-161411132D01*
X41460609Y-161411131D01*
X41402132Y-161399500D01*
X41402128Y-161399500D01*
X39762632Y-161399500D01*
X39762627Y-161399500D01*
X39704150Y-161411131D01*
X39704149Y-161411132D01*
X39637827Y-161455447D01*
X39593512Y-161521769D01*
X39593511Y-161521770D01*
X39581880Y-161580247D01*
X38656386Y-161580247D01*
X38556300Y-161513371D01*
X38556287Y-161513364D01*
X38374219Y-161437950D01*
X38374209Y-161437947D01*
X38180923Y-161399500D01*
X38180921Y-161399500D01*
X37983839Y-161399500D01*
X37983837Y-161399500D01*
X37790550Y-161437947D01*
X37790540Y-161437950D01*
X37608472Y-161513364D01*
X37608459Y-161513371D01*
X37444598Y-161622860D01*
X37444594Y-161622863D01*
X37305243Y-161762214D01*
X37305240Y-161762218D01*
X37195751Y-161926079D01*
X37195744Y-161926092D01*
X37120330Y-162108160D01*
X37120327Y-162108170D01*
X37081880Y-162301456D01*
X37081880Y-162301459D01*
X37081880Y-162498541D01*
X37081880Y-162498543D01*
X37081879Y-162498543D01*
X29900500Y-162498543D01*
X29900500Y-160578800D01*
X72209002Y-160578800D01*
X72224562Y-160657032D01*
X72257691Y-160706613D01*
X73416986Y-161865908D01*
X73466567Y-161899037D01*
X73466569Y-161899038D01*
X73544800Y-161914598D01*
X73623031Y-161899038D01*
X73672611Y-161865910D01*
X74831910Y-160706611D01*
X74865038Y-160657031D01*
X74880598Y-160578800D01*
X74865038Y-160500569D01*
X74831910Y-160450989D01*
X74831908Y-160450986D01*
X73672613Y-159291691D01*
X73623032Y-159258562D01*
X73544800Y-159243002D01*
X73466567Y-159258562D01*
X73416986Y-159291691D01*
X72257691Y-160450986D01*
X72224562Y-160500567D01*
X72209002Y-160578800D01*
X29900500Y-160578800D01*
X29900500Y-155912227D01*
X53646700Y-155912227D01*
X53646700Y-157551732D01*
X53658331Y-157610209D01*
X53658332Y-157610210D01*
X53702647Y-157676532D01*
X53768969Y-157720847D01*
X53768970Y-157720848D01*
X53827447Y-157732479D01*
X53827450Y-157732480D01*
X53827452Y-157732480D01*
X55466950Y-157732480D01*
X55466951Y-157732479D01*
X55481768Y-157729532D01*
X55525429Y-157720848D01*
X55525429Y-157720847D01*
X55525431Y-157720847D01*
X55591752Y-157676532D01*
X55623852Y-157628491D01*
X65425300Y-157628491D01*
X65425300Y-157747109D01*
X65456001Y-157861686D01*
X65515311Y-157964413D01*
X65599187Y-158048289D01*
X65701914Y-158107599D01*
X65816491Y-158138300D01*
X65816494Y-158138300D01*
X65935106Y-158138300D01*
X65935109Y-158138300D01*
X66049686Y-158107599D01*
X66152413Y-158048289D01*
X66236289Y-157964413D01*
X66295599Y-157861686D01*
X66326300Y-157747109D01*
X66326300Y-157628491D01*
X67335300Y-157628491D01*
X67335300Y-157747109D01*
X67366001Y-157861686D01*
X67425311Y-157964413D01*
X67509187Y-158048289D01*
X67611914Y-158107599D01*
X67726491Y-158138300D01*
X67726494Y-158138300D01*
X67845106Y-158138300D01*
X67845109Y-158138300D01*
X67959686Y-158107599D01*
X68062413Y-158048289D01*
X68146289Y-157964413D01*
X68205599Y-157861686D01*
X68236300Y-157747109D01*
X68236300Y-157628491D01*
X68205599Y-157513914D01*
X68146289Y-157411187D01*
X68062413Y-157327311D01*
X67959686Y-157268001D01*
X67845109Y-157237300D01*
X67726491Y-157237300D01*
X67611914Y-157268001D01*
X67611912Y-157268001D01*
X67611912Y-157268002D01*
X67509187Y-157327311D01*
X67509184Y-157327313D01*
X67425313Y-157411184D01*
X67425311Y-157411187D01*
X67406048Y-157444552D01*
X67366001Y-157513914D01*
X67335300Y-157628491D01*
X66326300Y-157628491D01*
X66295599Y-157513914D01*
X66236289Y-157411187D01*
X66152413Y-157327311D01*
X66049686Y-157268001D01*
X65935109Y-157237300D01*
X65816491Y-157237300D01*
X65701914Y-157268001D01*
X65701912Y-157268001D01*
X65701912Y-157268002D01*
X65599187Y-157327311D01*
X65599184Y-157327313D01*
X65515313Y-157411184D01*
X65515311Y-157411187D01*
X65496048Y-157444552D01*
X65456001Y-157513914D01*
X65425300Y-157628491D01*
X55623852Y-157628491D01*
X55636067Y-157610211D01*
X55636067Y-157610209D01*
X55636068Y-157610209D01*
X55638860Y-157596173D01*
X55647699Y-157551732D01*
X55647700Y-157551730D01*
X55647700Y-156328491D01*
X65425300Y-156328491D01*
X65425300Y-156447109D01*
X65456001Y-156561686D01*
X65515311Y-156664413D01*
X65599187Y-156748289D01*
X65701914Y-156807599D01*
X65816491Y-156838300D01*
X65816494Y-156838300D01*
X65935106Y-156838300D01*
X65935109Y-156838300D01*
X66049686Y-156807599D01*
X66152413Y-156748289D01*
X66236289Y-156664413D01*
X66295599Y-156561686D01*
X66326300Y-156447109D01*
X66326300Y-156328491D01*
X67335300Y-156328491D01*
X67335300Y-156447109D01*
X67366001Y-156561686D01*
X67425311Y-156664413D01*
X67509187Y-156748289D01*
X67611914Y-156807599D01*
X67726491Y-156838300D01*
X67726494Y-156838300D01*
X67845106Y-156838300D01*
X67845109Y-156838300D01*
X67959686Y-156807599D01*
X68062413Y-156748289D01*
X68146289Y-156664413D01*
X68205599Y-156561686D01*
X68236300Y-156447109D01*
X68236300Y-156328491D01*
X68205599Y-156213914D01*
X68146289Y-156111187D01*
X68062413Y-156027311D01*
X67959686Y-155968001D01*
X67845109Y-155937300D01*
X67726491Y-155937300D01*
X67611914Y-155968001D01*
X67611912Y-155968001D01*
X67611912Y-155968002D01*
X67509187Y-156027311D01*
X67509184Y-156027313D01*
X67425313Y-156111184D01*
X67425311Y-156111187D01*
X67366001Y-156213914D01*
X67335300Y-156328491D01*
X66326300Y-156328491D01*
X66295599Y-156213914D01*
X66236289Y-156111187D01*
X66152413Y-156027311D01*
X66049686Y-155968001D01*
X65935109Y-155937300D01*
X65816491Y-155937300D01*
X65701914Y-155968001D01*
X65701912Y-155968001D01*
X65701912Y-155968002D01*
X65599187Y-156027311D01*
X65599184Y-156027313D01*
X65515313Y-156111184D01*
X65515311Y-156111187D01*
X65456001Y-156213914D01*
X65425300Y-156328491D01*
X55647700Y-156328491D01*
X55647700Y-155912229D01*
X55647699Y-155912227D01*
X55636068Y-155853750D01*
X55636067Y-155853749D01*
X55591752Y-155787427D01*
X55525430Y-155743112D01*
X55525429Y-155743111D01*
X55466952Y-155731480D01*
X55466948Y-155731480D01*
X53827452Y-155731480D01*
X53827447Y-155731480D01*
X53768970Y-155743111D01*
X53768969Y-155743112D01*
X53702647Y-155787427D01*
X53658332Y-155853749D01*
X53658331Y-155853750D01*
X53646700Y-155912227D01*
X29900500Y-155912227D01*
X29900500Y-154303440D01*
X46544602Y-154303440D01*
X46583050Y-154496726D01*
X46583053Y-154496736D01*
X46658467Y-154678804D01*
X46658474Y-154678817D01*
X46767963Y-154842678D01*
X46767966Y-154842682D01*
X46907317Y-154982033D01*
X46907321Y-154982036D01*
X47071182Y-155091525D01*
X47071195Y-155091532D01*
X47205372Y-155147109D01*
X47253268Y-155166948D01*
X47253272Y-155166948D01*
X47253273Y-155166949D01*
X47446559Y-155205397D01*
X47446562Y-155205397D01*
X47643646Y-155205397D01*
X47773685Y-155179529D01*
X47836938Y-155166948D01*
X48019017Y-155091529D01*
X48113360Y-155028491D01*
X65425300Y-155028491D01*
X65425300Y-155147109D01*
X65456001Y-155261686D01*
X65515311Y-155364413D01*
X65599187Y-155448289D01*
X65701914Y-155507599D01*
X65816491Y-155538300D01*
X65816494Y-155538300D01*
X65935106Y-155538300D01*
X65935109Y-155538300D01*
X66049686Y-155507599D01*
X66152413Y-155448289D01*
X66236289Y-155364413D01*
X66295599Y-155261686D01*
X66326300Y-155147109D01*
X66326300Y-155028491D01*
X67335300Y-155028491D01*
X67335300Y-155147109D01*
X67366001Y-155261686D01*
X67425311Y-155364413D01*
X67509187Y-155448289D01*
X67611914Y-155507599D01*
X67726491Y-155538300D01*
X67726494Y-155538300D01*
X67845106Y-155538300D01*
X67845109Y-155538300D01*
X67959686Y-155507599D01*
X68062413Y-155448289D01*
X68146289Y-155364413D01*
X68194883Y-155280247D01*
X82349500Y-155280247D01*
X82349500Y-157319752D01*
X82361131Y-157378229D01*
X82361132Y-157378230D01*
X82405447Y-157444552D01*
X82471769Y-157488867D01*
X82471770Y-157488868D01*
X82530247Y-157500499D01*
X82530250Y-157500500D01*
X82530252Y-157500500D01*
X86569750Y-157500500D01*
X86569751Y-157500499D01*
X86584568Y-157497552D01*
X86628229Y-157488868D01*
X86628229Y-157488867D01*
X86628231Y-157488867D01*
X86694552Y-157444552D01*
X86738867Y-157378231D01*
X86738867Y-157378229D01*
X86738868Y-157378229D01*
X86750499Y-157319752D01*
X86750500Y-157319750D01*
X86750500Y-155280249D01*
X86750499Y-155280247D01*
X86738868Y-155221770D01*
X86738867Y-155221769D01*
X86694552Y-155155447D01*
X86628230Y-155111132D01*
X86628229Y-155111131D01*
X86569752Y-155099500D01*
X86569748Y-155099500D01*
X82530252Y-155099500D01*
X82530247Y-155099500D01*
X82471770Y-155111131D01*
X82471769Y-155111132D01*
X82405447Y-155155447D01*
X82361132Y-155221769D01*
X82361131Y-155221770D01*
X82349500Y-155280247D01*
X68194883Y-155280247D01*
X68205599Y-155261686D01*
X68208224Y-155251885D01*
X68210857Y-155242065D01*
X68220682Y-155205397D01*
X68236300Y-155147109D01*
X68236300Y-155028491D01*
X68205599Y-154913914D01*
X68146289Y-154811187D01*
X68062413Y-154727311D01*
X67959686Y-154668001D01*
X67845109Y-154637300D01*
X67726491Y-154637300D01*
X67611914Y-154668001D01*
X67611912Y-154668001D01*
X67611912Y-154668002D01*
X67509187Y-154727311D01*
X67509184Y-154727313D01*
X67425313Y-154811184D01*
X67425311Y-154811187D01*
X67366001Y-154913914D01*
X67335300Y-155028491D01*
X66326300Y-155028491D01*
X66295599Y-154913914D01*
X66236289Y-154811187D01*
X66152413Y-154727311D01*
X66049686Y-154668001D01*
X65935109Y-154637300D01*
X65816491Y-154637300D01*
X65701914Y-154668001D01*
X65701912Y-154668001D01*
X65701912Y-154668002D01*
X65599187Y-154727311D01*
X65599184Y-154727313D01*
X65515313Y-154811184D01*
X65515311Y-154811187D01*
X65456001Y-154913914D01*
X65425300Y-155028491D01*
X48113360Y-155028491D01*
X48182885Y-154982036D01*
X48182888Y-154982033D01*
X48232239Y-154932683D01*
X48322239Y-154842682D01*
X48322242Y-154842679D01*
X48431735Y-154678811D01*
X48507154Y-154496732D01*
X48545603Y-154303438D01*
X48545603Y-154106356D01*
X48545603Y-154106353D01*
X48507155Y-153913067D01*
X48507154Y-153913066D01*
X48507154Y-153913062D01*
X48507152Y-153913057D01*
X48431738Y-153730989D01*
X48431731Y-153730976D01*
X48322242Y-153567115D01*
X48322239Y-153567111D01*
X48182888Y-153427760D01*
X48182884Y-153427757D01*
X48019023Y-153318268D01*
X48019010Y-153318261D01*
X47836942Y-153242847D01*
X47836932Y-153242844D01*
X47643646Y-153204397D01*
X47643644Y-153204397D01*
X47446562Y-153204397D01*
X47446560Y-153204397D01*
X47253273Y-153242844D01*
X47253263Y-153242847D01*
X47071195Y-153318261D01*
X47071182Y-153318268D01*
X46907321Y-153427757D01*
X46907317Y-153427760D01*
X46767966Y-153567111D01*
X46767963Y-153567115D01*
X46658474Y-153730976D01*
X46658467Y-153730989D01*
X46583053Y-153913057D01*
X46583050Y-153913067D01*
X46544603Y-154106353D01*
X46544603Y-154106356D01*
X46544603Y-154303438D01*
X46544603Y-154303440D01*
X46544602Y-154303440D01*
X29900500Y-154303440D01*
X29900500Y-150380247D01*
X85967121Y-150380247D01*
X85967121Y-152019752D01*
X85978752Y-152078229D01*
X85978753Y-152078230D01*
X86023068Y-152144552D01*
X86089390Y-152188867D01*
X86089391Y-152188868D01*
X86147868Y-152200499D01*
X86147871Y-152200500D01*
X86147873Y-152200500D01*
X87787371Y-152200500D01*
X87787372Y-152200499D01*
X87802189Y-152197552D01*
X87845850Y-152188868D01*
X87845850Y-152188867D01*
X87845852Y-152188867D01*
X87912173Y-152144552D01*
X87956488Y-152078231D01*
X87956488Y-152078229D01*
X87956489Y-152078229D01*
X87968120Y-152019752D01*
X87968121Y-152019750D01*
X87968121Y-150380249D01*
X87968120Y-150380247D01*
X87956489Y-150321770D01*
X87956488Y-150321769D01*
X87912173Y-150255447D01*
X87845851Y-150211132D01*
X87845850Y-150211131D01*
X87787373Y-150199500D01*
X87787369Y-150199500D01*
X86147873Y-150199500D01*
X86147868Y-150199500D01*
X86089391Y-150211131D01*
X86089390Y-150211132D01*
X86023068Y-150255447D01*
X85978753Y-150321769D01*
X85978752Y-150321770D01*
X85967121Y-150380247D01*
X29900500Y-150380247D01*
X29900500Y-149465691D01*
X65299500Y-149465691D01*
X65299500Y-149584309D01*
X65330201Y-149698886D01*
X65389511Y-149801613D01*
X65473387Y-149885489D01*
X65576114Y-149944799D01*
X65690691Y-149975500D01*
X65690694Y-149975500D01*
X65809306Y-149975500D01*
X65809309Y-149975500D01*
X65923886Y-149944799D01*
X66026613Y-149885489D01*
X66110489Y-149801613D01*
X66169799Y-149698886D01*
X66200500Y-149584309D01*
X66200500Y-149465691D01*
X66169799Y-149351114D01*
X66110489Y-149248387D01*
X66026613Y-149164511D01*
X65923886Y-149105201D01*
X65809309Y-149074500D01*
X65690691Y-149074500D01*
X65576114Y-149105201D01*
X65576112Y-149105201D01*
X65576112Y-149105202D01*
X65473387Y-149164511D01*
X65473384Y-149164513D01*
X65389513Y-149248384D01*
X65389511Y-149248387D01*
X65330201Y-149351114D01*
X65299500Y-149465691D01*
X29900500Y-149465691D01*
X29900500Y-144461757D01*
X32367001Y-144461757D01*
X32367001Y-144738242D01*
X32395392Y-144917496D01*
X32395392Y-144917499D01*
X32451472Y-145090095D01*
X32451474Y-145090098D01*
X32533867Y-145251804D01*
X32640542Y-145398629D01*
X32768872Y-145526959D01*
X32915697Y-145633634D01*
X33077403Y-145716027D01*
X33077405Y-145716028D01*
X33250002Y-145772108D01*
X33250003Y-145772108D01*
X33250006Y-145772109D01*
X33429258Y-145800500D01*
X33429259Y-145800500D01*
X33610743Y-145800500D01*
X33610744Y-145800500D01*
X33789996Y-145772109D01*
X33789999Y-145772108D01*
X33790000Y-145772108D01*
X33962596Y-145716028D01*
X33962596Y-145716027D01*
X33962599Y-145716027D01*
X34124305Y-145633634D01*
X34271130Y-145526959D01*
X34399460Y-145398629D01*
X34506135Y-145251804D01*
X34588528Y-145090098D01*
X34644610Y-144917495D01*
X34667527Y-144772799D01*
X34697456Y-144709666D01*
X34756767Y-144672734D01*
X34826630Y-144673732D01*
X34884863Y-144712341D01*
X34912473Y-144772800D01*
X34935391Y-144917496D01*
X34935391Y-144917499D01*
X34991471Y-145090095D01*
X34991473Y-145090098D01*
X35073866Y-145251804D01*
X35180541Y-145398629D01*
X35308871Y-145526959D01*
X35455696Y-145633634D01*
X35617402Y-145716027D01*
X35617404Y-145716028D01*
X35790001Y-145772108D01*
X35790002Y-145772108D01*
X35790005Y-145772109D01*
X35969257Y-145800500D01*
X35969258Y-145800500D01*
X36150742Y-145800500D01*
X36150743Y-145800500D01*
X36329995Y-145772109D01*
X36329998Y-145772108D01*
X36329999Y-145772108D01*
X36502595Y-145716028D01*
X36502595Y-145716027D01*
X36502598Y-145716027D01*
X36664304Y-145633634D01*
X36811129Y-145526959D01*
X36939459Y-145398629D01*
X37046134Y-145251804D01*
X37128527Y-145090098D01*
X37184609Y-144917495D01*
X37213000Y-144738243D01*
X37213000Y-144461757D01*
X43767001Y-144461757D01*
X43767001Y-144738242D01*
X43795392Y-144917496D01*
X43795392Y-144917499D01*
X43851472Y-145090095D01*
X43851474Y-145090098D01*
X43933867Y-145251804D01*
X44040542Y-145398629D01*
X44168872Y-145526959D01*
X44315697Y-145633634D01*
X44477403Y-145716027D01*
X44477405Y-145716028D01*
X44650002Y-145772108D01*
X44650003Y-145772108D01*
X44650006Y-145772109D01*
X44829258Y-145800500D01*
X44829259Y-145800500D01*
X45010743Y-145800500D01*
X45010744Y-145800500D01*
X45189996Y-145772109D01*
X45189999Y-145772108D01*
X45190000Y-145772108D01*
X45362596Y-145716028D01*
X45362596Y-145716027D01*
X45362599Y-145716027D01*
X45524305Y-145633634D01*
X45671130Y-145526959D01*
X45799460Y-145398629D01*
X45906135Y-145251804D01*
X45988528Y-145090098D01*
X46044610Y-144917495D01*
X46067527Y-144772799D01*
X46097456Y-144709666D01*
X46156767Y-144672734D01*
X46226630Y-144673732D01*
X46284863Y-144712341D01*
X46312473Y-144772800D01*
X46335391Y-144917496D01*
X46335391Y-144917499D01*
X46391471Y-145090095D01*
X46391473Y-145090098D01*
X46473866Y-145251804D01*
X46580541Y-145398629D01*
X46708871Y-145526959D01*
X46855696Y-145633634D01*
X47017402Y-145716027D01*
X47017404Y-145716028D01*
X47190001Y-145772108D01*
X47190002Y-145772108D01*
X47190005Y-145772109D01*
X47369257Y-145800500D01*
X47369258Y-145800500D01*
X47550742Y-145800500D01*
X47550743Y-145800500D01*
X47729995Y-145772109D01*
X47729998Y-145772108D01*
X47729999Y-145772108D01*
X47902595Y-145716028D01*
X47902595Y-145716027D01*
X47902598Y-145716027D01*
X48064304Y-145633634D01*
X48211129Y-145526959D01*
X48339459Y-145398629D01*
X48446134Y-145251804D01*
X48528527Y-145090098D01*
X48584609Y-144917495D01*
X48613000Y-144738243D01*
X48613000Y-144461757D01*
X48584609Y-144282505D01*
X48584608Y-144282501D01*
X48584608Y-144282500D01*
X48528528Y-144109904D01*
X48446133Y-143948195D01*
X48339459Y-143801371D01*
X48211129Y-143673041D01*
X48064304Y-143566366D01*
X47902595Y-143483971D01*
X47729998Y-143427891D01*
X47595556Y-143406597D01*
X47550743Y-143399500D01*
X47369257Y-143399500D01*
X47309506Y-143408963D01*
X47190003Y-143427891D01*
X47190000Y-143427891D01*
X47017404Y-143483971D01*
X46855695Y-143566366D01*
X46771926Y-143627228D01*
X46708871Y-143673041D01*
X46708869Y-143673043D01*
X46708868Y-143673043D01*
X46580543Y-143801368D01*
X46580543Y-143801369D01*
X46580541Y-143801371D01*
X46534728Y-143864426D01*
X46473866Y-143948195D01*
X46391471Y-144109904D01*
X46335391Y-144282500D01*
X46335391Y-144282503D01*
X46312473Y-144427199D01*
X46282544Y-144490334D01*
X46223232Y-144527265D01*
X46153369Y-144526267D01*
X46095137Y-144487657D01*
X46067527Y-144427199D01*
X46044610Y-144282505D01*
X46044609Y-144282501D01*
X46044609Y-144282500D01*
X45988529Y-144109904D01*
X45906134Y-143948195D01*
X45799460Y-143801371D01*
X45671130Y-143673041D01*
X45524305Y-143566366D01*
X45362596Y-143483971D01*
X45189999Y-143427891D01*
X45055557Y-143406597D01*
X45010744Y-143399500D01*
X44829258Y-143399500D01*
X44769507Y-143408963D01*
X44650004Y-143427891D01*
X44650001Y-143427891D01*
X44477405Y-143483971D01*
X44315696Y-143566366D01*
X44231927Y-143627228D01*
X44168872Y-143673041D01*
X44168870Y-143673043D01*
X44168869Y-143673043D01*
X44040544Y-143801368D01*
X44040544Y-143801369D01*
X44040542Y-143801371D01*
X43994729Y-143864426D01*
X43933867Y-143948195D01*
X43851472Y-144109904D01*
X43795392Y-144282500D01*
X43795392Y-144282503D01*
X43767001Y-144461757D01*
X37213000Y-144461757D01*
X37184609Y-144282505D01*
X37184608Y-144282501D01*
X37184608Y-144282500D01*
X37128528Y-144109904D01*
X37046133Y-143948195D01*
X36939459Y-143801371D01*
X36811129Y-143673041D01*
X36664304Y-143566366D01*
X36502595Y-143483971D01*
X36329998Y-143427891D01*
X36195556Y-143406597D01*
X36150743Y-143399500D01*
X35969257Y-143399500D01*
X35909506Y-143408963D01*
X35790003Y-143427891D01*
X35790000Y-143427891D01*
X35617404Y-143483971D01*
X35455695Y-143566366D01*
X35371926Y-143627228D01*
X35308871Y-143673041D01*
X35308869Y-143673043D01*
X35308868Y-143673043D01*
X35180543Y-143801368D01*
X35180543Y-143801369D01*
X35180541Y-143801371D01*
X35134728Y-143864426D01*
X35073866Y-143948195D01*
X34991471Y-144109904D01*
X34935391Y-144282500D01*
X34935391Y-144282503D01*
X34912473Y-144427199D01*
X34882544Y-144490334D01*
X34823232Y-144527265D01*
X34753369Y-144526267D01*
X34695137Y-144487657D01*
X34667527Y-144427199D01*
X34644610Y-144282505D01*
X34644609Y-144282501D01*
X34644609Y-144282500D01*
X34588529Y-144109904D01*
X34506134Y-143948195D01*
X34399460Y-143801371D01*
X34271130Y-143673041D01*
X34124305Y-143566366D01*
X33962596Y-143483971D01*
X33789999Y-143427891D01*
X33655557Y-143406597D01*
X33610744Y-143399500D01*
X33429258Y-143399500D01*
X33369507Y-143408963D01*
X33250004Y-143427891D01*
X33250001Y-143427891D01*
X33077405Y-143483971D01*
X32915696Y-143566366D01*
X32831927Y-143627228D01*
X32768872Y-143673041D01*
X32768870Y-143673043D01*
X32768869Y-143673043D01*
X32640544Y-143801368D01*
X32640544Y-143801369D01*
X32640542Y-143801371D01*
X32594729Y-143864426D01*
X32533867Y-143948195D01*
X32451472Y-144109904D01*
X32395392Y-144282500D01*
X32395392Y-144282503D01*
X32367001Y-144461757D01*
X29900500Y-144461757D01*
X29900500Y-141440691D01*
X58824500Y-141440691D01*
X58824500Y-141559309D01*
X58855201Y-141673886D01*
X58914511Y-141776613D01*
X58914513Y-141776615D01*
X58962717Y-141824819D01*
X58996202Y-141886142D01*
X58991218Y-141955834D01*
X58962717Y-142000181D01*
X58914513Y-142048384D01*
X58914511Y-142048387D01*
X58855201Y-142151114D01*
X58824500Y-142265691D01*
X58824500Y-142384309D01*
X58855201Y-142498886D01*
X58914511Y-142601613D01*
X58998387Y-142685489D01*
X59101114Y-142744799D01*
X59215691Y-142775500D01*
X59215694Y-142775500D01*
X59334306Y-142775500D01*
X59334309Y-142775500D01*
X59448886Y-142744799D01*
X59551613Y-142685489D01*
X59635489Y-142601613D01*
X59694799Y-142498886D01*
X59725500Y-142384309D01*
X59725500Y-142265691D01*
X59694799Y-142151114D01*
X59635489Y-142048387D01*
X59587283Y-142000181D01*
X59553798Y-141938858D01*
X59558782Y-141869166D01*
X59587283Y-141824819D01*
X59635489Y-141776613D01*
X59694799Y-141673886D01*
X59725500Y-141559309D01*
X59725500Y-141440691D01*
X59694799Y-141326114D01*
X59635489Y-141223387D01*
X59551613Y-141139511D01*
X59448886Y-141080201D01*
X59334309Y-141049500D01*
X59215691Y-141049500D01*
X59101114Y-141080201D01*
X59101112Y-141080201D01*
X59101112Y-141080202D01*
X58998387Y-141139511D01*
X58998384Y-141139513D01*
X58914513Y-141223384D01*
X58914511Y-141223387D01*
X58855201Y-141326114D01*
X58824500Y-141440691D01*
X29900500Y-141440691D01*
X29900500Y-140790691D01*
X75874500Y-140790691D01*
X75874500Y-140909309D01*
X75905201Y-141023886D01*
X75964511Y-141126613D01*
X76048387Y-141210489D01*
X76151114Y-141269799D01*
X76265691Y-141300500D01*
X76265694Y-141300500D01*
X76384306Y-141300500D01*
X76384309Y-141300500D01*
X76498886Y-141269799D01*
X76601613Y-141210489D01*
X76685489Y-141126613D01*
X76744799Y-141023886D01*
X76775500Y-140909309D01*
X76775500Y-140790691D01*
X76768801Y-140765691D01*
X77024500Y-140765691D01*
X77024500Y-140884309D01*
X77055201Y-140998886D01*
X77114511Y-141101613D01*
X77198387Y-141185489D01*
X77301114Y-141244799D01*
X77415691Y-141275500D01*
X77415694Y-141275500D01*
X77534306Y-141275500D01*
X77534309Y-141275500D01*
X77648886Y-141244799D01*
X77751613Y-141185489D01*
X77835489Y-141101613D01*
X77894799Y-140998886D01*
X77925500Y-140884309D01*
X77925500Y-140765691D01*
X78549500Y-140765691D01*
X78549500Y-140884309D01*
X78580201Y-140998886D01*
X78639511Y-141101613D01*
X78723387Y-141185489D01*
X78826114Y-141244799D01*
X78940691Y-141275500D01*
X78940694Y-141275500D01*
X79059306Y-141275500D01*
X79059309Y-141275500D01*
X79173886Y-141244799D01*
X79276613Y-141185489D01*
X79360489Y-141101613D01*
X79419799Y-140998886D01*
X79450500Y-140884309D01*
X79450500Y-140765691D01*
X79799500Y-140765691D01*
X79799500Y-140884309D01*
X79830201Y-140998886D01*
X79889511Y-141101613D01*
X79973387Y-141185489D01*
X80076114Y-141244799D01*
X80190691Y-141275500D01*
X80190694Y-141275500D01*
X80309306Y-141275500D01*
X80309309Y-141275500D01*
X80423886Y-141244799D01*
X80526613Y-141185489D01*
X80610489Y-141101613D01*
X80669799Y-140998886D01*
X80700500Y-140884309D01*
X80700500Y-140765691D01*
X80693801Y-140740691D01*
X81199500Y-140740691D01*
X81199500Y-140859309D01*
X81230201Y-140973886D01*
X81289511Y-141076613D01*
X81373387Y-141160489D01*
X81476114Y-141219799D01*
X81590691Y-141250500D01*
X81590694Y-141250500D01*
X81709306Y-141250500D01*
X81709309Y-141250500D01*
X81823886Y-141219799D01*
X81926613Y-141160489D01*
X82010489Y-141076613D01*
X82069799Y-140973886D01*
X82100500Y-140859309D01*
X82100500Y-140740691D01*
X82069799Y-140626114D01*
X82010489Y-140523387D01*
X81926613Y-140439511D01*
X81823886Y-140380201D01*
X81709309Y-140349500D01*
X81590691Y-140349500D01*
X81476114Y-140380201D01*
X81476112Y-140380201D01*
X81476112Y-140380202D01*
X81373387Y-140439511D01*
X81373384Y-140439513D01*
X81289513Y-140523384D01*
X81289511Y-140523387D01*
X81230201Y-140626114D01*
X81199500Y-140740691D01*
X80693801Y-140740691D01*
X80669799Y-140651114D01*
X80610489Y-140548387D01*
X80526613Y-140464511D01*
X80423886Y-140405201D01*
X80309309Y-140374500D01*
X80190691Y-140374500D01*
X80076114Y-140405201D01*
X80076112Y-140405201D01*
X80076112Y-140405202D01*
X79973387Y-140464511D01*
X79973384Y-140464513D01*
X79889513Y-140548384D01*
X79889511Y-140548387D01*
X79830201Y-140651114D01*
X79799500Y-140765691D01*
X79450500Y-140765691D01*
X79419799Y-140651114D01*
X79360489Y-140548387D01*
X79276613Y-140464511D01*
X79173886Y-140405201D01*
X79059309Y-140374500D01*
X78940691Y-140374500D01*
X78826114Y-140405201D01*
X78826112Y-140405201D01*
X78826112Y-140405202D01*
X78723387Y-140464511D01*
X78723384Y-140464513D01*
X78639513Y-140548384D01*
X78639511Y-140548387D01*
X78580201Y-140651114D01*
X78549500Y-140765691D01*
X77925500Y-140765691D01*
X77894799Y-140651114D01*
X77835489Y-140548387D01*
X77751613Y-140464511D01*
X77648886Y-140405201D01*
X77534309Y-140374500D01*
X77415691Y-140374500D01*
X77301114Y-140405201D01*
X77301112Y-140405201D01*
X77301112Y-140405202D01*
X77198387Y-140464511D01*
X77198384Y-140464513D01*
X77114513Y-140548384D01*
X77114511Y-140548387D01*
X77055201Y-140651114D01*
X77024500Y-140765691D01*
X76768801Y-140765691D01*
X76744799Y-140676114D01*
X76685489Y-140573387D01*
X76601613Y-140489511D01*
X76498886Y-140430201D01*
X76384309Y-140399500D01*
X76265691Y-140399500D01*
X76151114Y-140430201D01*
X76151112Y-140430201D01*
X76151112Y-140430202D01*
X76048387Y-140489511D01*
X76048384Y-140489513D01*
X75964513Y-140573384D01*
X75964511Y-140573387D01*
X75905201Y-140676114D01*
X75874500Y-140790691D01*
X29900500Y-140790691D01*
X29900500Y-134124000D01*
X29920185Y-134056961D01*
X29972989Y-134011206D01*
X30024500Y-134000000D01*
X91475500Y-134000000D01*
X91542539Y-134019685D01*
G37*
%TD.AperFunction*%
%TD*%
M02*
