%TF.GenerationSoftware,KiCad,Pcbnew,9.0.0-rc1-459-gb92bef8eee*%
%TF.CreationDate,2025-02-18T20:32:15+01:00*%
%TF.ProjectId,AWG101,41574731-3031-42e6-9b69-6361645f7063,rev?*%
%TF.SameCoordinates,Original*%
%TF.FileFunction,Legend,Bot*%
%TF.FilePolarity,Positive*%
%FSLAX46Y46*%
G04 Gerber Fmt 4.6, Leading zero omitted, Abs format (unit mm)*
G04 Created by KiCad (PCBNEW 9.0.0-rc1-459-gb92bef8eee) date 2025-02-18 20:32:15*
%MOMM*%
%LPD*%
G01*
G04 APERTURE LIST*
G04 Aperture macros list*
%AMRoundRect*
0 Rectangle with rounded corners*
0 $1 Rounding radius*
0 $2 $3 $4 $5 $6 $7 $8 $9 X,Y pos of 4 corners*
0 Add a 4 corners polygon primitive as box body*
4,1,4,$2,$3,$4,$5,$6,$7,$8,$9,$2,$3,0*
0 Add four circle primitives for the rounded corners*
1,1,$1+$1,$2,$3*
1,1,$1+$1,$4,$5*
1,1,$1+$1,$6,$7*
1,1,$1+$1,$8,$9*
0 Add four rect primitives between the rounded corners*
20,1,$1+$1,$2,$3,$4,$5,0*
20,1,$1+$1,$4,$5,$6,$7,0*
20,1,$1+$1,$6,$7,$8,$9,0*
20,1,$1+$1,$8,$9,$2,$3,0*%
%AMRotRect*
0 Rectangle, with rotation*
0 The origin of the aperture is its center*
0 $1 length*
0 $2 width*
0 $3 Rotation angle, in degrees counterclockwise*
0 Add horizontal line*
21,1,$1,$2,0,0,$3*%
G04 Aperture macros list end*
%ADD10C,0.150000*%
%ADD11C,0.120000*%
%ADD12R,1.700000X1.700000*%
%ADD13O,1.700000X1.700000*%
%ADD14RoundRect,0.100000X-0.637500X-0.100000X0.637500X-0.100000X0.637500X0.100000X-0.637500X0.100000X0*%
%ADD15RoundRect,0.200000X-0.200000X-0.275000X0.200000X-0.275000X0.200000X0.275000X-0.200000X0.275000X0*%
%ADD16RoundRect,0.225000X0.225000X0.250000X-0.225000X0.250000X-0.225000X-0.250000X0.225000X-0.250000X0*%
%ADD17O,2.000000X3.500000*%
%ADD18O,3.300000X2.000000*%
%ADD19R,4.000000X2.000000*%
%ADD20C,1.600000*%
%ADD21R,1.600000X1.600000*%
%ADD22RotRect,1.600000X1.600000X315.000000*%
%ADD23R,1.905000X2.000000*%
%ADD24O,1.905000X2.000000*%
%ADD25C,3.556000*%
%ADD26C,3.810000*%
G04 APERTURE END LIST*
D10*
X87961904Y-119954819D02*
X87961904Y-120764342D01*
X87961904Y-120764342D02*
X87914285Y-120859580D01*
X87914285Y-120859580D02*
X87866666Y-120907200D01*
X87866666Y-120907200D02*
X87771428Y-120954819D01*
X87771428Y-120954819D02*
X87580952Y-120954819D01*
X87580952Y-120954819D02*
X87485714Y-120907200D01*
X87485714Y-120907200D02*
X87438095Y-120859580D01*
X87438095Y-120859580D02*
X87390476Y-120764342D01*
X87390476Y-120764342D02*
X87390476Y-119954819D01*
X86485714Y-120288152D02*
X86485714Y-120954819D01*
X86723809Y-119907200D02*
X86961904Y-120621485D01*
X86961904Y-120621485D02*
X86342857Y-120621485D01*
X84466666Y-122354819D02*
X84799999Y-121878628D01*
X85038094Y-122354819D02*
X85038094Y-121354819D01*
X85038094Y-121354819D02*
X84657142Y-121354819D01*
X84657142Y-121354819D02*
X84561904Y-121402438D01*
X84561904Y-121402438D02*
X84514285Y-121450057D01*
X84514285Y-121450057D02*
X84466666Y-121545295D01*
X84466666Y-121545295D02*
X84466666Y-121688152D01*
X84466666Y-121688152D02*
X84514285Y-121783390D01*
X84514285Y-121783390D02*
X84561904Y-121831009D01*
X84561904Y-121831009D02*
X84657142Y-121878628D01*
X84657142Y-121878628D02*
X85038094Y-121878628D01*
X84133332Y-121354819D02*
X83514285Y-121354819D01*
X83514285Y-121354819D02*
X83847618Y-121735771D01*
X83847618Y-121735771D02*
X83704761Y-121735771D01*
X83704761Y-121735771D02*
X83609523Y-121783390D01*
X83609523Y-121783390D02*
X83561904Y-121831009D01*
X83561904Y-121831009D02*
X83514285Y-121926247D01*
X83514285Y-121926247D02*
X83514285Y-122164342D01*
X83514285Y-122164342D02*
X83561904Y-122259580D01*
X83561904Y-122259580D02*
X83609523Y-122307200D01*
X83609523Y-122307200D02*
X83704761Y-122354819D01*
X83704761Y-122354819D02*
X83990475Y-122354819D01*
X83990475Y-122354819D02*
X84085713Y-122307200D01*
X84085713Y-122307200D02*
X84133332Y-122259580D01*
X85142857Y-114159580D02*
X85190476Y-114207200D01*
X85190476Y-114207200D02*
X85333333Y-114254819D01*
X85333333Y-114254819D02*
X85428571Y-114254819D01*
X85428571Y-114254819D02*
X85571428Y-114207200D01*
X85571428Y-114207200D02*
X85666666Y-114111961D01*
X85666666Y-114111961D02*
X85714285Y-114016723D01*
X85714285Y-114016723D02*
X85761904Y-113826247D01*
X85761904Y-113826247D02*
X85761904Y-113683390D01*
X85761904Y-113683390D02*
X85714285Y-113492914D01*
X85714285Y-113492914D02*
X85666666Y-113397676D01*
X85666666Y-113397676D02*
X85571428Y-113302438D01*
X85571428Y-113302438D02*
X85428571Y-113254819D01*
X85428571Y-113254819D02*
X85333333Y-113254819D01*
X85333333Y-113254819D02*
X85190476Y-113302438D01*
X85190476Y-113302438D02*
X85142857Y-113350057D01*
X84238095Y-113254819D02*
X84714285Y-113254819D01*
X84714285Y-113254819D02*
X84761904Y-113731009D01*
X84761904Y-113731009D02*
X84714285Y-113683390D01*
X84714285Y-113683390D02*
X84619047Y-113635771D01*
X84619047Y-113635771D02*
X84380952Y-113635771D01*
X84380952Y-113635771D02*
X84285714Y-113683390D01*
X84285714Y-113683390D02*
X84238095Y-113731009D01*
X84238095Y-113731009D02*
X84190476Y-113826247D01*
X84190476Y-113826247D02*
X84190476Y-114064342D01*
X84190476Y-114064342D02*
X84238095Y-114159580D01*
X84238095Y-114159580D02*
X84285714Y-114207200D01*
X84285714Y-114207200D02*
X84380952Y-114254819D01*
X84380952Y-114254819D02*
X84619047Y-114254819D01*
X84619047Y-114254819D02*
X84714285Y-114207200D01*
X84714285Y-114207200D02*
X84761904Y-114159580D01*
X83333333Y-113254819D02*
X83523809Y-113254819D01*
X83523809Y-113254819D02*
X83619047Y-113302438D01*
X83619047Y-113302438D02*
X83666666Y-113350057D01*
X83666666Y-113350057D02*
X83761904Y-113492914D01*
X83761904Y-113492914D02*
X83809523Y-113683390D01*
X83809523Y-113683390D02*
X83809523Y-114064342D01*
X83809523Y-114064342D02*
X83761904Y-114159580D01*
X83761904Y-114159580D02*
X83714285Y-114207200D01*
X83714285Y-114207200D02*
X83619047Y-114254819D01*
X83619047Y-114254819D02*
X83428571Y-114254819D01*
X83428571Y-114254819D02*
X83333333Y-114207200D01*
X83333333Y-114207200D02*
X83285714Y-114159580D01*
X83285714Y-114159580D02*
X83238095Y-114064342D01*
X83238095Y-114064342D02*
X83238095Y-113826247D01*
X83238095Y-113826247D02*
X83285714Y-113731009D01*
X83285714Y-113731009D02*
X83333333Y-113683390D01*
X83333333Y-113683390D02*
X83428571Y-113635771D01*
X83428571Y-113635771D02*
X83619047Y-113635771D01*
X83619047Y-113635771D02*
X83714285Y-113683390D01*
X83714285Y-113683390D02*
X83761904Y-113731009D01*
X83761904Y-113731009D02*
X83809523Y-113826247D01*
D11*
%TO.C,U4*%
X84500000Y-119410000D02*
X82300000Y-119410000D01*
X84500000Y-119410000D02*
X86700000Y-119410000D01*
X84500000Y-116190000D02*
X82300000Y-116190000D01*
X84500000Y-116190000D02*
X86700000Y-116190000D01*
X81839999Y-119565000D02*
X81360000Y-119565000D01*
X81600000Y-119235000D01*
X81839999Y-119565000D01*
G36*
X81839999Y-119565000D02*
G01*
X81360000Y-119565000D01*
X81600000Y-119235000D01*
X81839999Y-119565000D01*
G37*
%TO.C,R3*%
X84062742Y-120822500D02*
X84537258Y-120822500D01*
X84062742Y-119777500D02*
X84537258Y-119777500D01*
%TO.C,C56*%
X84740581Y-114690000D02*
X84459419Y-114690000D01*
X84740581Y-115710000D02*
X84459419Y-115710000D01*
%TD*%
%LPC*%
D12*
%TO.C,J5*%
X72420000Y-98400000D03*
D13*
X74960000Y-98400000D03*
X77500000Y-98400000D03*
X80040000Y-98400000D03*
X82580000Y-98400000D03*
X85120000Y-98400000D03*
%TD*%
D14*
%TO.C,U4*%
X81637500Y-118775000D03*
X81637500Y-118125000D03*
X81637500Y-117475000D03*
X81637500Y-116825000D03*
X87362500Y-116825000D03*
X87362500Y-117475000D03*
X87362500Y-118125000D03*
X87362500Y-118775000D03*
%TD*%
D15*
%TO.C,R3*%
X83475000Y-120300000D03*
X85125000Y-120300000D03*
%TD*%
D16*
%TO.C,C56*%
X85375000Y-115200000D03*
X83825000Y-115200000D03*
%TD*%
D17*
%TO.C,J3*%
X89050000Y-163300000D03*
X80050000Y-163300000D03*
D18*
X84550000Y-162300000D03*
D19*
X84550000Y-156300000D03*
D20*
X84550000Y-165300000D03*
%TD*%
D21*
%TO.C,C18*%
X47545103Y-156704897D03*
D20*
X47545103Y-154204897D03*
%TD*%
D21*
%TO.C,C32*%
X86967621Y-151200000D03*
D20*
X89467621Y-151200000D03*
%TD*%
D22*
%TO.C,C41*%
X73544800Y-160578800D03*
D20*
X75312567Y-162346567D03*
%TD*%
D21*
%TO.C,C17*%
X40582380Y-162400000D03*
D20*
X38082380Y-162400000D03*
%TD*%
D21*
%TO.C,C16*%
X54647200Y-156731980D03*
D20*
X54647200Y-154231980D03*
%TD*%
D23*
%TO.C,U15*%
X38600000Y-144600000D03*
D24*
X36060000Y-144600000D03*
X33520001Y-144600000D03*
%TD*%
D23*
%TO.C,U10*%
X50000000Y-144600000D03*
D24*
X47460000Y-144600000D03*
X44920001Y-144600000D03*
%TD*%
D25*
%TO.C,J1*%
X36250000Y-102250000D03*
D26*
X33075000Y-99075000D03*
X33075000Y-105425000D03*
X39425000Y-99075000D03*
X39425000Y-105425000D03*
%TD*%
%LPD*%
M02*
